<svg xmlns="http://www.w3.org/2000/svg" viewBox="0 0 500 173.7" xmlns:v="https://vecta.io/nano"><path d="M33.8 119c-.1-.3-.4-.5-.7-.5h-6.5c-.3 0-.6.2-.7.5l-22 52.2h10.5c.3 0 .6-.2.7-.5l6.1-14.3h18.4l6.1 14.3c.1.2.4.5.7.5h10.5L33.8 119zM25 147.4l5.3-12.5 5.3 12.5H25zm67.6 23.8H60.8v-52.7H70c.4 0 .6.3.6.7v42.9h22.6v8.4c0 .4-.3.7-.6.7m234 0h-9.8v-52.7h9.8v52.7zm54-52.6l-20 25.4v27.3h-9.8V144l-20-25.3h12l12.8 16.4 12.5-15.9.4-.5h12.1zm-71.5 0v52.7H300a.68.68 0 0 1-.7-.7v-36l-13.6 17.1h-2.4l-13.6-17.1v36a.68.68 0 0 1-.7.7h-9.2v-52.7h8.4c.2 0 .4.1.5.2l15.8 19.5 15.8-19.5c.1-.1.3-.3.5-.3h8.3zm-76.5.4c-.1-.3-.4-.5-.7-.5h-6.5c-.3 0-.6.2-.7.5l-22 52.2h10.5c.3 0 .6-.2.7-.5l6.1-14.3h18.4l6.1 14.3c.1.2.4.5.7.5h10.5L232.6 119zm-8.8 28.4l5.3-12.5 5.3 12.5h-10.6zm173-28.4c-.1-.3-.4-.5-.7-.5h-6.5c-.3 0-.6.2-.7.5l-22 52.2h10.5c.3 0 .6-.2.7-.5l6.1-14.3h18.4l6.1 14.3c.1.2.4.5.7.5h10.5L396.8 119zm-8.8 28.4l5.3-12.5 5.3 12.5H388zM140 119c-.1-.3-.4-.5-.7-.5h-6.5c-.3 0-.6.2-.7.5l-22 52.2h10.5c.3 0 .6-.2.7-.5l6.1-14.3h18.4l6.1 14.3c.1.2.4.5.7.5H163L140 119zm-8.8 28.4l5.3-12.5 5.3 12.5h-10.6zm67.6 23.8H167v-52.7h9.2c.4 0 .6.3.6.7v42.9h22.6v8.4c0 .4-.3.7-.6.7m221-72.2H410V46.3h9.8V99zm-26.2-52.7v37.1c0 8.6-7 15.6-15.6 15.6H250.5c-8.6 0-15.6-7-15.6-15.6V46.3h9.8v37.1c0 3.2 2.6 5.8 5.8 5.8h49.8l-12.1-12.1c-.2-.2-.2-.5 0-.9s9.3-14.9 26-14.9 25.8 14.5 26 14.9.2.7 0 .9l-12.1 12.1h49.8c3.2 0 5.8-2.6 5.8-5.8V46.3h9.9zm-92.1 30.1l12.7 12.7L327 76.4c-3.2-3.3-7.7-5.4-12.7-5.4-5.1.1-9.6 2.1-12.8 5.4m-281-25.2a4.91 4.91 0 0 1 4.9-4.9 4.91 4.91 0 0 1 4.9 4.9 4.91 4.91 0 0 1-4.9 4.9 4.91 4.91 0 0 1-4.9-4.9m10.6 0a4.91 4.91 0 0 1 4.9-4.9 4.91 4.91 0 0 1 4.9 4.9 4.91 4.91 0 0 1-4.9 4.9 4.91 4.91 0 0 1-4.9-4.9m47.3 58.4a4.91 4.91 0 0 1 4.9-4.9 4.91 4.91 0 0 1 4.9 4.9 4.91 4.91 0 0 1-4.9 4.9c-2.7.1-4.9-2.1-4.9-4.9m10.7 0a4.91 4.91 0 0 1 4.9-4.9 4.91 4.91 0 0 1 4.9 4.9 4.91 4.91 0 0 1-4.9 4.9c-2.7.1-4.9-2.1-4.9-4.9m125.8-63.3v37.1c0 8.6-7 15.6-15.6 15.6h-34.8c-2 5.7-7.5 9.8-13.9 9.8s-11.9-4.1-13.9-9.8H99.4c-4.2 0-7.9-1.6-10.7-4.2C85.9 97.3 82.1 99 78 99H3.9v-9.8c0-15 12.2-27.2 27.2-27.2h9.8v27.2h37c3.1 0 5.7-2.5 5.8-5.6v-.2-13.8-7.5h0v-.2h9.8v7.6 13.9.2c.1 3.1 2.7 5.6 5.8 5.6h37.4c2-5.7 7.5-9.8 13.9-9.8s11.9 4.1 13.9 9.8h34.8c3.2 0 5.8-2.6 5.8-5.8V46.3h9.8zM31.1 89.1V71.7c-9.6 0-17.4 7.8-17.4 17.4h17.4zm125.3 5c0-3.2-2.6-5.9-5.8-5.9s-5.8 2.6-5.8 5.9c0 3.2 2.6 5.8 5.8 5.8s5.8-2.6 5.8-5.8" fill="#545352"/><path d="M439.2 41.5l-7.1 3c-.3.1-.4.4-.3.7l.3.7c.1.3.4.4.7.4l6.4-1.5v-3.3m1.2-5.9l-9.6 1.7c-.3.1-.5.3-.4.6l.1.9c0 .3.3.5.6.5l8.6-.3c0-1.2.3-2.4.7-3.4m-9.6-3l10.1 1.8c.5-1.2 1-2.4 1.7-3.5l-11.6-.4c-.3 0-.5.2-.6.5l-.1 1c0 .2.2.5.5.6m8.8 14.9l-4.7 3.3c-.2.2-.3.5-.1.7l.4.6c.1.2.5.3.7.2l4.4-2.1c-.3-.8-.6-1.8-.7-2.7m46.8-22.2c0-.2-.2-.4-.5-.3l-1.9.4 2.3-1.6c-.2-1.3-.4-2.6-.8-3.8-.1-.3-.3-.4-.6-.3l-3.6 1.7 3.4-3.7c-.4-1.1-.9-2.1-1.5-3.1-.1-.2-.4-.3-.6-.1l-4.7 3.6 3.6-6.1c-.6-.8-1.3-1.6-2-2.3-.2-.2-.5-.2-.6.1l-5 5.8 2.9-8.3-2.2-1.5c-.2-.1-.5-.1-.7.2h0l-4.4 8 1.2-9.5c0-.3-.1-.6-.4-.7l-1.7-.6h0c-.3-.1-.6.1-.6.3l-3 9.8-.9-10.5c0-.3-.3-.5-.6-.5H462a.47.47 0 0 0-.5.5l-.9 10.9-3.1-10.4c-.1-.3-.4-.4-.6-.4l-1.5.3c-.3.1-.5.3-.4.6l1.4 11.1L451 5c-.1-.2-.4-.4-.7-.2l-1.3.6c-.2.1-.4.4-.3.7l3.9 10.9-7.5-8.8c-.2-.2-.5-.3-.7-.1l-1.1.8c-.2.2-.3.5-.2.7l6.2 10.2-9.5-7.3c-.2-.2-.6-.1-.7.1l-.8.9c-.2.2-.2.5 0 .8l8.5 8.9-11.1-5.3c-.2-.1-.6 0-.7.2l-.6 1c-.1.2-.1.6.2.7l10.4 7.1-12.3-3c-.3-.1-.6.1-.6.4l-.3 1c-.1.3 0 .6.3.7l10.8 4.4c3.9-6.3 10.5-10.7 18.4-11.5.6-.1 1.1-.1 1.7-.1 8.9 0 16 7.2 16 16 0 8.4-6.5 15.3-14.7 16 8.5-.7 15.5-5.6 19.3-12.6 2-3.8 3.1-8.2 2.8-12.9m-47.6 31c-.2.2-.2.5 0 .7l.4.4c.2.2.5.2.7.1l2.6-1.9c-.4-.7-.8-1.4-1.1-2.1l-2.6 2.8zm10.9 7.9c-.1.3 0 .6.3.7l.4.2c.3.1.6 0 .7-.2l.3-.5c-.5-.3-1-.6-1.4-.9l-.3.7zm-5.8-3.4c-.1.2-.1.6.2.7l.4.3c.2.2.6.1.8-.1l1.2-1.3c-.5-.5-.9-1-1.4-1.5l-1.2 1.9z" fill="#452b73"/><path d="M481.5 12c-.4-.6-.9-1.1-1.3-1.6l1.4-1.6c.2-.2.5-.2.7-.1l.4.3c.2.2.3.5.1.7l-1.3 2.3zm4.8 11.8l5.1-3.6c.2-.2.3-.5.2-.7l-.3-.6c-.1-.2-.4-.4-.7-.2l-4.8 2.2.5 2.9m1.4-9.3c.2-.2.2-.5 0-.8l-.4-.5c-.2-.2-.5-.2-.7-.1l-2.8 2.2c.4.7.7 1.5 1 2.3l2.9-3.1zm-1.5 15.3l7.6-3.2c.3-.1.4-.4.3-.7l-.2-.8c-.1-.3-.4-.4-.6-.4l-6.8 1.6a21.59 21.59 0 0 1-.3 3.5m-1 4.4l9.6-1.7c.3-.1.5-.3.5-.6l-.1-.9c0-.3-.3-.5-.6-.5l-8.6.3c-.1 1.2-.4 2.3-.8 3.4m-8-28c.1-.3-.1-.6-.3-.7l-.4-.2c-.3-.1-.6 0-.7.2l-.4.7c.5.3 1 .6 1.4 1l.4-1zm17.7 31l-10.1-1.8c-.5 1.2-1 2.4-1.7 3.5l11.5.4c.3 0 .5-.2.6-.5l.1-1c0-.3-.2-.5-.4-.6m-1.2 6.6l-10.8-4.4c-3.8 6.3-10.5 10.7-18.3 11.5-.6.1-1.2.1-1.7.1-8.9 0-16-7.2-16-16 0-8.3 6.3-15.1 14.4-16-13.1 1.3-22.8 12.8-21.9 26l2.4-.5-1.9 1.3c-.2.2-.4.5-.3.8h0 0c.2 1.3.5 2.6.8 3.8l4.1-1.9-3.1 3.3h0c-.2.2-.3.6-.2.8.4 1.1 1 2.1 1.5 3l5.1-3.9-3.4 5.6c-.1.2-.1.6.1.8.6.8 1.3 1.5 2 2.2l5.4-6.2-2.7 7.9c-.1.3 0 .6.3.7.7.5 1.4 1 2.2 1.4l4.6-8.4-1.2 9.5c0 .3.1.6.4.7.6.2 1.1.4 1.7.6.3.1.6-.1.6-.3l3-9.8.9 10.5c0 .3.3.5.5.5h1.6a.47.47 0 0 0 .5-.5l.9-10.9 3.1 10.4c.1.3.4.4.6.4l1.5-.3c.3-.1.5-.3.4-.6l-1.4-11.1 5.4 9.9c.1.2.5.3.7.2l1.3-.6c.3-.1.4-.4.3-.7l-3.9-10.9 7.5 8.8c.2.2.5.2.7.1l1.1-.8c.2-.2.3-.5.2-.7l-6.2-10.2 9.5 7.3c.2.2.6.1.7-.1l.8-.9c.2-.2.2-.5 0-.7l-8.5-8.9 11.1 5.3c.3.1.6 0 .7-.2l.6-1c.1-.2.1-.6-.2-.7l-10.4-7.1 12.3 3c.3.1.6-.1.7-.4l.3-1c0-.3-.1-.6-.4-.7" fill="#d1147e"/></svg>