<svg xmlns="http://www.w3.org/2000/svg" viewBox="0 0 143 143" xmlns:v="https://vecta.io/nano"><path d="M0 0h143v143H0z" fill="#2a2f80"/><path d="M80.4 70.62h8.21L143 0h-8.03L80.4 70.62z" fill="#ee282d"/><path d="M109.27 102.14c2.49 7 7.63 25.12 9.67 26.56h-13.49a22.51 22.51 0 0 0-.63-4.76c-.58-2.07-5.46-17.76-5.46-17.76H77.94L74.58 111l4.29 13.28c.44 1.12 2.37 4.47 2.37 4.47H68.32l-.46-2.74c-.1-.65-1.23-4.21-1.23-4.21a37.6 37.6 0 0 0-3.72 4.7c-.81 1.48-1.17 2.25-1.17 2.25H51.63l-.46-2.74c-.1-.65-1.33-4.5-1.33-4.5a51.42 51.42 0 0 0-3.64 4.93c-.8 1.48-1.14 2.31-1.14 2.31h-10s2.82-2.69 3.81-3.84c1.67-2 7.87-10.07 7.87-10.07l-2.49-8.61H23l-12.6 16.41a49.32 49.32 0 0 0-4.09 6.11H0v-4l.25-.24c.19-.14 9.19-11.31 17.45-22.31l15-19.83a62.09 62.09 0 0 0 3.61-6.79h11a49.32 49.32 0 0 0 .66 5.31l7.14 23.12 3.7-4.74-6.34-19.54a35 35 0 0 0-2-4.21h12.87a11.44 11.44 0 0 0 .42 3.48c.53 1.6 3.28 11.53 3.28 11.53l9.26-11.76a6.9 6.9 0 0 0 1.08-3.26h10.7a33.22 33.22 0 0 0-5.39 5.77L70.24 97.1l1.47 5 .22.84.68-.84c2.91-3.7 16.17-21.08 17-22.57a32.53 32.53 0 0 0 2.16-4h10.43a28.2 28.2 0 0 0 .56 4zM93.39 85.68C91.86 89 82.84 100 82.84 100h14.28l-3.25-10.45a15.07 15.07 0 0 1-.28-3.73c0-.22-.03-.5-.2-.14zm-54.87 0C36.98 89 27.97 100 27.97 100h14.28L39 89.55a15.07 15.07 0 0 1-.24-3.77c0-.18-.08-.46-.24-.1zM60.02 119l3.93-5.4c-.36-.39-2.58-7.1-2.58-7.1l-3.8 4.93z" fill="#fff"/></svg>