<svg id="Layer_1" data-name="Layer 1" xmlns="http://www.w3.org/2000/svg" viewBox="0 0 171.33 71.88"><defs><style>.cls-1{fill:#297da1;}.cls-2{fill:#146394;}.cls-3{fill:#faa62e;}</style></defs><path class="cls-1" d="M13.17,16.46a13.85,13.85,0,0,0,.1-3,14.58,14.58,0,0,0,2.56,0l-.09-.9a14.25,14.25,0,0,1-2.92,0l-.56-.06.06.56a12,12,0,0,1-.26,4.09l1.11-.69" transform="translate(0 0)"/><path class="cls-1" d="M16,19.29c-1,0-1.54-.3-1.54-.45s.57-.5,1.63-.53h.05a2.09,2.09,0,0,1,.35,0L16.45,18l-.29,0H16.1c-1,0-2,.34-2,.88s1,.81,1.89.81h.12a2.91,2.91,0,0,0,.58-.09l-.06-.34a2.34,2.34,0,0,1-.53.08Z" transform="translate(0 0)"/><path class="cls-1" d="M16.43,17.86l-.09-.62a4.88,4.88,0,0,1-.68-.89l-.37.12a6.14,6.14,0,0,0,.94,1.21l.2.18" transform="translate(0 0)"/><path class="cls-1" d="M23.16,11.72a5.78,5.78,0,0,0,.12-.57,4.73,4.73,0,0,0,.56.35l.49-.14-.14-.06a3.52,3.52,0,0,1-.94-.63l-.3-.31v.43a3.5,3.5,0,0,1-.2,1.07Z" transform="translate(0 0)"/><path class="cls-1" d="M14.48,14.72A12.47,12.47,0,0,0,16,14.6c0-.12,0-.25-.05-.37a14.71,14.71,0,0,1-1.63.12H14.1v.19A11.4,11.4,0,0,1,14,16l.41-.25c0-.42.05-.78.06-1" transform="translate(0 0)"/><path class="cls-1" d="M20.85,33.91q-.42-1-.78-1.95a2,2,0,0,0,.78,1.95" transform="translate(0 0)"/><path class="cls-1" d="M23.34,41.57A2.52,2.52,0,0,0,24.58,41l-.38-.63a4,4,0,0,1-.69.4A3.77,3.77,0,0,1,24,40l-.42-.66a3.21,3.21,0,0,0-.8,1.6.57.57,0,0,0,.54.61Z" transform="translate(0 0)"/><path class="cls-1" d="M21.32,42.82V43h.16c.08,0,.73,0,1.64,0a25.75,25.75,0,0,0,2.78-.14l-.26-.36a29.21,29.21,0,0,1-4,.09,22.76,22.76,0,0,1,.44-5.94l-.24-.49c-.82,2.26-.57,6.43-.55,6.63" transform="translate(0 0)"/><path class="cls-2" d="M40.29,55.14A44.55,44.55,0,0,1,31.5,58a38.18,38.18,0,0,0,7-4,58.78,58.78,0,0,1-9.88-8C20.71,38,17.49,25.5,16.18,16.18c-3.29,1.05-5.64,2-5.64,2A48.33,48.33,0,0,1,16,14.84a90.79,90.79,0,0,1-.72-10.15,32.27,32.27,0,0,0,34,54.88,63.21,63.21,0,0,1-9-4.43" transform="translate(0 0)"/><path class="cls-2" d="M32,0A32.24,32.24,0,0,0,21.86,1.65a83.56,83.56,0,0,0-.54,10.73C27,10.2,33.8,9,39.35,12.25c8.84,5.23-2.2,17.83-2.2,17.83s11-1.87,15.07,4.47c3.25,5.11.68,14.35-10.82,20.06a47.6,47.6,0,0,0,8.06,4.82A32.27,32.27,0,0,0,32,0Z" transform="translate(0 0)"/><path class="cls-2" d="M35.59,16.13C33,13.07,26.93,13.52,21.4,14.77c1,19.89,9.94,31.69,18.14,38.39,5.81-4.6,9.49-10.61,6.36-15.7C43.18,33,34.82,32.34,28,35c6.55-5.06,12.39-13.13,7.62-18.83" transform="translate(0 0)"/><path class="cls-3" d="M82.53,71.88l-3.71-6.43c1.48-.62,36.84-15.12,92.51-9.39l-1,7.11c-53.16-5.48-87.42,8.57-87.76,8.71" transform="translate(0 0)"/><path class="cls-2" d="M101.24,38.12l-.49,7.11c-1.61.64-8.34,3.17-13.61,3.17C72.72,48.4,67,38.61,67,29.51,67,18,76,9.86,88.65,9.86a48.5,48.5,0,0,1,10.44,1.35h1.18v8.61l-2.15.27c-1.56-6.08-4.78-8-11-8-8.76,0-13.61,7.65-13.61,16.26,0,10.71,5.65,17.71,14.16,17.71,6.19,0,8.88-3,11.35-8.88Z" transform="translate(0 0)"/><path class="cls-2" d="M117.81,42.67v-8l-4.62,1.51c-1.94.64-3.66,2.1-3.66,4.09a4.24,4.24,0,0,0,4.09,4.25c1.56,0,4.19-1.83,4.19-1.83m4.68,5.38A4.73,4.73,0,0,1,118,44.77c-1.88,1.46-4.41,3.28-6.41,3.28-4.24,0-7.8-2.85-7.8-6.51,0-2.53,2.32-5.38,5.49-6.4l8.56-2.64V30.78c0-3.88-.86-6.63-3.76-6.63-3.71,0-6.78,5.55-6.78,5.55l-2.64-3.82a15.58,15.58,0,0,1,10.71-4c5.33,0,7.58,3.66,7.58,8.45V40.9c0,2.47.81,3.55,1.62,3.55.54,0,.81-.11,1.72-.7l.65,1.66Z" transform="translate(0 0)"/><path class="cls-2" d="M138.08,25.55c1.83-2.1,4.15-3.77,6.57-3.77a6.86,6.86,0,0,1,4.09,1.94l-1.94,3.72s-2.74-1.72-4.09-1.72-3.12,1-4.63,3.55V41.32c0,3.67.92,4,6.45,4.36v1.67H128.62V45.74c3.49-.38,4.25-.7,4.25-4.42V28.67c0-3.6-.33-3.92-3.93-4.14V23l9.14-1.19Z" transform="translate(0 0)"/><path class="cls-2" d="M154.76,31.31h10c1-.11,1-.38,1-1.29,0-3.29-1.72-5.92-5-5.92-2.49,0-5.28,2.48-5.93,7.21m16.52,11.15A14,14,0,0,1,161,48.05c-7.16,0-11.67-5.65-11.67-12.11,0-8,6.29-14.1,12.69-14.1a9.48,9.48,0,0,1,9.31,9.37c0,1.18-.11,2.31-1.67,2.47H154.55c0,7.54,4.51,10.39,8.33,10.39A11.07,11.07,0,0,0,170.09,41Z" transform="translate(0 0)"/><path class="cls-1" d="M32,8.46c-.49,0-.76.86-.84,1.79h.38c.08-.92.33-1.4.45-1.4s.38.48.45,1.42l.38,0c-.06-1-.32-1.83-.82-1.84" transform="translate(0 0)"/><path class="cls-1" d="M34.82,10a2.06,2.06,0,0,0-1,.42c.18,0,.35.06.53.09a1.17,1.17,0,0,1,.48-.15.14.14,0,0,1,.12,0,.24.24,0,0,1,0,.22l.34.08a.58.58,0,0,0-.1-.54.51.51,0,0,0-.37-.15" transform="translate(0 0)"/><path class="cls-1" d="M28.87,10.11a.52.52,0,0,0-.12.31l.36-.05v0a.28.28,0,0,1,.13,0l.14,0,.72-.06a1.81,1.81,0,0,0-.86-.32.55.55,0,0,0-.37.14" transform="translate(0 0)"/><path class="cls-1" d="M49.69,48.42a13.57,13.57,0,0,0-.11,1.42,12.26,12.26,0,0,0-1.35.1c-.16.16-.32.31-.5.46a11.52,11.52,0,0,1,2-.18H50V50a11.42,11.42,0,0,1,.21-2.18c-.15.2-.31.39-.48.58" transform="translate(0 0)"/><path class="cls-1" d="M34.79,8.94a9.44,9.44,0,0,1-2.63-1.89L32,6.91l-.13.14a9.56,9.56,0,0,1-2.64,1.89,5.1,5.1,0,0,0-2.09,1.73l.55-.1a4.59,4.59,0,0,1,1.68-1.28A9.17,9.17,0,0,0,32,7.45a9.32,9.32,0,0,0,2.63,1.84,4.72,4.72,0,0,1,2,1.76l.53.18a5.05,5.05,0,0,0-2.43-2.29" transform="translate(0 0)"/><path class="cls-1" d="M42.3,58.85a2,2,0,0,0,.31-1,2.25,2.25,0,0,0,.94.5c-.41.18-.83.35-1.25.51Zm-19.77-.48c-.22-.18-.24-1-.12-1.71l.38-2.08-1.2,1.74c-.38.56-1,1.16-1.29,1.12-.07,0-.16-.13-.24-.32s-.22-.56-.34-.84c-.57-1.38-1.11-2.69-.66-3.77a7.08,7.08,0,0,0,3-.75l.33-.19a4.59,4.59,0,0,0,.29.81c0,.1.08.19.11.29a3.46,3.46,0,0,1,.21,1.1v.44l.3-.31a3.74,3.74,0,0,1,.94-.62l.28-.12a4.68,4.68,0,0,0,.78-.38,2.62,2.62,0,0,0,.09.38,7.2,7.2,0,0,0,1.56,2.62c-.43,1.07-1.75,1.61-3.14,2.18l-.83.35c-.19.09-.34.11-.4.06Zm-2,0a2.25,2.25,0,0,0,.94-.5,2,2,0,0,0,.31,1c-.42-.16-.84-.33-1.25-.51Zm-14-13.43a1.52,1.52,0,0,0,.36.18l.82.34a8.84,8.84,0,0,0,3.25.91,3.23,3.23,0,0,0,.88-.13,5,5,0,0,0,.23,1.15,11.89,11.89,0,0,1,.28,4.13l-.07.56.57-.06a11.64,11.64,0,0,1,4.13.28,5,5,0,0,0,1.14.23c-.37,1.32.21,2.75.79,4.13l.33.82a1.85,1.85,0,0,0,.19.37A28.54,28.54,0,0,1,6.51,44.91ZM6,43.8c-.18-.42-.36-.83-.52-1.25a2.18,2.18,0,0,0,1,.32,2.06,2.06,0,0,0-.5.93m-.93-2.4a28.54,28.54,0,0,1,0-18.26,2.52,2.52,0,0,0,.12.39c.12.27.24.54.35.82.57,1.38,1.16,2.8,2.37,3.48a5,5,0,0,0-.65,1,11.66,11.66,0,0,1-2.73,3.12l-.44.36.44.35a11.84,11.84,0,0,1,2.73,3.12,4.57,4.57,0,0,0,.65,1c-1.21.68-1.81,2.1-2.38,3.48-.11.28-.22.55-.34.81a2,2,0,0,0-.12.4ZM6,20.75a2,2,0,0,0,.5.93,2.18,2.18,0,0,0-1,.32c.16-.42.34-.83.52-1.24Zm1.67,1.9L9.74,23,8,21.83c-.56-.38-1.16-1-1.13-1.29,0-.08.13-.17.32-.24L8,20c1.38-.58,2.68-1.12,3.76-.67a7.24,7.24,0,0,0,.75,3l.2.33a4.66,4.66,0,0,0-.82.28l-.28.12a3.47,3.47,0,0,1-1.11.21h-.43l.31.3a3.22,3.22,0,0,1,.62.93,2.55,2.55,0,0,1,.13.29,4.2,4.2,0,0,0,.37.77l-.37.1a7.14,7.14,0,0,0-2.62,1.56C7.48,26.7,6.93,25.39,6.36,24c-.11-.28-.23-.56-.35-.83s-.1-.34-.06-.4c.18-.21,1-.23,1.71-.11Zm6.43,1.22q-.37.81-.69,1.65a3.59,3.59,0,0,0-1.46-.1,3.45,3.45,0,0,1-.43-.83c0-.1-.09-.2-.13-.3a3.67,3.67,0,0,0-.46-.76,4.25,4.25,0,0,0,.87-.21l.29-.12a2.91,2.91,0,0,1,.91-.28,3.62,3.62,0,0,0,1.1,1ZM13.4,39c.21.56.44,1.12.69,1.66a3.55,3.55,0,0,0-1.11,1,3.56,3.56,0,0,1-.91-.28l-.29-.12a3.35,3.35,0,0,0-.87-.21,4,4,0,0,0,.46-.77l.12-.29a3.4,3.4,0,0,1,.45-.84,4.07,4.07,0,0,0,.5,0,3.43,3.43,0,0,0,1-.14ZM11.46,26.88A4.88,4.88,0,0,0,8.7,29.5a9.51,9.51,0,0,1-1.89,2.64l-.13.13.13.14A9.23,9.23,0,0,1,8.7,35a4.91,4.91,0,0,0,2.76,2.62,2.05,2.05,0,0,0,.65.1,1.73,1.73,0,0,0,.83-.21c.06.21.11.41.17.61a2.93,2.93,0,0,1-1.66-.07,6.35,6.35,0,0,1-3.38-2.74A11.06,11.06,0,0,0,5.5,32.27a11.27,11.27,0,0,0,2.57-3.09,6.25,6.25,0,0,1,3.38-2.73,2.85,2.85,0,0,1,1.66-.07c-.06.21-.11.4-.17.6a2,2,0,0,0-1.48-.09Zm.4,3.09a2.84,2.84,0,0,0-1.64-1,.46.46,0,0,0-.48.43.06.06,0,0,0,0,.06,2.86,2.86,0,0,0,.91,1.66,2.11,2.11,0,0,0,.36.31h-.47c-1.11,0-2.31.26-2.31.85a.44.44,0,0,0,.15.33,3.5,3.5,0,0,0,2.16.52,3.62,3.62,0,0,0,.47,0,2.17,2.17,0,0,0-.36.32,2.86,2.86,0,0,0-.91,1.66.46.46,0,0,0,.14.36.48.48,0,0,0,.34.13,2.84,2.84,0,0,0,1.64-1A3,3,0,0,0,12.3,34a19.62,19.62,0,0,0,.54,3.23,1.57,1.57,0,0,1-1.27.12,4.62,4.62,0,0,1-2.52-2.41,9.32,9.32,0,0,0-1.84-2.63,9.17,9.17,0,0,0,1.84-2.63,4.54,4.54,0,0,1,2.52-2.4,1.57,1.57,0,0,1,1.27.12,18.35,18.35,0,0,0-.54,3.22,3,3,0,0,0-.44-.61Zm.37,1.67a2.9,2.9,0,0,1-1.33-.75,2.53,2.53,0,0,1-.82-1.41.15.15,0,0,1,0-.11.1.1,0,0,1,.1,0,2.5,2.5,0,0,1,1.39.88,2.74,2.74,0,0,1,.62,1.18,1,1,0,0,1,0,.24m0,1.29v.23a2.74,2.74,0,0,1-.62,1.18,2.49,2.49,0,0,1-1.38.88.11.11,0,0,1-.11,0,.14.14,0,0,1,0-.11,2.56,2.56,0,0,1,.81-1.41,2.88,2.88,0,0,1,1.33-.74m0-.45a4.43,4.43,0,0,1-1.69.29,3.23,3.23,0,0,1-1.9-.42l0-.06c0-.14.68-.48,1.94-.48a4.19,4.19,0,0,1,1.68.28v.39ZM7.66,41.9C7,42,6.12,42,6,41.78A.5.5,0,0,1,6,41.39c.12-.28.24-.56.35-.84.57-1.39,1.12-2.7,2.19-3.14A7.32,7.32,0,0,0,11.18,39l.37.09a5.23,5.23,0,0,0-.38.79l-.12.27a3.27,3.27,0,0,1-.62.94l-.3.3h.43a3.46,3.46,0,0,1,1.1.21l.28.11a4.66,4.66,0,0,0,.82.28,3.54,3.54,0,0,0-.19.33,7.11,7.11,0,0,0-.77,3c-1.07.44-2.38-.1-3.77-.67-.28-.12-.55-.24-.83-.34s-.31-.17-.32-.24c0-.28.56-.91,1.12-1.3l1.74-1.2Zm7.14.15a1.92,1.92,0,0,0-1.12,1,4.91,4.91,0,0,0-.11,3.81A9.38,9.38,0,0,1,14.1,50v.19h.2a9.37,9.37,0,0,1,3.19.53,4.73,4.73,0,0,0,1.82.33,4.17,4.17,0,0,0,2-.44,1.92,1.92,0,0,0,1-1.12c.18.1.36.21.55.3A2.88,2.88,0,0,1,21.59,51a6.23,6.23,0,0,1-4.32.46,11.18,11.18,0,0,0-4-.37,11.15,11.15,0,0,0-.36-4,6.27,6.27,0,0,1,.45-4.32A2.94,2.94,0,0,1,14.5,41.5l.3.55m2.09,3a2.75,2.75,0,0,0-.76-.13H16c-.91,0-1.88.25-1.9.8a.52.52,0,0,0,.16.35,2.87,2.87,0,0,0,1.82.53h0l.42,0-.35.32c-.78.79-1.45,1.83-1,2.24a.5.5,0,0,0,.34.13,3.47,3.47,0,0,0,1.9-1.17c.12-.11.22-.23.32-.34a2.59,2.59,0,0,0,0,.48c0,1,.33,2,.88,2,.18,0,.43-.12.62-.66a3.93,3.93,0,0,0,.19-1.36,2.82,2.82,0,0,0-.13-.76,20,20,0,0,0,2.67,1.91,1.52,1.52,0,0,1-.82,1,4.5,4.5,0,0,1-3.47.09,9.27,9.27,0,0,0-3.16-.56,9,9,0,0,0-.56-3.16A4.53,4.53,0,0,1,14,43.19a1.55,1.55,0,0,1,1-.82,20.26,20.26,0,0,0,1.9,2.68m.7.78a2.86,2.86,0,0,1-1.43.41h0a2.56,2.56,0,0,1-1.58-.41.24.24,0,0,1-.06-.11c0-.16.54-.45,1.55-.45h.11a2.83,2.83,0,0,1,1.3.4,2,2,0,0,1,.14.16Zm.58.59a4.2,4.2,0,0,1-1,1.4,3.28,3.28,0,0,1-1.64,1h-.07c-.1-.1.13-.81,1-1.71a4.44,4.44,0,0,1,1.39-1Zm.48.45a2.79,2.79,0,0,1,.4,1.32,3.69,3.69,0,0,1-.16,1.23c-.09.29-.22.42-.29.42s-.5-.58-.52-1.64a2.87,2.87,0,0,1,.41-1.48,1.06,1.06,0,0,0,.15.15Zm5,3.36q.81.38,1.65.69a3.64,3.64,0,0,0-.1,1.47,3.47,3.47,0,0,1-.83.44l-.29.12a3.38,3.38,0,0,0-.77.47,3.76,3.76,0,0,0-.21-.88L23,52.25a3.2,3.2,0,0,1-.28-.91,3.59,3.59,0,0,0,.94-1.11Zm7.76,1.86a3,3,0,0,1-.74,1.33,2.63,2.63,0,0,1-1.41.82.17.17,0,0,1-.12,0c-.11-.12.08-.76.85-1.49a2.71,2.71,0,0,1,1.19-.64h.23Zm.44,0h.41a4.21,4.21,0,0,1,.27,1.68c0,1.28-.33,1.94-.47,1.94s-.47-.66-.47-1.94a4.19,4.19,0,0,1,.25-1.68Zm1.08,0a2.73,2.73,0,0,1,1.18.64c.77.73,1,1.37.85,1.49a.24.24,0,0,1-.12,0,2.52,2.52,0,0,1-1.4-.82,2.9,2.9,0,0,1-.75-1.33h.24m12,5.58-.29.16c.05-.08.09-.16.13-.24-.27-.14-.54-.27-.81-.42-.07.16-.15.27-.21.28-.27,0-.85-.51-1.25-1l-1-.56.16.83c.12.66.09,1.53-.12,1.7s-.21,0-.4,0L40.29,58a6.91,6.91,0,0,1-2.83-1.68c-.3.1-.59.2-.89.32a7,7,0,0,0,3.37,2.2l.81.35.39.12a28.47,28.47,0,0,1-18.24,0,2.22,2.22,0,0,0,.39-.12l.81-.35c1.38-.57,2.8-1.16,3.48-2.37a4.57,4.57,0,0,0,1,.65,11.84,11.84,0,0,1,3.12,2.73l.35.44.36-.44a11.66,11.66,0,0,1,3.12-2.73,4.76,4.76,0,0,0,.49-.28c-.88.28-1.8.54-2.75.79-.42.39-.83.8-1.21,1.23A11,11,0,0,0,29,56.25a6.25,6.25,0,0,1-2.73-3.38,2.93,2.93,0,0,1-.08-1.66l.61.17a2,2,0,0,0-.11,1.47,5,5,0,0,0,2.62,2.77,9.51,9.51,0,0,1,2.64,1.89l.13.14.14-.14a9.07,9.07,0,0,1,2.63-1.89,5.07,5.07,0,0,0,2.49-2.41L37,53a4.66,4.66,0,0,1-2.3,2.29A8.83,8.83,0,0,0,32,57.13a9.31,9.31,0,0,0-2.63-1.85A4.51,4.51,0,0,1,27,52.76a1.61,1.61,0,0,1,.11-1.27,19.62,19.62,0,0,0,3.23.54,3,3,0,0,0-.61.44c-.72.69-1.25,1.59-.87,2a.5.5,0,0,0,.38.15,2.88,2.88,0,0,0,1.64-.92,2.74,2.74,0,0,0,.32-.36,3.77,3.77,0,0,0,0,.47c0,1.11.26,2.32.85,2.32s.84-1.2.84-2.32c0-.15,0-.31,0-.47a2.67,2.67,0,0,0,.31.36,2.91,2.91,0,0,0,1.64.92.57.57,0,0,0,.38-.14c.37-.4-.15-1.3-.86-2a3,3,0,0,0-.62-.44c.54,0,1.08-.11,1.61-.2L34.25,51a20.49,20.49,0,0,1-2.21.14A18.86,18.86,0,0,1,17,20.93c-.08-.42-.16-.83-.23-1.23A19.53,19.53,0,0,0,15,22.18a1.55,1.55,0,0,1-1-.82,4.53,4.53,0,0,1-.09-3.48,6.51,6.51,0,0,0,.33-1.06l-.42.14a4.1,4.1,0,0,1-.26.77,5,5,0,0,0,.11,3.81,2,2,0,0,0,1.12,1c-.1.18-.21.36-.3.55a2.91,2.91,0,0,1-1.14-1.24,6.22,6.22,0,0,1-.46-4.32,2.17,2.17,0,0,0,.07-.24c-.39.13-.73.26-1,.38a5.36,5.36,0,0,0-.1.7c-1.33-.38-2.75.21-4.13.78-.28.11-.55.23-.84.33a2.47,2.47,0,0,0-.36.19,28.64,28.64,0,0,1,9-10.53c0-.39,0-.76-.07-1.11A29.44,29.44,0,0,0,46,58.18l-1.09-.52" transform="translate(0 0)"/><path class="cls-1" d="M37.63,53.44A6.79,6.79,0,0,1,36,55.61c.78-.48,1.56-1,2.3-1.52l.07-.14c-.25-.16-.51-.33-.76-.51" transform="translate(0 0)"/><path class="cls-1" d="M53.52,41.36h.41l-.3-.3-.23-.27c0,.19-.06.38-.1.58h.22" transform="translate(0 0)"/><path class="cls-1" d="M32,3.79a28.64,28.64,0,0,1,9.13,1.5,1.87,1.87,0,0,0-.4.13c-.26.12-.54.23-.81.34-1.38.57-2.8,1.17-3.48,2.37a4.53,4.53,0,0,0-1-.64,11.63,11.63,0,0,1-3.12-2.74L32,4.31l-.35.44a11.82,11.82,0,0,1-3.12,2.74,4.53,4.53,0,0,0-1,.64c-.68-1.2-2.1-1.79-3.48-2.37l-.81-.34a1.87,1.87,0,0,0-.4-.13A28.66,28.66,0,0,1,32,3.79m9.49,2.4c.21.17.24,1,.12,1.71L41.26,10l1.2-1.74c.39-.56,1-1.16,1.3-1.12.07,0,.16.13.23.32s.23.56.34.83C44.91,9.66,45.45,11,45,12a7.25,7.25,0,0,0-3,.76l-.33.19a4.56,4.56,0,0,0-.28-.81c0-.1-.08-.19-.11-.28a3.26,3.26,0,0,1-.21-1.11v-.43l-.3.3a3.47,3.47,0,0,1-.93.63l-.28.12a4.33,4.33,0,0,0-.78.38c0-.13-.06-.25-.1-.37a7,7,0,0,0-1.56-2.63c.45-1.08,1.76-1.62,3.14-2.19.28-.12.56-.23.83-.36s.34-.1.39,0m2,0a2.13,2.13,0,0,0-.94.49,2,2,0,0,0-.31-1c.42.17.84.34,1.25.53m14,13.42a1.62,1.62,0,0,0-.37-.19l-.81-.33c-1.38-.57-2.8-1.16-4.13-.79A5,5,0,0,0,52,17.2a11.69,11.69,0,0,1-.28-4.14l.06-.56-.56.07a11.85,11.85,0,0,1-4.14-.27A4,4,0,0,0,46,12.07c.38-1.33-.21-2.76-.78-4.14-.11-.27-.23-.55-.33-.82a2,2,0,0,0-.19-.36,28.52,28.52,0,0,1,12.9,12.9m.52,1.11c.18.41.35.83.52,1.25a2.18,2.18,0,0,0-1-.32,2.08,2.08,0,0,0,.49-.94ZM59,23.15a28.57,28.57,0,0,1,0,18.27,1.87,1.87,0,0,0-.13-.4c-.11-.27-.22-.54-.34-.81-.57-1.39-1.16-2.81-2.37-3.48a4.45,4.45,0,0,0,.65-1,11.59,11.59,0,0,1,2.73-3.13l.44-.35-.44-.35a11.49,11.49,0,0,1-2.73-3.12,4.45,4.45,0,0,0-.65-1c1.21-.67,1.8-2.1,2.37-3.48.12-.27.23-.54.34-.81a2.07,2.07,0,0,0,.13-.4Zm-.93,20.66a2.13,2.13,0,0,0-.49-.94,2.06,2.06,0,0,0,1-.31c-.17.42-.34.83-.52,1.24ZM55.5,27.15a7.08,7.08,0,0,0-2.63-1.55,2.42,2.42,0,0,0-.36-.1,4.63,4.63,0,0,0,.37-.78l.12-.28a3.52,3.52,0,0,1,.63-.94l.3-.3H53.5A3.46,3.46,0,0,1,52.4,23l-.29-.11a4.33,4.33,0,0,0-.81-.28c.06-.11.13-.21.19-.34a7.25,7.25,0,0,0,.76-3c1.07-.44,2.38.1,3.77.67l.83.35c.19.07.31.16.32.23,0,.29-.56.91-1.12,1.29L54.32,23l2.08-.37c.66-.13,1.53-.11,1.7.12,0,.05,0,.2-.06.39s-.23.55-.35.83c-.57,1.39-1.11,2.69-2.19,3.13Zm-4.84-1.62c-.21-.56-.44-1.11-.7-1.65a3.48,3.48,0,0,0,1.12-1,3.61,3.61,0,0,1,.9.28l.3.13a3.67,3.67,0,0,0,.87.2,4.07,4.07,0,0,0-.47.77l-.12.3a3.16,3.16,0,0,1-.44.83,3.43,3.43,0,0,0-1.46.11Zm1.16,7.4a2.86,2.86,0,0,1,1.34.74A2.53,2.53,0,0,1,54,35.08a.12.12,0,0,1-.09.14h0a2.5,2.5,0,0,1-1.39-.88,2.76,2.76,0,0,1-.63-1.18v-.24Zm.63-2.71a2.49,2.49,0,0,1,1.38-.88.11.11,0,0,1,.14.14,2.64,2.64,0,0,1-.82,1.42,3,3,0,0,1-1.33.74v-.23a2.85,2.85,0,0,1,.63-1.19Zm1.07,1.59a3.29,3.29,0,0,1,1.89.41.16.16,0,0,1,0,.07l0,.06a3.19,3.19,0,0,1-1.89.42h0a4.19,4.19,0,0,1-1.68-.28v-.41a4.36,4.36,0,0,1,1.68-.27M46.47,18.74a3,3,0,0,1,1.43-.43h0a2.54,2.54,0,0,1,1.58.42.17.17,0,0,1,.06.1c0,.16-.54.45-1.56.45h-.1a2.79,2.79,0,0,1-1.31-.4,1.85,1.85,0,0,0-.14-.14Zm-.59-.6a4.44,4.44,0,0,1,1-1.39,3.29,3.29,0,0,1,1.64-1.06.07.07,0,0,1,.09.05,0,0,0,0,1,0,0,3.27,3.27,0,0,1-1,1.63,4.09,4.09,0,0,1-1.4,1l-.27-.27Zm-.47-.45a2.79,2.79,0,0,1-.4-1.31,2.57,2.57,0,0,1,.35-1.6.17.17,0,0,1,.1-.06c.17,0,.5.58.53,1.64a3,3,0,0,1-.43,1.48ZM21.48,5.82l.28-.11a2,2,0,0,0-.31,1h0c0,.42,0,.83-.05,1.25a2.55,2.55,0,0,1,.21.28L22.79,10l-.38-2.08c-.12-.67-.1-1.53.12-1.71.06,0,.21,0,.4.06l.83.35c1.38.57,2.69,1.12,3.13,2.19a7.43,7.43,0,0,0-1.41,2.25l1.11-.26a6.12,6.12,0,0,1,2.35-2.47A11.09,11.09,0,0,0,32,5.75,11.24,11.24,0,0,0,35.1,8.32a6.28,6.28,0,0,1,2.65,3.15,12.41,12.41,0,0,1,1.27.62,3.9,3.9,0,0,1,.71-.35l.28-.12a3.78,3.78,0,0,0,.77-.47A3.25,3.25,0,0,0,41,12a2.49,2.49,0,0,0,.11.29,3.33,3.33,0,0,1,.29.91,3,3,0,0,0-.36.35,5.57,5.57,0,0,1,.58.69,3.42,3.42,0,0,1,.86-.65,6.28,6.28,0,0,1,4.32-.46,11.38,11.38,0,0,0,4,.37,11.41,11.41,0,0,0,.37,4,6.22,6.22,0,0,1-.46,4.32,2.92,2.92,0,0,1-1.13,1.23l-.3-.55a2,2,0,0,0,1.12-1,4.86,4.86,0,0,0,.1-3.81,9.69,9.69,0,0,1-.53-3.2v-.19h-.19a9.58,9.58,0,0,1-3.19-.53,4.91,4.91,0,0,0-3.81.1,2,2,0,0,0-.83.82c.08.14.16.28.23.42a1.54,1.54,0,0,1,.79-.91,4.59,4.59,0,0,1,3.47-.09,9.28,9.28,0,0,0,3.17.56,8.91,8.91,0,0,0,.55,3.16,4.57,4.57,0,0,1-.08,3.48,1.56,1.56,0,0,1-1,.82,20.84,20.84,0,0,0-1.9-2.67,2.75,2.75,0,0,0,.75.13H48c.91,0,1.89-.25,1.9-.8a.47.47,0,0,0-.15-.35A2.85,2.85,0,0,0,48,18H47.9a2,2,0,0,0-.42,0l.35-.32A3.56,3.56,0,0,0,49,15.78a.45.45,0,0,0-.41-.47h-.06a3.45,3.45,0,0,0-1.89,1.17c-.12.11-.22.22-.33.34a2.59,2.59,0,0,0,0-.48c0-1-.33-2-.88-2a.53.53,0,0,0-.35.17,2.84,2.84,0,0,0-.44,1.84,2.82,2.82,0,0,0,.13.76,21.39,21.39,0,0,0-2.59-1.85,5.85,5.85,0,0,1,.44,1.42,18.84,18.84,0,0,1,8.23,15.57c0,.22,0,.44,0,.65a8.42,8.42,0,0,1,1.35,1.62l.06.1a2.69,2.69,0,0,0,1.56.92.44.44,0,0,0,.34-.13.43.43,0,0,0,.14-.35,2.91,2.91,0,0,0-.91-1.67,2.67,2.67,0,0,0-.36-.31l.47,0a3.41,3.41,0,0,0,2.15-.53.42.42,0,0,0,0-.61.08.08,0,0,0,0,0,3.44,3.44,0,0,0-2.16-.52H53a2.11,2.11,0,0,0,.36-.31,2.83,2.83,0,0,0,.91-1.66.46.46,0,0,0-.43-.49h-.05a2.84,2.84,0,0,0-1.64,1,2.78,2.78,0,0,0-.44.62,19.62,19.62,0,0,0-.54-3.23,1.57,1.57,0,0,1,1.27-.12A4.57,4.57,0,0,1,55,29.64a9.17,9.17,0,0,0,1.84,2.63A9.32,9.32,0,0,0,55,34.9,4.82,4.82,0,0,1,53.23,37l.09.38a5.18,5.18,0,0,0,2-2.29,9.23,9.23,0,0,1,1.89-2.63l.14-.14-.14-.13a9.51,9.51,0,0,1-1.89-2.64,4.91,4.91,0,0,0-2.76-2.62,2,2,0,0,0-1.48.1c-.06-.2-.11-.4-.17-.6a2.93,2.93,0,0,1,1.66.07A6.21,6.21,0,0,1,56,29.18a11.15,11.15,0,0,0,2.57,3.09A11.45,11.45,0,0,0,56,35.36a6.25,6.25,0,0,1-2.58,2.4,7.79,7.79,0,0,1,.09,1,7.44,7.44,0,0,0,2-1.32c1.07.45,1.61,1.76,2.19,3.14.11.28.23.56.35.83s.1.34.06.4c-.18.22-1,.24-1.71.12l-2.08-.38,1.75,1.2c.55.38,1.15,1,1.12,1.29,0,.08-.13.17-.33.24l-.83.34c-1.38.58-2.69,1.12-3.77.67a6,6,0,0,0,0-.61c-.27.54-.56,1.07-.88,1.58a4,4,0,0,1-.17.83,11.41,11.41,0,0,0-.37,4,11.12,11.12,0,0,0-4,.36,1.91,1.91,0,0,1-.41.11c-.44.34-.9.67-1.38,1,.45,1.07-.09,2.39-.67,3.77l-.1.25L45,57l.16-.39c.57-1.38,1.16-2.81.78-4.14a5,5,0,0,0,1.15-.23A11.89,11.89,0,0,1,51.23,52l.57.07-.06-.57A11.54,11.54,0,0,1,52,47.36a5,5,0,0,0,.23-1.15,2.92,2.92,0,0,0,.88.12,8.87,8.87,0,0,0,3.25-.9c.27-.12.55-.23.82-.33a2,2,0,0,0,.36-.19,28.55,28.55,0,0,1-12,12.42l1,.57A29.43,29.43,0,0,0,21.57,4.77c0,.35-.07.71-.09,1.05" transform="translate(0 0)"/><path class="cls-1" d="M37.91,51.21a2.29,2.29,0,0,1,.08.64c.49.43,1,.85,1.46,1.24l.11,0,.3-.25-.15-.06a3.89,3.89,0,0,1-.83-.44,3.48,3.48,0,0,0-.1-1.47q.84-.31,1.65-.69a3.48,3.48,0,0,0,1,1.12,2.86,2.86,0,0,1-.07.28c.3-.28.59-.55.87-.83a2.87,2.87,0,0,1-1-1l.55-.3a1.93,1.93,0,0,0,.73,1l.25-.29a1.49,1.49,0,0,1-.64-.87,20.84,20.84,0,0,0,2.67-1.9c0,.13-.07.27-.1.41a13.74,13.74,0,0,0,1.84-3.52,19,19,0,0,1-9.91,6.27l.82.77c.15-.06.31-.1.46-.15" transform="translate(0 0)"/><path class="cls-1" d="M23.7,14.3l-.07,0v0l-1,.18.16.24-.55.3a1.77,1.77,0,0,0-.21-.41l-.4.08a1.4,1.4,0,0,1,.27.53c-.17.1-.32.21-.49.32,0,.36,0,.72.07,1.08a18.69,18.69,0,0,1,6.62-2.82,33.14,33.14,0,0,0-4.43.48" transform="translate(0 0)"/><path class="cls-1" d="M30.63,49.78a17.74,17.74,0,0,1-4.71-1,5.14,5.14,0,0,0,1.29-2,8.11,8.11,0,0,0,.38-1.18,10.91,10.91,0,0,0,1.81,1.58l.17.13c.56.42,1.63,1.34,2.08,1.74a2.19,2.19,0,0,0-.59.21.9.9,0,0,0-.43.51m-5.29-1.3h0c-.05,0-.14-.21-.11-.67a5.66,5.66,0,0,1,.44-1.66,3.94,3.94,0,0,1,1.29-1.85,1.83,1.83,0,0,0,.22.72,5.37,5.37,0,0,1-.43,1.58c-.5,1.21-1.14,1.89-1.39,1.89Zm-.62-.25a17.61,17.61,0,0,1-4.06-2.59.92.92,0,0,0,.05-.67,1.85,1.85,0,0,0-.28-.54c.28,0,1,0,1.93,0a29.14,29.14,0,0,0,3.85-.22,6.06,6.06,0,0,0-1,1.71,5.9,5.9,0,0,0-.48,1.83,2.26,2.26,0,0,0,0,.45ZM19,44a1.19,1.19,0,0,1,1,.44,1.66,1.66,0,0,1,.42.68.53.53,0,0,1,0,.28A16.57,16.57,0,0,1,19,44Zm-.28-.31a17.61,17.61,0,0,1-2.59-4.06l.23,0a5.76,5.76,0,0,0,2.05-.49,5.87,5.87,0,0,0,1.71-1,36.12,36.12,0,0,0-.17,5.79,1.2,1.2,0,0,0-1.23-.22ZM15.83,39s.05-.24.4-.54a5.73,5.73,0,0,1,1.5-.86,5.74,5.74,0,0,1,1.57-.44,1.78,1.78,0,0,0,.73.23,3.85,3.85,0,0,1-1.85,1.29,5.23,5.23,0,0,1-1.86.45c-.36,0-.47-.09-.49-.12Zm-.25-.59a17,17,0,0,1-1-4.71.78.78,0,0,0,.33-.21,1.51,1.51,0,0,0,.38-.83c.4.46,1.33,1.53,1.75,2.08l.14.18a10.41,10.41,0,0,0,1.57,1.81,6.94,6.94,0,0,0-1.19.4,6.08,6.08,0,0,0-1.63,1,1.57,1.57,0,0,0-.31.32m-1.1-6.11q0-.5,0-1a.63.63,0,0,1,.21.22,1.71,1.71,0,0,1,.18.77,1.35,1.35,0,0,1-.3.93.27.27,0,0,1-.08.07c0-.33,0-.67,0-1m18.85,18-.57-.47c-.25,0-.49,0-.74,0s-.66,0-1,0a.7.7,0,0,1,.21-.21,1.71,1.71,0,0,1,.77-.18,1.43,1.43,0,0,1,.29,0Q30.41,47.85,28.55,46a30,30,0,0,1-2.28-2.63,34.35,34.35,0,0,1-5.55.21c-.06-1.34-.15-5.86.82-8-.15-.32-.29-.65-.43-1l0,0a4.82,4.82,0,0,0-.52,1.1h0c-.74.22-1.79-1.12-2.24-1.69l-.1-.12c-.36-.45-1.15-1.3-1.45-1.62.3-.33,1.09-1.17,1.45-1.62l.12-.14a9.36,9.36,0,0,1,.88-1c-.05-.13-.08-.27-.13-.4a8.88,8.88,0,0,0-1,1.17l-.11.14c-.43.54-1.55,1.72-1.56,1.73a.2.2,0,0,0,0,.18.41.41,0,0,0,.05.09c.1.1,1.14,1.2,1.55,1.71l.1.13c.49.63,1.46,1.85,2.37,1.85h.08c-.06.22-.11.45-.17.68a1.26,1.26,0,0,0-.71-.16h-.21a9.21,9.21,0,0,1-1.85-2l-.13-.18c-.45-.61-1.46-1.75-1.83-2.18.38-.43,1.37-1.56,1.82-2.16l.13-.18a12.46,12.46,0,0,1,1.32-1.57l-.15-.51a11,11,0,0,0-1.55,1.79l-.13.18c-.41.55-1.34,1.62-1.74,2.08a1.73,1.73,0,0,0-.21-.59.85.85,0,0,0-.51-.44,17.58,17.58,0,0,1,1-4.7,2.5,2.5,0,0,0,.32.33,6.05,6.05,0,0,0,1.63.95,6.6,6.6,0,0,0,1.14.37c-.05-.19-.11-.37-.16-.56-.27-.08-.53-.17-.79-.27a5.74,5.74,0,0,1-1.49-.88c-.35-.29-.42-.49-.39-.54s.12-.12.48-.12a5.44,5.44,0,0,1,1.81.43c-.06-.19-.11-.39-.16-.59A5.23,5.23,0,0,0,16.3,25h-.24a18.27,18.27,0,0,1,1.27-2.29L17.18,22A18.06,18.06,0,0,0,32,50.34c.46,0,.91,0,1.32-.05" transform="translate(0 0)"/><path class="cls-1" d="M39.15,27.44c-.25.36-.48.69-.7,1a7.68,7.68,0,0,1,.66,1.46c.35,0,.74-.05,1.17-.05a8.51,8.51,0,0,0-1.13-2.4" transform="translate(0 0)"/><path class="cls-1" d="M45.11,20.59a.72.72,0,0,1-.29,0,1.75,1.75,0,0,1-1.09-1.1.7.7,0,0,1,0-.29,18.49,18.49,0,0,1,1.4,1.4M48,25h-.24a5.85,5.85,0,0,0-2.05.48,6.47,6.47,0,0,0-1.62,1,.3.3,0,0,0-.08.08,36.15,36.15,0,0,0,.17-5.79,2,2,0,0,0,.56.28,1.54,1.54,0,0,0,.3,0,.74.74,0,0,0,.36-.09A17.59,17.59,0,0,1,48,25m-1.64,2a6.17,6.17,0,0,1-1.58.43,1.69,1.69,0,0,0-.73-.23,1.82,1.82,0,0,1,.36-.42,5.76,5.76,0,0,1,1.5-.87,5.34,5.34,0,0,1,1.85-.45c.35,0,.47.09.48.12s-.51.85-1.88,1.42m-3.57-8.57c.21.16.41.32.62.5a.89.89,0,0,0,0,.66,1.64,1.64,0,0,0,.28.56l-1.07,0c-.06.28-.13.57-.21.85.39,0,.73,0,1,0,.06,1.46.17,6.62-1.07,8.49l-.26.37,1,.07a4.67,4.67,0,0,0,.5-1.06h0c.66-.2,1.57.85,2.08,1.48a6,6,0,0,1,.61.15l0-.06L46,30.3c-.5-.64-1.51-1.92-2.45-1.84a4.83,4.83,0,0,0,.17-.68,1.29,1.29,0,0,0,.72.16h.21a8.9,8.9,0,0,1,1.84,2l.14.18c.14.19.34.44.56.7.32.11.64.24,1,.38-.4-.47-.86-1-1.12-1.37l-.14-.18a10.91,10.91,0,0,0-1.58-1.81,8.2,8.2,0,0,0,1.19-.37,5.22,5.22,0,0,0,1.95-1.29,17.65,17.65,0,0,1,1,4.71,1,1,0,0,0-.62.67l.35.19a.8.8,0,0,1,.32-.46c0,.21,0,.43,0,.65.18.11.35.23.52.35h0a18.09,18.09,0,0,0-7.33-14.51c0,.21,0,.42,0,.65" transform="translate(0 0)"/><path class="cls-1" d="M42.74,21.73v-.17h-.17l-.39,0c0,.13-.09.25-.13.38l.33,0c0,.92.19,5.39-.88,7a9.67,9.67,0,0,1-.67.91h.48c.16-.21.32-.43.51-.71,1.25-1.87.95-7.16.93-7.39" transform="translate(0 0)"/><path class="cls-1" d="M43.71,45.38a1.19,1.19,0,0,1,.43-1A1.31,1.31,0,0,1,45,44h.1a18.49,18.49,0,0,1-1.4,1.4Zm-.32.27a17.81,17.81,0,0,1-4,2.6,3.53,3.53,0,0,0,0-.46A6.42,6.42,0,0,0,38.86,46a6.34,6.34,0,0,0-1-1.71,31.11,31.11,0,0,0,3.86.22c.93,0,1.64,0,1.92,0a1.24,1.24,0,0,0-.21,1.23Zm-4.66,2.84h0c-.25,0-.89-.67-1.4-1.89A6.06,6.06,0,0,1,36.88,45a1.69,1.69,0,0,0,.23-.73,4,4,0,0,1,1.29,1.86,5.65,5.65,0,0,1,.44,1.67c0,.46-.05.65-.1.67Zm-5.74-6a.78.78,0,0,1-.26.57,1.09,1.09,0,0,1-.71.26.9.9,0,0,1-1-.84.47.47,0,0,0-.06-.2,5.31,5.31,0,0,0,1-1.1,5.6,5.6,0,0,0,1,1.1.46.46,0,0,0,0,.21Zm-1.94-2.73a7.42,7.42,0,0,1-3.67-1.55l0-.05a3.14,3.14,0,0,0,.3-.61,6.64,6.64,0,0,0,3.5,1.5,1.33,1.33,0,0,0-.16.62s0,0,0,.08Zm.76-.66h.42l.11.1a.72.72,0,0,1,.15.47v.14h-.92a.61.61,0,0,1,0-.14.66.66,0,0,1,.26-.57Zm4.53-1.55a2.66,2.66,0,0,0,.3.61l0,.05A7.42,7.42,0,0,1,33,39.72v-.09a1.21,1.21,0,0,0-.15-.62,6.64,6.64,0,0,0,3.5-1.5Zm1.07,0-.09.1-.09.09A1.69,1.69,0,0,1,37,37.3a1.93,1.93,0,0,1,.38.19Zm.71.9.21-.23c.22.19.45.4.7.65a6.88,6.88,0,0,1,1.5,2,7.11,7.11,0,0,1-2-1.51c-.25-.25-.47-.48-.65-.7ZM40.7,41.2v0Zm-.29-6.91a7.87,7.87,0,0,1,1.08,1.36c1.07,1.59.92,6.05.88,7-.93,0-5.39.19-7-.88A7.8,7.8,0,0,1,34,40.67a8.52,8.52,0,0,0,3.3-1.6,9.46,9.46,0,0,0,.69.74c.81.81,2,1.76,2.67,1.76a.64.64,0,0,0,.44-.17c.42-.42,0-1.17-.21-1.42a9.42,9.42,0,0,0-1.38-1.7c-.23-.22-.48-.46-.75-.68a8.52,8.52,0,0,0,1.61-3.31m-15.72-3H24.6a7.42,7.42,0,0,1,1.55-3.68,3.39,3.39,0,0,0,.66.33,6.68,6.68,0,0,0-1.5,3.5,1.32,1.32,0,0,0-.62-.15M25,25.76a7,7,0,0,1-1.5-2,6.94,6.94,0,0,1,2,1.5c.24.25.46.48.64.7l-.22.21a2.13,2.13,0,0,0-.21.22,9.52,9.52,0,0,1-.71-.64M26.73,27l.1-.09a3.14,3.14,0,0,1,.18.37,2.53,2.53,0,0,1-.37-.18Zm.45.32h0v0Zm3.88-2.45v.09a1.22,1.22,0,0,0,.16.62,6.71,6.71,0,0,0-3.51,1.5,3.35,3.35,0,0,0-.32-.66,7.42,7.42,0,0,1,3.67-1.55Zm0-2.52a.46.46,0,0,0,0-.2.91.91,0,0,1,1-.84,1,1,0,0,1,.74.3.78.78,0,0,1,.23.53.52.52,0,0,0,0,.21,5.24,5.24,0,0,0-1,1.09,5.55,5.55,0,0,0-1-1.09m-.89-.69-.41-.28a4.8,4.8,0,0,0-1.1-.52v0c-.21-.74,1.1-1.79,1.67-2.24l.14-.11c.44-.36,1.29-1.15,1.61-1.45.34.3,1.18,1.09,1.62,1.45l.14.11c.56.45,1.89,1.49,1.67,2.24v0a4.44,4.44,0,0,0-1.1.52l-.42.29a1.77,1.77,0,0,0-.45-.77A2.08,2.08,0,0,0,32,20.29a2,2,0,0,0-1.91,1.35m-2.6-1.1a1.48,1.48,0,0,0,.16-.92,9,9,0,0,1,2-1.85l.18-.14c.6-.45,1.75-1.45,2.17-1.82.43.37,1.57,1.37,2.17,1.82l.18.14a8.9,8.9,0,0,1,2,1.84,2,2,0,0,0,.08.8c0,.05,0,.09.07.13l-.67.17c.07-.94-1.21-1.95-1.85-2.45l-.13-.11c-.53-.43-1.71-1.54-1.72-1.55a.2.2,0,0,0-.23,0,.12.12,0,0,0-.05.05c-.15.14-1.21,1.14-1.71,1.54l-.13.1c-.63.5-1.91,1.51-1.84,2.45-.21-.06-.44-.12-.68-.17m-1.6-4.72a17.58,17.58,0,0,1,4.7-1,.86.86,0,0,0,.2.33,1.45,1.45,0,0,0,.83.38c-.46.41-1.53,1.34-2.08,1.75l-.17.13A11,11,0,0,0,27.58,19a7.83,7.83,0,0,0-.37-1.19,5.39,5.39,0,0,0-1.29-1.95m1,4.45a3.88,3.88,0,0,1-1.29-1.86c-.57-1.37-.49-2.26-.31-2.33s.9.67,1.4,1.88a6.28,6.28,0,0,1,.43,1.58,1.78,1.78,0,0,0-.23.73M32,14.72c.34,0,.67,0,1,0a1.17,1.17,0,0,1-1,.39,1.4,1.4,0,0,1-.93-.3L31,14.75q.48,0,1,0Zm.21,10.79h-.42a.7.7,0,0,1-.26-.57.66.66,0,0,1,0-.14h.93v.14a.7.7,0,0,1-.26.57M47,42.39c0-.34,0-.69,0-1a17.34,17.34,0,0,1-1.66,2.31.81.81,0,0,0-.37-.09,1.59,1.59,0,0,0-.86.32A35,35,0,0,0,44,38.1a6.09,6.09,0,0,0,1.71,1,6.92,6.92,0,0,0,1.09.35c-.05-.19-.13-.38-.2-.57a7.4,7.4,0,0,1-.7-.25A4,4,0,0,1,44,37.38a1.83,1.83,0,0,0,.76-.24,5.2,5.2,0,0,1,1.1.27,5.31,5.31,0,0,0-.49-.68h0L45,36.37a2.18,2.18,0,0,1-.34.26h-.2a1.3,1.3,0,0,0-.72.17c-.05-.24-.11-.47-.17-.68h.08a1.56,1.56,0,0,0,.79-.27c-.1-.09-.21-.16-.32-.25a.9.9,0,0,1-.64.12h0a5,5,0,0,0-.32-.75,8.66,8.66,0,0,0-1.46-.65c.17.22.36.47.56.77,1.25,1.88,1.13,7,1.08,8.49-1.46.06-6.62.17-8.48-1.08a9,9,0,0,1-2-1.63c.24,0,.48-.06.72-.1a7.81,7.81,0,0,0,1.57,1.3c1.25.84,4,1,5.75,1,.91,0,1.56,0,1.64,0h.17v-.17c0-.22.32-5.51-.94-7.39A8.54,8.54,0,0,0,40.66,34c-.42-.11-.84-.2-1.27-.28A7.42,7.42,0,0,1,37.93,37a2.91,2.91,0,0,0-.66-.33,6.64,6.64,0,0,0,1.39-3l-.49-.06a6.2,6.2,0,0,1-1.6,3.07l-.13.1a.43.43,0,0,0-.09.13,6.3,6.3,0,0,1-4,1.72.72.72,0,0,0-.64,0,6.24,6.24,0,0,1-4-1.73.38.38,0,0,0-.09-.13l-.11-.09a6.21,6.21,0,0,1-1.73-4,.8.8,0,0,0,.06-.3.72.72,0,0,0-.06-.29,6.24,6.24,0,0,1,1.73-4,.48.48,0,0,0,.11-.09.34.34,0,0,0,.09-.12,6.2,6.2,0,0,1,4-1.72.88.88,0,0,0,.64,0,6.15,6.15,0,0,1,3,1l.25-.44a6.69,6.69,0,0,0-2.77-1,1.22,1.22,0,0,0,.16-.62v-.09a7.47,7.47,0,0,1,3,1.06c.18-.34.33-.69.48-1a8.82,8.82,0,0,0-2.4-1A8.88,8.88,0,0,1,35.4,22.8a5.21,5.21,0,0,1,1.84-.62c0-.13,0-.27,0-.4a5.75,5.75,0,0,0-2.1.71,8.28,8.28,0,0,0-1.58,1.31c-.23,0-.47-.08-.71-.1a8.54,8.54,0,0,1,1.94-1.63,6.67,6.67,0,0,1,2.5-.82,6.86,6.86,0,0,0,0-1.11.83.83,0,0,1-.18.13,1.64,1.64,0,0,0-.23-.74,4.62,4.62,0,0,1,.15-.74,6.24,6.24,0,0,0-.28-.76,6.86,6.86,0,0,0-.28.91,11.26,11.26,0,0,0-1.8-1.57l-.19-.14c-.55-.41-1.62-1.34-2.08-1.74a1.21,1.21,0,0,0,1-.71c.17,0,.33,0,.5.06a7.69,7.69,0,0,0-1.61-.63H32a18,18,0,0,0-10.43,3.33c0,.2,0,.4.05.59a17.38,17.38,0,0,1,3.05-1.81,5.33,5.33,0,0,0,.47,2.29,6.34,6.34,0,0,0,1,1.71,31.46,31.46,0,0,0-4.34-.21c0,.29.09.57.13.86,2.12,0,5.73.11,7.23,1.11a9.11,9.11,0,0,1,1.94,1.63c-.24,0-.48.06-.71.1a7.87,7.87,0,0,0-1.58-1.3c-1.53-1-5.33-1-6.8-1l.06.37c1.45,0,5.12,0,6.53.9A8.76,8.76,0,0,1,30,23.9a8.63,8.63,0,0,0-3.31,1.6c-.29-.34-.56-.62-.68-.74C25.22,24,24,23,23.35,23a.61.61,0,0,0-.43.17c-.73.73,1.19,2.72,1.58,3.12a10.06,10.06,0,0,0,.75.69,8.47,8.47,0,0,0-1.38,2.54c.24.79.5,1.55.76,2.31h.06a.67.67,0,0,1,.57.27v.41a.66.66,0,0,1-.31.21c.06.16.12.31.18.48l.18-.08a7.33,7.33,0,0,0,.24,1.13c.21.5.42,1,.64,1.48a7.23,7.23,0,0,0,.63.9.67.67,0,0,0-.18.07c.11.22.21.44.32.65l.06,0,0,.08c.46,1,1,1.86,1.45,2.74a8.22,8.22,0,0,0,1.58.55,6.23,6.23,0,0,1-.83.71l.21.32a6.73,6.73,0,0,0,1.06-.94c.23,0,.47.08.71.11a8.25,8.25,0,0,1-1.47,1.3c.39.61.8,1.2,1.21,1.78a2.06,2.06,0,0,0,2.49-.19,1.75,1.75,0,0,0,.53-.83l.42.28a4.85,4.85,0,0,0,1.1.53v0c.21.74-1.11,1.79-1.68,2.24l-.13.1c-.17.14-.4.34-.64.56l.24.29.64-.56.12-.1c.64-.5,1.92-1.51,1.85-2.44.21.06.45.11.68.16a1.51,1.51,0,0,0-.16.93,8.9,8.9,0,0,1-2,1.84l-.18.14-.58.46.32.37.55-.44.18-.13a10.91,10.91,0,0,0,1.81-1.58,7.05,7.05,0,0,0,.38,1.18,5.18,5.18,0,0,0,1.28,2,18,18,0,0,1-2.61.73l.42.43A18.1,18.1,0,0,0,47,42.39" transform="translate(0 0)"/><path class="cls-1" d="M41.3,23.71c-.22.47-.46.93-.7,1.37.13-.17.24-.34.34-.5a2.3,2.3,0,0,0,.36-.87" transform="translate(0 0)"/><path class="cls-1" d="M38,29.06l-.33.42c.08.16.15.33.22.5l.51-.05a5.69,5.69,0,0,0-.4-.87" transform="translate(0 0)"/><path class="cls-1" d="M37.49,30h0a2.12,2.12,0,0,0-.11-.21l-.23.27.34,0" transform="translate(0 0)"/><path class="cls-1" d="M34.72,36.1a1.26,1.26,0,0,1-.67,1c-.47.2-1.09-.07-1.62-.63a5.14,5.14,0,0,0,.53-.94,1.15,1.15,0,0,0,.75-.31,5.14,5.14,0,0,0,1,.28,3.44,3.44,0,0,1,0,.56Zm-2.11-1.67.27-.09.26-.13a2.38,2.38,0,0,0,.38.11.77.77,0,0,1,0,.15.59.59,0,0,1-.63.54.64.64,0,0,1-.34-.14l-.12-.09a2.43,2.43,0,0,0,.2-.35ZM32,36a4.71,4.71,0,0,1-.32-.58,1.66,1.66,0,0,0,.32-.22l.19.15.13.06A4.3,4.3,0,0,1,32,36Zm-1.12-1a.72.72,0,0,1-.36-.5.77.77,0,0,1,0-.15,1.9,1.9,0,0,0,.39-.11,2.11,2.11,0,0,0,.54.22,2.37,2.37,0,0,0,.19.35.72.72,0,0,1-.74.19Zm.31,1.92a1.25,1.25,0,0,1-1.22.27c-.48-.19-.72-.83-.69-1.6a4.86,4.86,0,0,0,1-.28,1.11,1.11,0,0,0,.34.22,1.16,1.16,0,0,0,.4.09,4.83,4.83,0,0,0,.53.94,2.83,2.83,0,0,1-.4.37Zm2.85-2.29,0-.24a1.61,1.61,0,0,0,.38-.08,5,5,0,0,1,.19.63,4.71,4.71,0,0,1-.64-.19.42.42,0,0,0,0-.12Zm-6.89-3.54a1.06,1.06,0,0,1,0-.8,1.28,1.28,0,0,1,1.06-.67,2.45,2.45,0,0,1,.54,0,4.58,4.58,0,0,0,.29,1,1,1,0,0,0-.23.35,1.06,1.06,0,0,0-.08.4,4.83,4.83,0,0,0-.94.53,2.42,2.42,0,0,1-.6-.82Zm1.76,1.42a.67.67,0,0,0-.06.12,3.6,3.6,0,0,1-.58-.32,4,4,0,0,1,.57-.32,1.85,1.85,0,0,0,.21.33,1.27,1.27,0,0,0-.13.19Zm.4-1.31a.67.67,0,0,1,.49-.37l.16,0a2.79,2.79,0,0,0,.1.39,2.1,2.1,0,0,0-.13.26l-.09.27a2.33,2.33,0,0,0-.34.2.71.71,0,0,1-.19-.73ZM30,29.83,30,30a1.87,1.87,0,0,0,0,.25,1,1,0,0,0-.24,0,.37.37,0,0,0-.14,0,3.58,3.58,0,0,1-.18-.64,3.51,3.51,0,0,1,.63.19Zm0-2.44a1.29,1.29,0,0,1,1.22.28,3.42,3.42,0,0,1,.4.36,4.83,4.83,0,0,0-.53.94,1,1,0,0,0-.74.31,5.55,5.55,0,0,0-1-.29,1.58,1.58,0,0,1,.69-1.6m1.46,2.74a1.31,1.31,0,0,0-.28.09l-.26.13a2.38,2.38,0,0,0-.38-.11s0-.1,0-.15a.59.59,0,0,1,1-.4l.12.09a2.37,2.37,0,0,0-.19.35M32,28.55a4.08,4.08,0,0,1,.32.58l-.12.07a.8.8,0,0,0-.21.15,1,1,0,0,0-.2-.15l-.12-.07a5.45,5.45,0,0,1,.33-.58m4.88,5.76a1.08,1.08,0,0,1-.59.54,2.44,2.44,0,0,1-1,.15A5.16,5.16,0,0,0,35,34a.87.87,0,0,0,.26-.5l-.63,0a.8.8,0,0,1-.59.3,1.55,1.55,0,0,0-.07-.23c-.36,0-.73.08-1.1.13a1.36,1.36,0,0,1-.24.13,1.68,1.68,0,0,1-.62.13,1.88,1.88,0,0,1-.33,0c-.62.12-1.23.28-1.84.45l.09,0a2,2,0,0,0,0,.24.7.7,0,0,0,0,.14,4.54,4.54,0,0,1-.63.18,4.5,4.5,0,0,1,.14-.49l-.72.24a1.94,1.94,0,0,0-.07.33,2.45,2.45,0,0,1-.54,0,.47.47,0,0,1-.16,0L28,35l0,0a1.17,1.17,0,0,1-.87-.63c-.2-.47.08-1.09.64-1.62a4.83,4.83,0,0,0,.94.53,1.06,1.06,0,0,0,.08.4A.89.89,0,0,0,29,34a1.72,1.72,0,0,0-.07.21l.61-.51a.55.55,0,0,1-.24-.26.67.67,0,0,1,.1-.61.47.47,0,0,1,.09-.12,2.33,2.33,0,0,0,.34.2c0,.09.06.18.1.27a.54.54,0,0,0,.05.11l.46-.42a1.64,1.64,0,0,1,.91-2.08,1.58,1.58,0,0,1,1.17,0l.4-.45a2.55,2.55,0,0,0-.35-.14,2.43,2.43,0,0,0-.2-.35.6.6,0,0,1,.13-.09.64.64,0,0,1,.6-.1.6.6,0,0,1,.23.19c.14-.17.28-.35.41-.53l-.08,0a1,1,0,0,0-.34-.23A1.15,1.15,0,0,0,33,29a4.79,4.79,0,0,0-.52-.94,2.41,2.41,0,0,1,.81-.6,1.06,1.06,0,0,1,.8,0,1.08,1.08,0,0,1,.58.72l.41-.6a1.57,1.57,0,0,0-.75-.69,1.59,1.59,0,0,0-1.28,0,2.91,2.91,0,0,0-1,.69,2.67,2.67,0,0,0-.44-.38,1.84,1.84,0,0,0-1.82-.35,2.1,2.1,0,0,0-1.09,2.11,3.86,3.86,0,0,0-.58,0,1.88,1.88,0,0,0-1.53,1,1.65,1.65,0,0,0,0,1.29,2.91,2.91,0,0,0,.69,1,2.1,2.1,0,0,0-.73,2.26,1.85,1.85,0,0,0,1.53,1,3.26,3.26,0,0,0,.54,0h0a2.1,2.1,0,0,0,1.09,2.12,1.39,1.39,0,0,0,.57.12,2.14,2.14,0,0,0,1.25-.47A3.08,3.08,0,0,0,32,37a2.48,2.48,0,0,0,1.7.85,1.42,1.42,0,0,0,.57-.12,1.84,1.84,0,0,0,1-1.53,3.9,3.9,0,0,0,0-.59h0a3,3,0,0,0,1.14-.2,1.69,1.69,0,0,0,.94-.88,1.63,1.63,0,0,0,0-1.07l-.67,0a1,1,0,0,1,.07.88" transform="translate(0 0)"/></svg>