<?xml version="1.0" encoding="utf-8"?>
<!-- Generator: Adobe Illustrator 26.2.1, SVG Export Plug-In . SVG Version: 6.00 Build 0)  -->
<svg version="1.1" id="Layer_1" xmlns="http://www.w3.org/2000/svg" xmlns:xlink="http://www.w3.org/1999/xlink" x="0px" y="0px"
	 viewBox="0 0 1488 348" style="enable-background:new 0 0 1488 348;" xml:space="preserve">
<style type="text/css">
	.st0{fill:#13673D;}
	.st1{fill-rule:evenodd;clip-rule:evenodd;fill:#D1AD4D;}
	.st2{fill-rule:evenodd;clip-rule:evenodd;fill:#0D0D0D;}
	.st3{fill:#171717;}
	.st4{fill:#1C5E39;}
	.st5{fill:#1B6039;}
	.st6{fill:#1B1B1B;}
	.st7{fill:#191919;}
	.st8{fill:#181818;}
	.st9{fill:#141414;}
	.st10{fill:#1A1A1A;}
	.st11{fill:#1D1D1D;}
	.st12{fill:#166038;}
	.st13{fill:#252525;}
	.st14{fill:#232323;}
	.st15{fill:#282828;}
	.st16{fill:#1F593C;}
	.st17{fill:#2A5743;}
	.st18{fill:#1F5D3C;}
	.st19{fill:#484848;}
	.st20{fill:#1A5D3A;}
	.st21{fill:#242424;}
	.st22{fill:#262626;}
	.st23{fill:#343434;}
	.st24{fill:#3A3A3A;}
	.st25{fill:#2A2A2A;}
</style>
<g>
	<path d="M63.21,318.04h19.72l0.13,8.89c0,6.48-1.22,10.65-3.66,12.52c-2.44,1.87-7.88,2.81-16.32,2.81
		c-7.74,0-12.87-1.25-15.39-3.74c-2.52-2.49-3.77-7.58-3.77-15.26c0-9.8,0.5-15.99,1.51-18.57c1.25-3.15,3.14-5.27,5.68-6.37
		c2.54-1.09,6.85-1.64,12.93-1.64c7.96,0,13.1,0.85,15.42,2.54s3.48,5.45,3.48,11.27h-8.6c-0.15-2.93-0.79-4.75-1.92-5.46
		c-1.13-0.71-3.95-1.07-8.48-1.07c-4.92,0-8.04,0.61-9.37,1.84c-1.32,1.22-1.99,4.1-1.99,8.63l-0.03,4.5l0.07,5.74
		c0,4.44,0.66,7.27,1.97,8.48s4.35,1.82,9.12,1.82c4.64,0,7.58-0.51,8.84-1.54s1.89-3.46,1.89-7.28l0.03-1.84H63.21V318.04z"/>
	<path d="M117.84,297.08h8.5v29.79c0,6.23-1.2,10.36-3.59,12.37s-7.29,3.02-14.68,3.02c-7.81,0-12.93-0.95-15.36-2.85
		c-2.43-1.9-3.64-5.92-3.64-12.04v-30.29h8.5v30.29c0,3.3,0.59,5.4,1.77,6.28c1.18,0.89,3.96,1.33,8.33,1.33
		c4.48,0,7.3-0.45,8.45-1.35c1.15-0.9,1.72-3.09,1.72-6.59V297.08z"/>
	<path d="M142.68,297.08v37.18h21v7.61h-29.5v-44.79H142.68z"/>
	<path d="M176.48,304.23v12.08h20.08v7.15h-20.08v18.41h-8.5v-44.79h29.66v7.15H176.48z"/>
	<path d="M248.43,297.08h8.5v29.79c0,6.23-1.2,10.36-3.59,12.37s-7.29,3.02-14.68,3.02c-7.81,0-12.93-0.95-15.36-2.85
		c-2.43-1.9-3.64-5.92-3.64-12.04v-30.29h8.5v30.29c0,3.3,0.59,5.4,1.77,6.28c1.18,0.89,3.96,1.33,8.33,1.33
		c4.48,0,7.3-0.45,8.45-1.35c1.15-0.9,1.72-3.09,1.72-6.59V297.08z"/>
	<path d="M306.35,297.08v44.79h-14.4l-12.8-24.58c-0.63-1.23-1.63-3.37-2.99-6.43l-1.44-3.22l-1.41-3.22h-0.33l0.13,2.95l0.1,2.92
		l0.07,5.87v25.69h-8.5v-44.79h14.4l11.65,22.71c1.03,2.01,2.22,4.45,3.58,7.32l1.71,3.64l1.71,3.67h0.3l-0.1-2.89l-0.1-2.89
		l-0.07-5.77v-25.79H306.35z"/>
	<path d="M322.72,297.08v44.79h-8.5v-44.79H322.72z"/>
	<path d="M349.27,296.68c8.14,0,13.38,1.35,15.72,4.05c2.34,2.7,3.51,8.75,3.51,18.13c0,10.26-1.18,16.72-3.53,19.39
		c-2.35,2.67-8.04,4-17.08,4c-8.14,0-13.4-1.32-15.78-3.95c-2.38-2.64-3.58-8.44-3.58-17.41c0-10.67,1.17-17.38,3.51-20.11
		S340.12,296.68,349.27,296.68z M348.61,303.97c-5.71,0-9.04,0.73-10.01,2.2c-0.96,1.47-1.44,6.54-1.44,15.23
		c0,6.43,0.56,10.3,1.69,11.62s4.45,1.97,9.96,1.97c5.27,0,8.43-0.74,9.48-2.21s1.58-5.96,1.58-13.44c0-7.5-0.5-11.94-1.49-13.31
		S354.12,303.97,348.61,303.97z"/>
	<path d="M415.81,297.08v44.79h-14.4l-12.8-24.58c-0.63-1.23-1.63-3.37-2.99-6.43l-1.44-3.22l-1.41-3.22h-0.33l0.13,2.95l0.1,2.92
		l0.07,5.87v25.69h-8.5v-44.79h14.4l11.65,22.71c1.03,2.01,2.22,4.45,3.58,7.32l1.71,3.64l1.71,3.67h0.3l-0.1-2.89l-0.1-2.89
		l-0.07-5.77v-25.79H415.81z"/>
	<path class="st0" d="M467.59,333.27h-19.33l-2.79,8.6h-8.99l14.9-44.79h12.76l15.13,44.79h-8.83L467.59,333.27z M465.62,327
		l-7.74-23.33L450.26,327H465.62z"/>
	<path class="st0" d="M491.64,297.08v37.18h21v7.61h-29.5v-44.79H491.64z"/>
	<path class="st0" d="M560.84,333.27h-19.33l-2.79,8.6h-8.99l14.9-44.79h12.76l15.13,44.79h-8.83L560.84,333.27z M558.87,327
		l-7.74-23.33L543.52,327H558.87z"/>
	<path class="st0" d="M614.39,297.08v44.79h-8.5V322.5h-21v19.36h-8.5v-44.79h8.5v18.28h21v-18.28H614.39z"/>
	<path class="st0" d="M630.77,297.08v37.18h21v7.61h-29.5v-44.79H630.77z"/>
	<path class="st0" d="M664.56,297.08v44.79h-8.5v-44.79H664.56z"/>
	<path class="st0" d="M699.61,333.27h-19.33l-2.79,8.6h-8.99l14.9-44.79h12.77l15.12,44.79h-8.83L699.61,333.27z M697.64,327
		l-7.74-23.33L682.28,327H697.64z"/>
	<path d="M761.65,326.9h5.02v1.71c0,6.1-1.04,9.92-3.12,11.43c-2.08,1.52-7.31,2.28-15.69,2.28c-7.5,0-12.27-1.34-14.31-4.02
		c-2.03-2.68-3.05-8.98-3.05-18.92c0-7.77,0.23-12.65,0.69-14.65c0.46-2,1.77-3.79,3.94-5.37c2.54-1.84,8.02-2.76,16.44-2.76
		c5.71,0,9.55,0.89,11.53,2.66c1.98,1.77,2.97,5.2,2.97,10.27l0.03,1.21h-5.02l-0.03-1.38c0-3.61-0.59-5.93-1.76-6.96
		s-3.81-1.54-7.92-1.54c-7.22,0-11.63,0.6-13.22,1.8c-1.6,1.2-2.39,4.54-2.39,10.01c0,12.58,0.54,19.95,1.61,22.12
		s4.74,3.25,10.99,3.25c5.95,0,9.66-0.47,11.14-1.41s2.21-3.3,2.21-7.09L761.65,326.9z"/>
	<path d="M788.76,296.62c8.46,0,13.76,1.24,15.88,3.71c2.12,2.47,3.18,8.65,3.18,18.54c0,10.65-1.02,17.23-3.05,19.72
		c-2.03,2.49-7.37,3.74-16.01,3.74c-8.6,0-13.93-1.24-16-3.71s-3.1-8.86-3.1-19.16v-3.15l0.07-4.23c0-5.95,1.34-10.01,4.02-12.19
		S781.43,296.62,788.76,296.62z M788.72,300.88c-7.09,0-11.23,0.79-12.44,2.36s-1.8,6.98-1.8,16.21c0,9.25,0.6,14.67,1.8,16.24
		s5.35,2.36,12.44,2.36c7.11,0,11.27-0.79,12.47-2.36s1.8-6.99,1.8-16.24v-2.92l-0.03-4.23c0-4.94-0.83-8.08-2.49-9.42
		C798.81,301.55,794.89,300.88,788.72,300.88z"/>
	<path d="M829.97,296.62c8.46,0,13.76,1.24,15.88,3.71c2.12,2.47,3.18,8.65,3.18,18.54c0,10.65-1.02,17.23-3.05,19.72
		c-2.03,2.49-7.37,3.74-16.01,3.74c-8.6,0-13.93-1.24-16-3.71s-3.1-8.86-3.1-19.16v-3.15l0.07-4.23c0-5.95,1.34-10.01,4.02-12.19
		S822.64,296.62,829.97,296.62z M829.94,300.88c-7.09,0-11.23,0.79-12.44,2.36s-1.8,6.98-1.8,16.21c0,9.25,0.6,14.67,1.8,16.24
		s5.35,2.36,12.44,2.36c7.11,0,11.27-0.79,12.47-2.36s1.8-6.99,1.8-16.24v-2.92l-0.03-4.23c0-4.94-0.83-8.08-2.49-9.42
		C840.02,301.55,836.11,300.88,829.94,300.88z"/>
	<path d="M854.81,341.86v-44.79h18.8h1.71c5.05,0,8.5,0.97,10.34,2.92c1.84,1.95,2.76,5.59,2.76,10.93c0,5.12-0.96,8.61-2.87,10.47
		s-5.51,2.79-10.78,2.79l-1.97,0.03h-12.93v17.65H854.81z M859.86,319.95h11.98c5.01,0,8.22-0.51,9.63-1.54
		c1.41-1.03,2.12-3.39,2.12-7.09c0-4.33-0.48-7.07-1.43-8.22s-3.21-1.72-6.78-1.72l-1.94-0.03h-13.59V319.95z"/>
	<path d="M897.7,301.34v15.26h22.74v4.27H897.7v16.73h23.72v4.27h-28.78v-44.79h28.78v4.27H897.7z"/>
	<path d="M927.92,341.86v-44.79h21.33c4.81,0,8.2,0.95,10.17,2.85s2.95,5.21,2.95,9.91c0,4.13-0.54,7.02-1.61,8.65
		c-1.07,1.63-3.12,2.69-6.14,3.17v0.1c4.75,0.35,7.12,3.24,7.12,8.66v11.45h-5.05v-10.3c0-5.23-2.26-7.84-6.79-7.84h-1.67h-15.26
		v18.15H927.92z M932.97,319.45h14.6c3.85,0,6.47-0.58,7.88-1.75s2.1-3.37,2.1-6.61c0-4.05-0.52-6.68-1.56-7.91
		c-1.04-1.23-3.26-1.84-6.68-1.84h-16.34V319.45z"/>
	<path d="M997.31,332.38h-22.67l-3.45,9.48h-5.35l16.41-44.79h7.09l16.73,44.79h-5.28L997.31,332.38z M995.84,328.58l-9.94-27.37
		l-9.81,27.37H995.84z"/>
	<path d="M1026.29,301.77v40.1h-5.05v-40.1h-14.6v-4.69h34.12v4.69H1026.29z"/>
	<path d="M1050.31,297.08v44.79h-5.05v-44.79H1050.31z"/>
	<path d="M1088.01,297.08h5.41l-15.85,44.79h-7.22l-16.01-44.79h5.38l11.95,33.83l1.18,3.45c0.44,1.33,0.8,2.48,1.08,3.45h0.13
		c0.66-2.21,1.39-4.48,2.2-6.83L1088.01,297.08z"/>
	<path d="M1100.61,301.34v15.26h22.74v4.27h-22.74v16.73h23.72v4.27h-28.78v-44.79h28.78v4.27H1100.61z"/>
	<path d="M1152.68,297.08v44.79h-5.05v-44.79H1152.68z"/>
	<path d="M1199.57,297.08v44.79h-8.3l-18.77-30.48l-3.05-5.02l-1.51-2.49l-1.51-2.49h-0.13l0.03,1.67l0.03,1.71v3.35v33.76h-5.05
		v-44.79h8.27l16.37,26.71l4.27,7.02l2.13,3.48l2.1,3.51h0.13l-0.03-1.67l-0.03-1.71v-3.35v-33.99H1199.57z"/>
	<path d="M1238.81,309.22h-5.02c0-3.61-0.6-5.9-1.8-6.87s-4.04-1.46-8.5-1.46c-5.29,0-8.71,0.46-10.24,1.39s-2.3,3-2.3,6.22
		c0,3.61,0.6,5.81,1.8,6.59c1.2,0.79,4.78,1.32,10.73,1.61c6.98,0.31,11.41,1.19,13.3,2.66c1.89,1.47,2.84,4.75,2.84,9.84
		c0,5.51-1.09,9.08-3.27,10.7c-2.18,1.62-6.98,2.43-14.42,2.43c-6.45,0-10.75-0.81-12.88-2.44c-2.13-1.63-3.2-4.92-3.2-9.86l-0.03-2
		h5.02v1.12c0,4,0.61,6.49,1.84,7.46c1.22,0.97,4.36,1.46,9.42,1.46c5.8,0,9.36-0.49,10.7-1.46c1.33-0.97,2-3.57,2-7.79
		c0-2.73-0.46-4.55-1.36-5.46c-0.91-0.91-2.81-1.45-5.69-1.62l-5.25-0.26l-4.99-0.26c-7.59-0.53-11.38-4.46-11.38-11.81
		c0-5.1,1.1-8.5,3.31-10.21c2.21-1.71,6.62-2.56,13.22-2.56c6.69,0,11.06,0.79,13.09,2.38
		C1237.8,300.58,1238.81,303.99,1238.81,309.22z"/>
	<path d="M1276.15,297.08h5.05v31.37c0,5.69-1.14,9.42-3.43,11.21c-2.29,1.78-7.08,2.67-14.39,2.67c-6.85,0-11.5-0.86-13.96-2.58
		c-2.46-1.72-3.69-4.98-3.69-9.79v-1.51v-31.37h5.05v31.37c0,4.24,0.69,6.91,2.07,7.99c1.38,1.08,4.77,1.62,10.17,1.62
		c5.86,0,9.52-0.53,10.96-1.59c1.45-1.06,2.17-3.74,2.17-8.02V297.08z"/>
	<path d="M1289.71,341.86v-44.79h21.33c4.81,0,8.2,0.95,10.17,2.85s2.95,5.21,2.95,9.91c0,4.13-0.54,7.02-1.61,8.65
		c-1.07,1.63-3.12,2.69-6.14,3.17v0.1c4.75,0.35,7.12,3.24,7.12,8.66v11.45h-5.05v-10.3c0-5.23-2.26-7.84-6.79-7.84h-1.67h-15.26
		v18.15H1289.71z M1294.76,319.45h14.6c3.85,0,6.48-0.58,7.88-1.75c1.4-1.17,2.1-3.37,2.1-6.61c0-4.05-0.52-6.68-1.56-7.91
		c-1.04-1.23-3.27-1.84-6.68-1.84h-16.34V319.45z"/>
	<path d="M1359.1,332.38h-22.67l-3.45,9.48h-5.35l16.41-44.79h7.09l16.73,44.79h-5.28L1359.1,332.38z M1357.63,328.58l-9.94-27.37
		l-9.81,27.37H1357.63z"/>
	<path d="M1410.72,297.08v44.79h-8.3l-18.77-30.48l-3.05-5.02l-1.51-2.49l-1.51-2.49h-0.13l0.03,1.67l0.03,1.71v3.35v33.76h-5.05
		v-44.79h8.27l16.37,26.71l4.27,7.02l2.13,3.48l2.1,3.51h0.13l-0.03-1.67l-0.03-1.71v-3.35v-33.99H1410.72z"/>
	<path d="M1448.62,326.9h5.02v1.71c0,6.1-1.04,9.92-3.12,11.43c-2.08,1.52-7.31,2.28-15.68,2.28c-7.5,0-12.27-1.34-14.31-4.02
		c-2.04-2.68-3.05-8.98-3.05-18.92c0-7.77,0.23-12.65,0.69-14.65c0.46-2,1.77-3.79,3.94-5.37c2.54-1.84,8.02-2.76,16.44-2.76
		c5.71,0,9.55,0.89,11.53,2.66c1.98,1.77,2.97,5.2,2.97,10.27l0.03,1.21h-5.02l-0.03-1.38c0-3.61-0.58-5.93-1.75-6.96
		c-1.17-1.03-3.81-1.54-7.93-1.54c-7.22,0-11.63,0.6-13.22,1.8c-1.6,1.2-2.39,4.54-2.39,10.01c0,12.58,0.54,19.95,1.61,22.12
		c1.07,2.17,4.73,3.25,10.99,3.25c5.95,0,9.66-0.47,11.14-1.41s2.21-3.3,2.21-7.09L1448.62,326.9z"/>
	<path d="M1462.59,301.34v15.26h22.74v4.27h-22.74v16.73h23.72v4.27h-28.78v-44.79h28.78v4.27H1462.59z"/>
</g>
<g id="Layer_3">
	<g id="svgg_1_">
		<path id="path0_1_" class="st1" d="M127.5,2.95c-0.95,0.25-2.55,0.64-3.63,0.83c-6.81,1.21-8.91,1.72-13.94,3.44
			c-7.25,2.48-19.03,8.15-20.74,10.05c-0.32,0.38-1.4,1.15-2.42,1.78l-1.85,1.15l2.1,0.45c6.11,1.27,12.79,0,13.87-2.67
			c0.25-0.64,6.3-4.71,9.8-6.62c3.95-2.16,8.53-4.07,16.1-6.68C132.78,2.57,133.35,1.17,127.5,2.95 M156.45,2.88
			c0.19,0.32,1.46,0.76,2.86,0.95c1.4,0.25,3.5,0.83,4.71,1.34c4.58,1.91,5.22,2.16,5.92,2.29c4.26,0.89,16.35,8.34,21.57,13.3
			c1.53,1.46,16.23,2.55,16.23,1.21c0-0.7-5.22-4.58-7-5.15c-0.32-0.13-1.85-0.89-3.31-1.78c-6.55-3.88-21.25-9.1-30.29-10.82
			c-1.85-0.32-4.77-0.89-6.55-1.27C156.58,2.18,156,2.18,156.45,2.88 M129.47,8.17c-6.94,2.35-24.24,11.64-24.24,13.04
			c0,0.25,3.63,0.51,8.02,0.51h8.02l2.1-3.37c1.15-1.85,3.95-5.09,6.24-7.25C133.99,6.96,133.92,6.64,129.47,8.17 M136.15,10.39
			c-3.37,2.29-9.48,7.7-8.65,7.7c0.13,0-0.32,0.76-1.02,1.65l-1.34,1.65l5.09,0.38c2.8,0.19,6.49,0.45,8.27,0.45l3.18,0.06v-7.25
			C141.62,6.51,141.75,6.64,136.15,10.39 M145.89,14.72c0,8.34-0.64,7.83,9.1,7.32l7.83-0.45l-1.91-2.67
			c-2.1-2.99-6.62-7-10.63-9.48C145.95,6.7,145.89,6.83,145.89,14.72 M161.48,11.79c2.35,2.23,5.15,5.47,6.3,7.25l1.97,3.31
			l3.69-0.06c2.04-0.06,5.73-0.25,8.21-0.45l4.52-0.38l-4.26-2.74c-5.85-3.75-10.69-6.24-17.18-8.78
			C156.96,6.89,156.58,7.15,161.48,11.79 M73.98,30.31c-5.28,5.54-8.97,10.18-12.6,15.91c-1.27,2.04-2.86,4.45-3.44,5.28l-1.08,1.59
			l4.01,0.45c5.09,0.57,9.93,2.67,11.71,5.09c1.65,2.23,2.16,2.35,2.74,0.51c1.27-4.07,8.72-18.07,13.04-24.63
			c5.79-8.72,5.85-8.34-2.8-8.85l-6.68-0.45L73.98,30.31 M196.22,26.43c0,0.25,0.51,0.89,1.08,1.4c0.57,0.51,2.16,2.23,3.5,3.82
			c1.34,1.59,2.8,3.25,3.18,3.69c0.45,0.45,0.76,1.08,0.76,1.4c0,0.32,0.19,0.7,0.51,0.83c1.4,0.57,11.84,18.45,11.33,19.34
			c-0.13,0.19,0.25,0.95,0.83,1.72l1.02,1.4l1.78-1.53c0.95-0.83,2.61-1.85,3.63-2.23c1.02-0.38,2.74-1.08,3.82-1.53
			c1.08-0.45,2.23-0.89,2.48-0.89c1.97,0,4.96-1.91,4.26-2.74c-0.38-0.51-0.57-0.89-0.32-0.89c1.91,0-11.84-15.91-19.22-22.27
			l-2.29-1.97h-8.15C199.85,25.98,196.22,26.17,196.22,26.43 M96.44,29.42c-1.34,1.53-3.37,3.95-4.52,5.28
			c-1.15,1.34-2.48,2.86-2.86,3.31c-0.45,0.45-0.76,0.89-0.76,0.95c0,0.06,3.88,0.06,8.65-0.06c6.24-0.19,9.54,0,11.84,0.64
			l3.25,0.89l2.74-5.47c1.53-2.99,2.99-6.11,3.31-6.87l0.57-1.46h-9.86h-9.86L96.44,29.42 M122.47,28.08
			c-0.19,0.83-0.64,1.53-0.95,1.53s-0.38,0.25-0.19,0.57c0.19,0.32,0.06,0.64-0.25,0.64c-0.38,0-0.64,0.45-0.64,1.08
			c0,0.57-0.83,2.67-1.78,4.71c-1.78,3.69-1.72,4.26,0.51,5.28c0.76,0.38,4.2,5.15,6.68,9.42l2.61,4.39h6.62h6.62l-0.19-14.38
			l-0.19-14.38l-9.23-0.19l-9.23-0.19L122.47,28.08 M146.78,41.45v14.83h15.02c8.27,0,15.02-0.25,15.02-0.51
			c0-3.18-4.26-16.99-7.19-23.16c-0.89-1.85-1.46-3.37-1.27-3.44c0.13-0.06-0.25-0.64-0.89-1.34c-1.08-1.21-1.78-1.27-10.94-1.27
			h-9.74V41.45 M171.34,27.13c0,0.32,0.25,0.76,0.57,0.95c0.51,0.32,5.15,9.04,5.41,10.18c0.06,0.25,0.51,1.46,1.08,2.74
			c2.42,5.6,3.12,7.89,3.56,12.28l0.38,3.63h13.81c13.68,0,15.46-0.25,14-1.97c-0.32-0.38-1.91-3.31-3.56-6.49
			c-2.67-5.22-6.11-10.75-7.76-12.47c-0.32-0.38-1.46-1.72-2.48-2.99c-1.02-1.27-2.61-3.25-3.56-4.33l-1.72-1.97h-9.93
			C175.47,26.56,171.34,26.81,171.34,27.13 M84.54,47.17c-0.89,1.53-2.29,4.14-3.18,5.92l-1.59,3.18h5.41
			c3.25,0,5.41-0.25,5.41-0.64c0-0.32-0.25-0.57-0.57-0.57c-0.83,0-3.31-5.47-3.69-8.21l-0.32-2.42L84.54,47.17 M130.49,59.71
			c-1.34,1.34-0.32,4.96,1.97,6.94c9.04,7.76,9.74,7.7,9.74-0.7v-6.62h-5.6C133.48,59.33,130.74,59.52,130.49,59.71 M146.14,60.09
			c-0.19,0.45-0.25,3.63-0.13,7.06l0.19,6.3l2.1,0.57c1.4,0.38,3.5,1.91,6.05,4.52c2.16,2.16,5.03,4.52,6.36,5.22
			c1.34,0.7,2.55,1.4,2.74,1.59c0.57,0.7,2.1,0.89,6.68,0.76c5.73-0.13,8.46,0.95,10.24,4.2c2.35,4.26,2.67,3.75,2.29-3.75
			c-0.19-3.82-0.51-7.57-0.64-8.4s-0.45-2.86-0.7-4.52c-0.64-4.77-1.53-8.85-2.55-11.64l-0.89-2.61h-15.72
			C149.7,59.33,146.39,59.45,146.14,60.09 M183.43,61.36c0,1.15,0.25,2.8,0.57,3.82c0.32,0.95,0.7,2.86,0.89,4.2
			s0.57,4.33,0.95,6.68c0.32,2.35,0.64,4.58,0.64,4.96c0,0.57,0.57,0.45,2.16-0.25c1.97-0.95,2.23-0.95,3.82,0
			c0.95,0.57,2.61,1.15,3.75,1.34c1.15,0.19,3.18,0.64,4.52,0.95c2.35,0.57,5.54,0.45,11.26-0.38c2.67-0.38,2.86-0.57,4.71-4.14
			l1.97-3.75l-1.59-3.05c-0.83-1.65-1.72-4.07-1.91-5.41c-0.19-1.34-0.76-3.44-1.27-4.71l-0.95-2.29h-14.76h-14.76L183.43,61.36
			 M77.8,61.3c-0.51,0.76-1.02,2.16-1.21,3.18c-0.76,4.2-1.21,5.6-2.42,8.15c-1.27,2.61-1.27,2.74-0.19,5.47
			c1.97,5.15,2.42,8.85,1.4,11.52c-0.51,1.34-0.76,2.55-0.57,2.74c0.76,0.76,28.7,0.38,28.95-0.45c0.13-0.45,0.32-4.9,0.45-9.99
			l0.19-9.23h-2.74c-4.01,0-5.98-2.16-7.19-7.83c-1.02-4.9-1.08-4.9-8.85-4.9C79.13,59.9,78.63,60.03,77.8,61.3 M107.64,85.54
			c0,3.05-0.13,6.05-0.25,6.49c-0.13,0.76,0.64,0.89,4.96,0.7l5.15-0.19l-1.15-1.34c-0.64-0.7-2.04-2.29-3.12-3.44
			c-1.08-1.15-2.55-3.44-3.31-5.03C108.02,78.73,107.64,79.18,107.64,85.54 M72.52,97.12c0,0.13,0.45,1.15,1.02,2.23
			c1.72,3.44,1.72,7.06,0,12.22l-1.53,4.65l1.46,5.35c0.76,2.93,1.72,6.11,2.1,7.06l0.64,1.65h14.44c7.95,0,14.57-0.13,14.76-0.32
			c0.32-0.32,0.13-1.85-1.34-10.94c-0.45-2.67-0.76-8.72-0.83-13.49l-0.06-8.65H87.85C79.39,96.93,72.52,97,72.52,97.12
			 M106.75,99.16c0.38,2.48,1.59,15.34,1.85,19.6c0.06,1.53,0.32,3.25,0.51,3.95c0.19,0.7,0.51,2.67,0.7,4.52
			c0.45,4.52-0.45,4.33,16.74,4.14l15.4-0.19l-0.19-8.21c-0.13-4.52-0.25-10.56-0.32-13.43c-0.19-8.72-4.58-11.2-7.13-3.95
			c-2.29,6.55-8.4,2.93-8.4-5.03v-3.63h-9.74h-9.74L106.75,99.16 M191.13,97.95c-0.13,0.25-0.06,1.85,0.25,3.5
			c1.02,5.98-0.19,18.2-2.74,27.43l-0.89,3.18l13.74-0.13l13.68-0.19l0.76-3.95c0.45-2.16,0.95-4.84,1.15-5.85
			c0.45-2.23-1.21-6.17-3.69-8.78c-2.99-3.25-4.71-7.19-5.03-11.52l-0.32-4.14h-8.4C195.2,97.51,191.32,97.7,191.13,97.95
			 M146.46,127.86c0,3.56,0.06,3.63,1.65,3.75c0.89,0.06,2.42,0.13,3.31,0.19c9.1,0.64,27.87,0.89,27.49,0.32
			c-1.46-2.35-6.75-2.99-13.94-1.53c-2.04,0.38-7.06-0.64-9.74-2.04c-1.02-0.51-1.97-1.02-2.1-1.02c-1.02-0.25-2.93-1.21-4.33-2.16
			C146.52,123.72,146.46,123.79,146.46,127.86 M71.75,134.1c-1.91,2.42-4.65,3.31-12.15,3.88l-5.28,0.45l3.44,5.15
			c1.91,2.86,4.71,6.68,6.24,8.59s3.5,4.26,4.33,5.35c3.44,4.39,2.48,4.07,13.17,4.39c5.41,0.19,9.86,0.25,9.86,0.13
			c0-0.13-0.38-0.57-0.83-1.02c-1.34-1.34-5.28-7.13-5.28-7.76c0-0.32-0.19-0.64-0.45-0.64c-0.64,0-4.2-6.24-8.85-15.59L73.47,132
			L71.75,134.1 M78.56,134.8c0,0.89,2.74,5.85,4.96,8.97c0.64,0.89,0.95,1.65,0.7,1.65c-0.25,0-0.19,0.19,0.13,0.45
			c0.38,0.25,1.59,1.78,2.67,3.5c1.15,1.65,2.23,3.18,2.42,3.31c0.19,0.19,1.91,2.29,3.88,4.71l3.5,4.39h9.42h9.35l-0.38-1.34
			c-0.19-0.76-0.64-1.91-0.89-2.55c-2.04-4.77-5.47-15.65-6.43-20.3c-0.76-3.69-0.38-3.63-15.53-3.63
			C80.66,133.9,78.56,134.03,78.56,134.8 M111.91,134.73c0,3.18,5.03,18.9,8.27,25.64l0.95,2.04h10.18c5.6,0,10.31-0.19,10.5-0.45
			c0.13-0.25,0.38-6.62,0.51-14.13l0.19-13.62l-15.34-0.19C114.45,133.9,111.91,134.03,111.91,134.73 M148.18,147.39
			c0.13,7.45,0.32,13.81,0.45,14.25c0.19,0.57,2.61,0.76,10.44,0.64l10.18-0.19l1.02-2.16c1.85-3.75,7.06-18.45,7.95-22.53
			c0.19-0.89,0.51-2.04,0.76-2.55c0.32-0.89-1.21-0.95-15.34-0.95h-15.72L148.18,147.39 M184.7,135.37c0,2.55-2.61,11.45-6.3,21.25
			c-0.89,2.35-1.59,4.45-1.59,4.71s4.33,0.45,9.54,0.45h9.54l2.1-2.86c1.15-1.59,2.42-3.18,2.8-3.56
			c3.56-3.75,12.92-18.71,12.98-20.68c0-0.57-3.31-0.76-14.51-0.76H184.7L184.7,135.37 M217.47,137.66c-0.45,1.4-0.7,2.55-0.7,2.55
			c0.38,0-7.64,14.13-8.46,14.89c-0.57,0.51-4.26,6.43-4.26,6.87c0,0.19,4.07,0.38,9.1,0.38h9.1l2.35-2.61
			c5.98-6.49,10.69-13.68,11.58-17.69l0.45-2.04l-4.9-0.38c-6.17-0.51-11.14-1.91-12.09-3.44
			C218.62,134.6,218.3,134.8,217.47,137.66 M77.35,166.93c0,0.45,3.05,3.37,3.5,3.37c0.25,0,1.08,0.64,1.97,1.4
			c1.59,1.46,9.93,7.06,14.57,9.8c11.26,6.62,25.01,11.26,36.84,12.34c4.26,0.38,4.9,0.38,3.95-0.32c-0.57-0.45-1.4-0.76-1.85-0.76
			c-0.45,0-1.53-0.32-2.48-0.7s-2.23-0.83-2.86-0.89c-4.14-0.76-19.6-8.91-21.89-11.45c-0.32-0.38-1.85-1.59-3.31-2.74
			c-3.12-2.35-7.32-6.55-8.72-8.78C96.19,166.74,77.35,165.59,77.35,166.93 M100.39,167.12c0,1.08,10.5,9.29,16.16,12.66
			c4.58,2.67,16.99,7.32,17.69,6.55c0.19-0.19-0.19-0.64-0.83-1.02c-3.88-2.16-11.33-11.26-13.68-16.67l-0.83-1.97h-9.23
			C104.52,166.61,100.39,166.87,100.39,167.12 M124.06,167.12c0,0.7,1.91,4.52,2.67,5.35c0.38,0.38,1.08,1.34,1.53,2.1
			c1.34,2.04,4.96,6.17,6.49,7.45c0.76,0.64,1.72,1.46,2.1,1.85c1.21,1.15,5.09,3.44,5.85,3.44c0.51,0,0.64-0.95,0.38-3.18
			c-0.19-1.78-0.51-6.17-0.7-9.8c-0.19-3.63-0.51-6.87-0.64-7.13C141.43,166.48,124.06,166.48,124.06,167.12 M149.45,168.46
			c-0.06,1.02-0.13,2.04-0.19,2.29c-0.06,0.25-0.32,2.93-0.57,5.92c-0.25,2.99-0.57,6.75-0.76,8.34c-0.25,1.91-0.13,2.86,0.32,2.86
			c1.4,0,9.74-6.87,12.41-10.18c1.53-1.91,2.99-3.75,3.31-4.14c0.32-0.38,0.38-0.83,0.19-1.08c-0.19-0.19-0.13-0.38,0.25-0.38
			c0.57,0,3.25-4.2,3.25-5.09c0-0.19-4.07-0.38-9.1-0.38h-9.1L149.45,168.46 M171.02,170.11c-2.61,5.98-7.13,11.52-11.71,14.38
			c-1.4,0.89-2.55,1.78-2.55,1.97c0,0.95,11.45-2.61,15.27-4.77c1.53-0.83,3.37-1.91,4.2-2.35c3.82-2.16,15.21-11.71,14.64-12.28
			c-0.19-0.19-4.39-0.32-9.35-0.32h-8.97L171.02,170.11 M195.26,170.62c-1.97,2.1-5.54,5.41-7.89,7.25
			c-2.35,1.85-4.9,3.95-5.66,4.58c-2.23,1.91-14.64,7.83-17.18,8.21c-1.27,0.19-2.42,0.64-2.61,0.89c-0.19,0.32-0.76,0.51-1.34,0.57
			c-0.57,0-1.85,0.45-2.86,0.89c-1.72,0.83-1.53,0.89,3.05,0.57c11.26-0.7,24.05-5.03,36.65-12.22
			c5.03-2.93,16.54-11.01,18.77-13.24l1.53-1.53l-9.35,0.06l-9.42,0.06L195.26,170.62"/>
		<path id="path1_1_" class="st2" d="M29.06,53.28C8.69,54.24,2.65,60.03,8.63,72.94c1.65,3.63,1.72,4.26,0.45,6.68
			c-1.34,2.55-1.72,7.64-0.95,13.11c0.57,4.14,0.51,4.96-0.64,8.21c-1.59,4.52-1.59,7.95,0.06,12.98c1.21,3.82,1.27,4.14,0.38,9.99
			c-1.85,12.41-2.35,18.9-1.59,21.38c2.04,6.55,7.13,12.28,13.74,15.34c20.62,9.54,22.02,11.45,23.86,33.66
			c0.7,8.15,1.53,14.51,2.16,16.35c1.34,4.01,3.75,8.97,5.03,10.37c0.57,0.64,1.78,2.16,2.74,3.44
			c2.48,3.31,22.14,22.72,26.41,26.09c12.92,10.18,44.03,20.55,49.32,16.54c1.34-1.02,1.59-49.32,0.38-57.72
			c-1.08-7.19-4.52-10.24-15.02-13.3c-9.8-2.86-19.15-5.85-19.79-6.36c-0.57-0.45-2.61-1.59-8.21-4.77
			c-1.53-0.83-2.86-1.72-3.05-1.91c-0.19-0.19-1.78-1.46-3.63-2.74c-7.83-5.6-14.95-12.79-22.14-22.08
			c-1.65-2.16-3.37-4.33-3.75-4.77c-0.45-0.45-0.76-1.02-0.76-1.21c0-0.25-0.7-1.21-1.59-2.23c-3.63-4.2-4.58-6.62-3.75-9.29
			l0.76-2.42l5.15-0.38c18.01-1.21,22.53-5.28,17.88-16.29c-1.15-2.8-1.15-6.49,0-10.94c1.27-4.9,1.15-9.04-0.25-11.39l-1.21-1.97
			l1.72-3.12c3.63-6.55,3.63-11.07,0.19-18.39c-0.89-1.91-0.89-2.16,0.38-4.33c4.58-8.21-1.15-16.04-12.66-17.44
			c-1.65-0.19-3.18-0.57-3.37-0.89C56.61,52.58,43.95,52.65,29.06,53.28 M228.35,55.76c-0.83,0.32-1.97,0.45-2.55,0.32
			c-0.57-0.13-1.08,0-1.08,0.25c0,0.25-0.38,0.57-0.89,0.57c-0.51,0-2.16,1.21-3.82,2.74l-2.93,2.74v4.71
			c0,3.82,0.25,5.03,1.27,6.49c1.34,1.91,1.34,2.1-0.89,7c-1.78,3.82-1.34,9.99,1.02,14.64l2.04,3.95l-1.27,2.35
			c-1.46,2.74-1.59,4.84-0.45,9.35c1.78,6.94,1.78,8.15,0.06,13.68c-1.46,4.65-1.78,11.01-0.45,9.74c0.19-0.19,0.89,0.38,1.53,1.21
			c1.97,2.55,7.57,3.88,16.42,3.95c9.04,0.13,8.91,6.43-0.32,16.54c-0.57,0.64-1.08,1.4-1.08,1.65c0,0.25-0.32,0.83-0.76,1.27
			c-0.45,0.45-2.61,3.05-4.84,5.73c-6.36,7.7-15.59,15.91-23.04,20.55c-1.4,0.89-2.74,1.78-2.93,1.97
			c-0.95,1.15-10.05,5.73-13.36,6.68c-1.53,0.45-3.25,1.02-3.95,1.27c-0.64,0.25-4.2,1.21-7.89,2.16
			c-14.44,3.63-16.29,5.66-17.24,19.15c-1.08,15.59-0.83,50.72,0.38,51.92c1.21,1.21,7.51,1.34,12.09,0.19
			c24.18-6.17,33.22-11.26,50.97-28.89c19.47-19.34,21.57-23.04,22.65-40.03c1.34-20.24,2.04-22.46,8.91-28.7
			c2.23-1.97,5.85-4.26,9.86-6.24c9.8-4.71,9.8-4.77,12.92-7.76c6.94-6.62,7.83-14.25,4.01-34.36c-0.57-2.86,0.13-6.68,1.4-7.95
			c0.95-0.95,0.38-8.97-0.83-12.47c-1.02-2.86-1.15-3.88-0.64-5.41c0.95-2.8,0.83-12.6-0.25-14.44c-1.27-2.23-1.08-4.77,0.7-8.46
			c4.07-8.65,0.76-14.83-9.54-17.82C269.72,54.87,231.15,54.62,228.35,55.76 M63.42,59.45c4.52,3.05,4.96,7.32,1.02,9.74
			c-2.86,1.78-46.45,2.93-49.57,1.27c-3.82-1.97-3.56-7.83,0.45-10.44C18.81,57.8,60.17,57.29,63.42,59.45 M275.32,61.36
			c4.33,1.78,5.41,7.7,1.91,10.31c-2.16,1.59-44.93,1.65-48.74,0.06c-5.47-2.29-5.47-8.02-0.06-10.82
			C231.09,59.52,271.88,59.96,275.32,61.36 M63.23,79.75c5.35,2.86,5.15,8.97-0.32,10.37c-5.47,1.4-47.02,1.53-48.74,0.13
			c-3.12-2.48-2.67-7.38,0.89-9.93C18.62,77.84,58.64,77.33,63.23,79.75 M275.32,81.41c3.82,1.59,5.22,7.06,2.61,10.37l-1.34,1.65
			l-23.1-0.38c-25.26-0.38-26.09-0.51-28.06-3.44c-1.91-2.8-1.72-4.07,1.02-6.75l2.35-2.35h22.21
			C268.82,80.52,273.66,80.71,275.32,81.41 M61.06,99.35c3.37,0.95,6.17,4.45,5.73,7.13c-0.7,4.45-0.25,4.39-20.62,4.39
			c-9.99,0-20.62,0.32-23.54,0.7c-8.08,1.02-10.82-0.32-10.82-5.22c0-4.2,2.99-6.55,8.97-7C29.12,98.65,58.71,98.72,61.06,99.35
			 M269.52,100.94c6.36,0.45,9.29,2.35,10.12,6.62c0.89,4.77-1.97,6.36-10.05,5.6c-3.18-0.32-13.68-0.45-23.35-0.25
			c-19.66,0.38-19.98,0.32-21.25-3.44c-1.27-3.75,1.15-7.13,5.98-8.27C233.38,100.56,262.02,100.43,269.52,100.94 M63.16,120.29
			c4.01,2.35,4.77,4.58,2.86,8.53c-1.53,3.18-2.99,3.44-22.21,3.18c-9.42-0.13-20.04,0.06-23.67,0.32l-6.49,0.51l-0.89-2.16
			c-1.21-2.93-1.15-5.15,0.19-7.7c2.16-4.14,2.74-4.26,26.41-4.26h21.19L63.16,120.29 M276.33,122.07
			c6.3,4.71,3.18,13.49-4.33,12.41c-1.85-0.25-12.34-0.51-23.42-0.51c-19.28-0.06-20.17-0.06-21.64-1.27
			c-4.52-3.56-2.55-10.5,3.31-11.64C235.42,119.97,274.74,120.86,276.33,122.07"/>
	</g>
</g>
<g>
	<g>
		<path class="st3" d="M1139.46,237.28c-24.86,8.76-35.2,5.19-44.86-15.76c-5.01,0-10.22-0.35-15.36,0.08
			c-8.3,0.69-13.28,8.14-12.76,18.38c0.36,6.9,6.71,12.54,14.26,12.56c2.5,0,5.07,0.08,7.48-0.46c2.36-0.53,4.56-1.81,7.23-2.92
			c0,2.34,0,4.39,0,6.38c-8.95,6.05-19.91,5.17-28.56-0.94c-6.56-4.64-10.53-15.15-8.35-22.2c5.03-16.26,17.73-18.67,32.45-17.23
			c1.68-5.22-2.01-7.55-5.02-9.3c-7.53-4.38-14.11-1.02-20.33,3.62c-1.93,0.15-2.55-1.95-5.09-2.25
			c5.73-6.61,12.09-10.22,19.97-9.64c7.74,0.57,13.84,4.17,16.59,12.15c1.67,4.85,3.69,9.58,5.73,14.29
			c2.82,6.51,7.58,10.25,14.98,10.43c16.63,0.42,17.64-0.48,17.64-17.07c0-4.68,0-9.37,0-13.98c2.25-1.34,4.22-2.6,7.38-2
			c0,5.69,0,11.49,0,17.29c0,1.84-0.16,3.7,0.02,5.53c0.81,8.37,3.08,10.4,11.36,10.33c3.19-0.03,6.38,0.02,9.56-0.16
			c5.26-0.29,7.88-2.84,7.93-8.18c0.13-13.58,0.04-27.16,0.04-40.86c2.64-1.17,4.8-2.74,8.23-2.2c0,9.11-0.01,18.26,0,27.42
			c0,5.2,0.01,10.4,0.05,15.6c0.03,4.76,2.71,7.98,7.14,8.09c15.58,0.36,31.17,0.17,46.76,0.16c0.28,0,0.55-0.31,1.15-0.67
			c0.04-5.12,0.79-10.45-0.73-15.67c-3.19-10.92-15.07-14.72-24.26-7.8c-1.32,1-2.59,2.06-3.87,3.09c-2.19-1.15-3.49-2.87-4.88-4.49
			c9.79-11.19,28.44-11.38,36.21-1.14c4,5.27,5.04,11.41,5.74,17.66c0.31,2.79,0.05,5.64,0.05,8.94c6.57,0,12.74,0.38,18.83-0.13
			c4.47-0.37,6.6-4.1,6.65-10.26c0.09-11.24,0.03-22.47,0.03-33.71c0-1.66,0-3.32,0-5.11c2.5-0.91,4.51-2.57,7.8-1.94
			c0,9.58,0,19.23,0,28.88c0,4.03,0.02,8.05-0.01,12.08c-0.06,10.11-6.64,17.14-16.79,17.21c-23.65,0.18-47.3,0.06-70.94,0.08
			c-4.86,0-8.76-2.89-12.91-4.43C1166.06,243.11,1149.71,243.38,1139.46,237.28z"/>
		<path class="st4" d="M857.9,203.27c2.54-0.95,4.33-2.23,6.55-2.05c2.08,1.3,1.36,3.32,1.39,5.07c0.09,6.87,0,13.75,0.16,20.62
			c0.12,4.88,2.5,7.27,7.43,7.53c3.68,0.2,7.37,0.12,11.06,0.07c7.16-0.11,9.91-2.75,10-10.04c0.14-11.23,0.06-22.46,0.1-33.7
			c0.01-1.99-0.37-4.05,1-6.04c1.85-0.52,3.58-2.11,6.66-1.41c0,2.58,0,5.32,0,8.07c0.01,10.9-0.05,21.8,0.08,32.69
			c0.09,7.5,2.92,10.24,10.36,10.38c4.15,0.08,8.3,0.01,12.68,0.01c0-4.56-0.1-8.7,0.02-12.84c0.19-6.49,5.15-11.39,11.42-11.45
			c6.37-0.06,11.39,4.53,11.91,10.93c0.35,4.33-0.06,8.6-1.61,12.75c2.99,1.03,5.43,0.71,8.23,0.36c0-6.51,0.76-13.09-0.19-19.4
			c-1.16-7.67-6.34-11.15-14.72-11.4c-5.51-0.17-11.02-0.03-17.25-0.03c2.96-4.2,5.97-6.72,10.82-6.5
			c4.84,0.22,9.77-0.42,14.48,0.96c8.11,2.37,12.73,7.79,14.31,16.22c1.68,8.97,0.61,17.91,1.24,27.39c-8.7,0-16.71,0.01-24.71,0
			c-8.89-0.01-18.05,1.35-26.58-0.4c-9.64-1.98-18.51-1.88-28.09,0.07c-7.67,1.56-16.1,1.38-22.71-4.68
			c-6.48,4.74-13.21,5.09-20.16,5.08c-6.82-0.01-13.34-0.36-18.17-5.88c-4.87,3.04-8.85,5.99-14.27,5.82
			c-9.62-0.3-16.53-6.65-16.75-16.2c-0.12-5.46-1.01-11.05,1.73-16.25c2.29-4.36,5.61-7.61,10.54-8.32
			c7.44-1.07,14.94-0.74,23.04-0.47c0,8.15-0.06,15.81,0.02,23.47c0.08,8.34,2.54,10.78,10.72,10.85c3.02,0.03,6.04,0.03,9.05-0.01
			c7.43-0.09,10.11-2.75,10.21-10.33C857.97,217.35,857.9,210.48,857.9,203.27z M819.36,207.55c-15.68-2.57-21.08,2.67-18.84,17.31
			c0.12,0.82,0.49,1.6,0.64,2.41c0.94,5.1,4.43,6.78,9.11,6.73c4.58-0.04,7.65-2.14,8.48-6.83
			C819.89,220.72,819.46,214.24,819.36,207.55z M942.67,223.77c-0.02-0.34,0.05-1.53-0.21-2.65c-0.66-2.75-1.98-4.95-5.22-5.11
			c-3.37-0.17-4.66,2.07-5.39,4.8c-0.34,1.26-0.46,2.61-0.46,3.92c-0.02,5.8,1.98,9.21,5.39,9.34
			C940.32,234.21,942.63,230.51,942.67,223.77z"/>
		<path class="st3" d="M1432.3,234.47c6.84,0,13.35,0.23,19.84-0.08c4.27-0.21,6.58-3.13,6.75-7.32c0.25-6.19,0.19-12.4,0.31-18.59
			c0.04-1.81-0.48-3.72,0.98-5.58c1.8-0.98,3.8-2.17,6.7-1.58c0,8.62,0.44,17.33-0.13,25.97c-0.53,8.03-7.61,14-16.29,14.06
			c-24.98,0.17-49.96,0.18-74.94,0.03c-7.86-0.05-12.28-4.81-12.31-12.51c-0.05-14.57-0.01-29.15-0.01-43.92
			c2.34-1,4.41-2.41,7.88-1.68c0,16.63,0,33.26,0,50.61c18.09,0,35.37,0,53.28,0c0.71-6.77,0.33-13.91-2.84-20.39
			c-3.58-7.33-15.09-8.7-22.39-3.17c-1.32,1-2.54,2.14-3.94,3.32c-1.58-1.72-3.01-3.29-4.65-5.09c7.46-7.41,16.7-10.53,26.71-7.09
			C1432.94,206.84,1431.65,221.17,1432.3,234.47z"/>
		<path class="st5" d="M974.71,240.38c1.1-2.01,2.11-3.85,3.27-5.97c2.92,0,5.72,0,9.2,0c0-15.52,0-30.67,0-45.83
			c2.75-0.94,4.89-1.67,7.3-2.49c2,16.14,0.17,32.14,1.42,47.95c10.21,1.09,12.89-1.16,12.98-10.87
			c0.11-11.06,0.32-22.13,0.01-33.19c-0.15-5.3,1.56-7.88,7.05-7.5c1.63,1.45,0.91,3.42,0.92,5.16c0.06,11.9,0.01,23.8,0.02,35.7
			c0.01,11.15-6.84,18.07-18.03,18.1c-7.54,0.02-15.08-0.04-22.63-0.1C975.97,241.35,975.69,241.02,974.71,240.38z"/>
		<path class="st6" d="M565.03,209.92c0,9.4,0,18.59,0,28.27c7.15,0.86,14.13,1.04,20.94-0.27c4.63-0.89,7.26-4.41,7.27-9.43
			c0.03-7.71,0.06-15.42,0.11-23.13c0.01-2.19-0.2-4.63,3.83-4.05c0,8.3-0.09,16.63,0.03,24.95c0.13,8.88,3.66,12.22,12.63,12.28
			c0.67,0,1.34,0,2.01,0c10.64,0.01,14.27-3.64,14.57-14.4c0.12-4.13-0.33-8.23,1.35-12.33c2.79-6.8,6.52-9.62,14.05-9.52
			c6.88,0.09,11.97,3.6,13.71,10.17c1.64,6.2,1.8,12.61-0.12,18.8c-3.22,10.33-15.85,13.59-23.87,6.32
			c-0.85-0.77-1.23-2.06-3.39-2.37c-4.36,3.25-9.26,6.59-15.91,6.38c-6.43-0.21-12.21-1.16-16.66-7.24
			c-8.36,10.58-19.74,5.93-29.73,7.35c-5.81,15.88-11.38,19.68-28.29,17.66c-9.24-1.11-15.65-6.24-17.82-18.07
			c-2.41-13.16-2.26-13.19,2.15-15.13c0,4.61-0.65,9.01,0.12,13.14c2.7,14.49,11.08,18.54,26.65,17
			c11.51-1.14,13.08-7.65,13.18-15.83c0.1-8.71,0-17.43,0.05-26.14C561.9,212.45,561.17,210.01,565.03,209.92z M652.9,221.75
			c-0.08-3.68-0.32-7.32-1.92-10.75c-1.84-3.97-5.15-5.51-9.24-5.71c-4.18-0.2-7.64,1.34-9.53,5.17
			c-3.53,7.14-3.47,14.52-0.48,21.79c1.89,4.58,5.89,6.3,10.58,5.97c4.74-0.33,8.07-2.8,9.49-7.56
			C652.67,227.74,652.85,224.76,652.9,221.75z"/>
		<path class="st7" d="M670.68,232.42c0.18,2.57,1.75,4.24,4.24,6.05c4.62,0,9.82,0.29,14.97-0.08c5.46-0.4,8.95-4.48,9.04-10.05
			c0.12-7.71,0.1-15.42,0.1-23.13c0-2.36,0.04-4.54,3.89-3.9c0,8.46-0.12,16.97,0.04,25.47c0.16,8.27,3.8,11.75,12.1,11.75
			c5.56,0,11.59,1.18,14.95-5.31c1.62-3.14,1.47-6.49,1.49-9.79c0.08-11.73-0.03-23.47,0.09-35.2c0.02-1.94-0.94-4.81,2.49-5.32
			c1.54,1.39,0.9,2.99,0.91,4.38c0.06,12.74,0.01,25.48,0.08,38.22c0.06,9.26,3.87,12.98,13.12,13.04
			c5.81,0.04,12.01,0.91,15.12-5.81c1.47-3.17,1.89-6.68,1.9-10.18c0.03-11.57-0.01-23.14,0.05-34.7c0.01-1.59-0.57-3.33,0.61-4.81
			c2.41-0.33,2.34,1.37,2.33,2.86c-0.14,14.37-0.14,28.75-0.57,43.12c-0.15,4.93-2.87,8.84-7.73,10.64
			c-9.6,3.54-18.59,2.9-26.2-4.49c-13.48,8.86-21.12,8.86-32.18,0.17c-2.52-0.03-3.32,2.57-5.21,3.54
			c-7.59,3.87-15.49,3.28-23.36,1.35c-2.5-0.61-4.16-2.69-4.31-5.54c0.04-17.18,0.07-34.36,0.11-51.54c0.32-0.07,0.64-0.13,0.96-0.2
			c0.01,14.74,0,29.48,0.07,44.21C669.77,228.94,669.12,230.9,670.68,232.42z"/>
		<path class="st8" d="M1323.5,212.12c-0.87-7.3,4.07-12.09,12.35-11.75c8.15,0.33,17.26,4.33,17.21,16.59
			c-0.03,7.38,0.04,14.75,0.05,22.13c0,0.48-0.2,0.96-0.4,1.9c-11.23,0-22.53,0-34.07,0c1.33-4.34,3.75-6.79,8.89-6.46
			c5.65,0.36,11.34,0.08,17.49,0.08c0-7.53,0.35-14.69-0.14-21.79c-0.26-3.76-3.68-5.34-7.24-5.81
			C1332.19,206.29,1327.46,207.89,1323.5,212.12z"/>
		<path class="st9" d="M435.24,240.53c-1.43,1.26-3.18,0.86-4.81,0.86c-19.6,0.03-39.21,0.06-58.81,0.02
			c-7.61-0.01-10.93-3.34-10.95-10.93c-0.04-14.58-0.04-29.16,0.03-43.73c0.01-1.44-0.95-3.48,2.92-4.53c0,6.57,0,12.77,0,18.96
			c0,9.72-0.05,19.44,0.02,29.16c0.04,6.56,1.77,8.2,8.38,8.23c6.16,0.03,12.31,0.01,19,0.01c0-7.64-0.06-14.8,0.02-21.95
			c0.09-7.93,5.3-14.57,12.85-16.24c4.45-0.99,8.52-0.15,11.82,3.28c-1.28,1.84-2.26,1.17-3.85,0.42
			c-8.37-3.97-16.7,1.14-16.93,10.33c-0.18,7.03-0.04,14.07-0.07,21.11c-0.01,1.54-0.08,3.05,1.63,3.83
			c11.2,0.04,22.4,0.06,33.59,0.16C431.81,239.53,433.78,238.82,435.24,240.53z"/>
		<path class="st6" d="M323.44,255.63c15.98,3.92,23.28-2.6,22.75-17.02c-2.03-0.95-3.47,0.52-5.08,1.25
			c-9.86,4.44-19.49-0.96-21.03-11.66c-0.63-4.34-0.61-8.61-0.03-12.95c1.08-8.09,6.19-13.22,13.93-13.74
			c6.68-0.44,14.75,4.85,15.44,11.73c1.18,11.88,1.98,24.04-1.52,35.64C344.71,259.47,331.01,263.21,323.44,255.63z M346.74,221.26
			c0.25-2.73-0.3-5.88-1.32-8.89c-1.66-4.91-5.44-7.33-10.67-7.46c-5.26-0.14-8.54,2.48-10.25,7.17
			c-2.32,6.35-2.13,12.83,0.02,19.17c1.83,5.4,7.37,8.17,12.89,6.83C343.63,236.55,346.78,231.06,346.74,221.26z"/>
		<path class="st10" d="M1285.14,184.55c2.42-0.17,4.4-2.46,7.15-1.23c0,19.19,0,38.38,0,57.52c-2.44,0.98-4.58,0.62-7.15,0.37
			C1285.14,222.51,1285.14,203.83,1285.14,184.55z"/>
		<path class="st11" d="M435.24,240.53c-1.45-1.7-3.43-1-5.18-1.01c-11.2-0.1-22.39-0.12-33.59-0.16c4.22-1.66,8.61-0.61,12.92-0.74
			c6.03-0.19,12.06-0.2,18.09-0.04c14.45,0.39,14.8-4.74,15.66-15.18c0.49-5.99,0.1-12.06,0.14-18.09c0.01-1.73-0.58-3.83,3.02-4.29
			c0,5.72,0,11.29,0,16.85c0,2.68-0.02,5.36,0.05,8.04c0.21,8.86,4.05,12.57,13.05,12.64c2.18,0.02,4.37,0.1,6.53-0.07
			c5.95-0.47,9.25-4.01,9.68-10c0.86-11.85,1.2-23.69,0.29-35.56c-0.2-2.63,0.34-5.31,0.45-7.98c0.08-1.89,1.07-2.23,3.06-1.72
			c0,15.27,0.34,30.64-0.19,45.99c-0.18,5.13-3.83,9.48-9.07,10.97c-8.83,2.52-17.49,2.74-24.63-5
			C441.78,236.34,439.6,240.65,435.24,240.53z"/>
		<path class="st3" d="M310.31,201.11c0,9.28,0.3,18.32-0.1,27.32c-0.3,6.73-6.74,12.33-13.79,12.96c-1.64,0.15-3.36-0.3-4.92,0.58
			c-1.42,1.74-0.64,3.91-1.2,5.82c-1.92,6.6-7.04,9.55-13.08,10.95c-10,2.33-21.86,0.74-27.49-9.58
			c-4.24-7.76-3.21-25.34,3.11-31.77c-2.68,7.27-2.94,13.51-2.87,19.81c0.08,8.06,3.07,14.88,10.53,17.81
			c8.05,3.16,16.42,2.2,23.61-3.4c3.05-2.38,3.69-5.75,3.31-9.69c-4.77-1.17-10.34-1.48-11.01-8.48c5.69,7.38,13.56,5.01,20.78,4.98
			c4.94-0.02,8.48-3.92,9.31-8.76c1.41-8.15,0.5-16.34,0.87-24.51C307.44,203.61,306.38,201.18,310.31,201.11z"/>
		<path class="st8" d="M1476.97,184.72c2.13-0.69,3.92-2.12,6.59-1.54c0,19.1,0,38.24,0,57.48c-1.94,1.4-4.12,0.61-6.59,0.67
			C1476.97,222.56,1476.97,203.88,1476.97,184.72z"/>
		<path class="st12" d="M1033.13,241.16c-2.34,0.36-4.29,0.55-6.63-0.32c0-18.52,0-37.13,0-56.02c1.95-0.79,3.96-1.84,6.63-1.81
			C1033.13,202.46,1033.13,221.61,1033.13,241.16z"/>
		<path class="st13" d="M492.23,182.76c0,19.78,0,39.14,0,59.11C488.57,238.25,488.84,185.54,492.23,182.76z"/>
		<path class="st13" d="M668.74,183.16c-0.04,17.18-0.07,34.36-0.11,51.54c-1.28-1.18-0.98-2.77-0.99-4.21
			c-0.04-14.83-0.04-29.65,0.01-44.48C667.65,185.02,666.99,183.57,668.74,183.16z"/>
		<path class="st13" d="M670.68,232.42c-1.55-1.53-0.9-3.48-0.91-5.25c-0.06-14.74-0.06-29.48-0.07-44.21
			c1.79-0.33,1.14,1.13,1.14,1.78C670.82,200.64,670.74,216.53,670.68,232.42z"/>
		<path class="st14" d="M1086.48,236.69c-0.24,0.53-0.44,1.17-0.8,1.71c-0.45,0.68-1.03,1.27-1.47,1.8
			c-3.12,0.97-4.93-0.22-5.92-2.87c-0.03-1.72,0.89-2.88,1.64-4.02C1083.44,231.92,1085.39,233.33,1086.48,236.69z"/>
		<path class="st10" d="M1460.56,189.66c-2.02-3.1-1.57-5.43,1.54-7.22c1.73-0.22,3.18,0.41,4.43,1.52
			C1467.33,189.66,1466.48,190.51,1460.56,189.66z"/>
		<path class="st15" d="M1476.87,252.57c2.32-2.32,4.15-4.43,7.37-1.68c-1.31,1.53-3.55,0.06-4.12,1.2c-1.4,1.78-1.37,3.22-0.88,4.7
			c1.99,1.4,4.7-0.27,7.63,2.35c-5.16,0.93-9.38,0.49-13.61,0.4c-0.12-2.41,2.29-1.86,3.15-3.37
			C1476.54,255.15,1476.71,253.85,1476.87,252.57z"/>
		<path class="st11" d="M1137.25,255.44c-0.95,2.15-2.36,3.42-4.22,4.22c-2.72-0.8-4.31-2.45-3.9-5.09
			c0.42-2.72,2.36-3.88,5.51-3.16C1136.28,252.08,1136.65,253.89,1137.25,255.44z"/>
		<path class="st6" d="M1149.8,255.44c-0.67,1.9-1.98,3.09-3.54,4.05c-2.09,0.03-3.29-1.33-4.43-2.59c-0.87-2.92,0.46-4.85,2.91-5.5
			C1147.86,250.58,1149.06,252.9,1149.8,255.44z"/>
		<path class="st7" d="M1448.77,189.99c-1.63-1.51-2.65-2.96-1.91-5.42c2.9-3.35,5.51-2.5,7.95,0.89
			C1454.35,189.22,1452.51,190.73,1448.77,189.99z"/>
		<path class="st10" d="M1224.51,186.73c-1.35,3.24-3.44,4.37-6.1,2.87c-2.69-1.52-2.64-3.89-0.78-6.26
			C1221.14,181.89,1223.66,182.45,1224.51,186.73z"/>
		<path class="st16" d="M810.63,185.66c-0.42,3.22-1.97,4.76-5.19,4.45c-1.95-0.7-2.95-2.31-3.38-4.41
			C805.19,181.87,806.95,181.81,810.63,185.66z"/>
		<path class="st17" d="M855.41,259.42c-5.05-2.94-5.12-4.56-0.36-8.08c3.02-0.39,3.87,1.87,4.97,3.91
			C859.26,257.41,857.8,258.6,855.41,259.42z"/>
		<path class="st18" d="M867.39,251.25c2.06-0.16,3.26,0.97,4.44,2.19c0.93,3.35-1.34,4.72-3.5,6.11c-2.24-0.45-3.16-2.07-4.3-3.6
			C864.24,253.68,865.19,251.95,867.39,251.25z"/>
		<path class="st19" d="M668.09,174.34c2.33,1.8,4.9,0,7.56,1.87c-4.56,1.79-8.54,0.52-12.66,0.88c7.43-9.24,7.43-9.24,10.76-8.46
			c-0.83,2.55-3.33,0.61-4.05,1.31C667.79,171.45,667.75,172.88,668.09,174.34z"/>
		<path class="st20" d="M816.62,183.52c1.42-0.93,2.89-0.69,4.4-0.37c1.1,1.01,2.12,2.08,1.85,4.02c-0.97,2.22-2.66,3.95-5.29,2.55
			C814.92,188.3,814.53,185.94,816.62,183.52z"/>
		<path class="st21" d="M706.35,186.87c-2.6-1.83-3.44-3.29-0.26-4.84C708.93,183.36,708.36,184.89,706.35,186.87z"/>
		<path class="st22" d="M694.83,186.6c-1.44-1.93-1.21-3.27,0.35-4.45C698.56,184.25,698.56,184.25,694.83,186.6z"/>
		<path class="st23" d="M543.97,212.98c-1.4,3.33-2.94,3.46-4.99,0.97C540.03,211.24,541.57,211.15,543.97,212.98z"/>
		<path class="st14" d="M439.17,182.06c3.17,1.41,2.49,2.84,0.57,4.93C437.44,184.34,437.44,184.34,439.17,182.06z"/>
		<path class="st24" d="M589.81,259.52c-1.73-3.76-1.73-3.76,2.38-3.75C593.03,257.86,592.48,259.13,589.81,259.52z"/>
		<path class="st25" d="M261.21,272.24c0.53-1.47,1.26-2.25,2.48-2.56c1.32,0.62,2.29,1.6,1.32,3
			C263.81,274.41,262.53,273.37,261.21,272.24z"/>
		<path class="st11" d="M299.4,181.91c2.76,1.84,2.28,3.16,0.05,4.59C296.95,185.12,296.59,183.78,299.4,181.91z"/>
		<path class="st11" d="M271.78,271.8c1.45-2.35,2.76-3.2,4.59-0.18C274.97,274.22,273.6,274.26,271.78,271.8z"/>
		<path class="st10" d="M600.24,259.42c-1.31-1.42-1.51-2.76-0.27-3.68c0.94-0.69,2.21-0.52,3.03,0.9
			C603.09,258.3,602.07,259.08,600.24,259.42z"/>
		<path class="st8" d="M449.11,186.35c-0.59-2.1-0.59-2.1,0.46-3.98C452.09,184.75,452.09,184.75,449.11,186.35z"/>
	</g>
</g>
<g>
</g>
<g>
</g>
<g>
</g>
<g>
</g>
<g>
</g>
<g>
</g>
<g>
</g>
<g>
</g>
<g>
</g>
<g>
</g>
<g>
</g>
<g>
</g>
<g>
</g>
<g>
</g>
<g>
</g>
</svg>
