<?xml version="1.0" encoding="utf-8"?>
<!-- Generator: Adobe Illustrator 25.2.0, SVG Export Plug-In . SVG Version: 6.00 Build 0)  -->
<svg version="1.1" id="Layer_1" xmlns="http://www.w3.org/2000/svg" xmlns:xlink="http://www.w3.org/1999/xlink" x="0px" y="0px"
	 viewBox="0 0 591.6 197.4" style="enable-background:new 0 0 591.6 197.4;" xml:space="preserve">
<style type="text/css">
	.st0{fill:#FFFFFF;}
</style>
<g>
	<path class="st0" d="M16.7,140c-0.8-3-2.3-6.5-6.4-6.5c-2.8-0.2-5.1,1.9-5.3,4.7c0,0.1,0,0.3,0,0.4c0,3.3,2.2,4.9,6.2,6.9
		c4.1,2,8.4,4.2,8.4,9.5c0,5.2-4.3,9.2-10.9,9.2c-1.6,0-3.2-0.3-4.8-0.8c-0.8-0.3-1.6-0.6-2.4-1c-0.6-2.5-1-5-1.3-7.6l1.5-0.4
		c0.8,3,3.1,8,8.1,8c3.5,0,5.6-2.1,5.6-5.6c0-3.4-2.6-5-6.3-7c-3.3-1.7-8-4-8-9.3c0-4.7,3.8-8.7,10.1-8.7c2.1,0,4.2,0.4,6.3,1.1
		c0.2,1.7,0.4,3.6,0.8,6.8"/>
	<path class="st0" d="M136.5,78.1c0,1.2-0.1,2.4-0.4,3.6c-0.4,2.2-0.8,3.4-1.1,3.4c-0.3,0-0.3-0.5-0.4-1.4c-0.1-2-0.2-3.1-0.2-3.3
		c-0.5-4.8-1.7-13.1-3.7-24.6c-0.6-3.2-1.3-8-2.2-14.3c-0.5-0.4-0.7-0.7-0.6-0.9c0.2-0.6,0.5-1.4,1-2.5c0.4-0.9,0.6-1.4,0.7-1.4
		c0.1,0,0.9,1.5,2.3,4.5c1.5,3.3,2.2,5.1,2,5.2c-0.2,0.1-0.6-0.1-1.2-0.8c-0.2-0.2-0.6-0.7-1.4-1.4c0.9,4.8,2.2,12.4,3.9,23
		C135.9,70.7,136.3,74.5,136.5,78.1"/>
	<path class="st0" d="M64.3,80.3c0.1,2-0.5,3.9-1.7,5.6c-0.9,0.9-4.1,3.1-9.8,6.5C46.3,96.2,42.2,98,40.4,98c-2.4,0-3.6-1.5-3.6-4.5
		c0-2.9,0.7-5.9,1.9-8.5c0.6-1.4,1-2.2,1.3-2.1c0.3,0.1,0.2,0.9-0.6,2.7c-0.7,1.5-1,3.2-1.1,4.9c0,2.1,0.9,3.2,2.8,3.2
		c1.9,0,5.7-1.7,11.5-5.1c7.1-4,10.7-6.4,10.7-6.8c0-0.9-1.2-2-3.5-3.3l-5.4-2.7c-2.9-1.5-5.6-3.6-7.7-6.4c-0.1,0-0.3-0.2-0.5-0.5
		c0-0.1,0-0.8,0-2.1c-0.1-0.7,0-1.3,0.1-2c0.3,0,1.3,0.4,2.9,1.4c1.6,1,2.4,1.6,2.3,1.8c-0.1,0.2-0.6,0.3-1.6,0.3
		c2.2,1.9,4.7,3.5,7.5,4.8c1.9,0.8,3.7,1.8,5.4,2.9C63.8,77.3,64.4,78.8,64.3,80.3"/>
	<path class="st0" d="M9.3,70.9C8.8,72.7,8,73.5,7,73.5c-0.5,0-1.1-0.2-1.3-0.7c-0.6-1-0.9-2.1-0.9-3.2s0.2-2.3,0.4-3.4
		c0.4-2,1-4.1,1.8-6.1c0.3-0.8,0.6-1.2,0.8-1.2c0.2,0,0.1,0.1,0.1,0.3c0,0.4-0.1,0.8-0.3,1.2c-0.3,1.1-0.9,3.1-1.5,6.2
		c-0.3,1.3-0.3,2.6,0.2,3.8c0.2,0.5,0.7,0.9,1.3,0.9c0.3,0,0.6-0.1,0.8-0.4C8.5,70.7,8.7,70.4,9,70c0.3-0.4,0.2-0.5,0.3-0.5
		C9.5,69.4,9.6,69.9,9.3,70.9 M43.3,61.2c0,0.7-0.2,1.4-0.4,2c-0.3,0.7-0.5,1.1-0.7,1.1s-0.4-0.4-1-1.1s-1-1.1-1.4-1.1
		c-1.2,0-3,1.2-5.4,3.6c-2.4,2.4-3.7,4.2-3.7,5.4c0,0.6,0.6,1.2,1.8,1.8c0.9,0.5,1.9,0.8,3,0.9c1.9,0.1,3.8,0.5,5.6,1.2
		c0.9,0.5,1.4,1.4,1.4,2.3c0.1,1.8-0.5,3.6-1.6,5c-1.7,2.1-5,4.3-9.9,6.7c-5.3,2.4-10,3.7-13.9,3.7c-5.1,0-8.6-2.2-10.5-6.8
		c-1-2.9-1.1-6.1-0.3-9.1c0.5-2,1.1-3.9,2-5.9c0.6-1.2,1-1.8,1.2-1.7s0.1,0.7-0.3,2c-0.9,2.2-1.4,4.6-1.6,7.1c-0.1,2.5,0.8,5,2.5,7
		c1.9,2.1,4.6,3.1,8.3,3.1c3.5-0.1,7.1-0.8,10.3-2.2c2.9-1.1,5.8-2.5,8.5-4.1c2.3-1.4,3.5-2.2,3.5-2.5c0-0.7-1-1.2-3.1-1.4
		c-5.8-0.7-8.7-2.3-8.7-4.8c0-3,1.5-6.4,4.5-10.1c2.9-3.5,5.3-5.3,7.5-5.3c0.8,0,1.5,0.4,1.9,1C43,59.7,43.3,60.5,43.3,61.2
		 M31.1,95.6l-1.9,3.5l-4-2.3l-1.6,2.9l-4-2.4l1.9-3.5l3.9,2.3l1.6-2.9L31.1,95.6"/>
	<path class="st0" d="M72.3,78.2c-1.2-0.1-1.9-0.4-1.9-0.9c0-0.3,0.2-0.5,0.5-0.7c0.2-0.2,0.5-0.3,0.8-0.3c1.1,0.2,2.2,0.9,2.8,1.8
		C73.8,78.2,73,78.2,72.3,78.2 M124.5,61.3c-1.1-6.2-2.2-12.3-3.2-18.4l1.4,1.4c0.7,0.6,1.1,0.9,1.2,0.8c0,0,0.1-0.1,0.1-0.2
		c-0.5-1.7-1.2-3.4-2-5.1c-1.3-3-2.1-4.5-2.3-4.5c-0.1,0-0.4,0.5-0.7,1.4c-0.4,1.1-0.7,2-1,2.6c-0.1,0.2,0.1,0.5,0.7,0.8
		c0.9,6.4,1.6,11.2,2.1,14.4c2.4,13.6,3.6,21.8,3.6,24.6c0,0.3-0.4,0.7-1.3,1.2c-0.7,0.4-1.5,0.7-2.3,0.7c-0.2,0-0.4,0-0.6,0
		c-0.8-0.1-1.6-0.4-2.3-0.9c-0.4-0.2-0.7-0.6-1-0.9c-0.3-0.4-0.4-0.9-0.3-1.4c0-0.2,0-0.4,0-0.6c0-0.2,0-0.5,0-0.7
		c-0.3-0.1-0.7,0.4-1.3,1.4c-0.3,0.7-0.7,1.4-1,2c-0.6,0.8-1.6,1.2-2.6,1.1c-1.4,0-2.2-0.5-2.4-1.5c0.1-0.7,0.3-1.4,0.3-2.1
		c0.1-0.4,0.1-0.6-0.1-0.6c-0.2,0-0.6,0.3-1.2,1.1c-0.6,0.8-0.9,1.4-1.3,1.8c-0.1,0.1-0.3,0.2-0.4,0.4c-1.1,1-2.4,1.7-3.8,1.9
		c-0.2,0-0.5,0.1-0.6,0.4h-0.1c-0.2-0.3-0.5-0.4-0.9-0.5l-0.3-0.1c-1-0.4-1.6-1.4-1.6-2.4c0-0.5,0.1-1,0.1-1.5
		c0.1-0.4,0-0.6-0.1-0.6s-0.5,0.1-0.9,0.5l-1.4,1.5l-0.6,0.7c-0.3,0.2-0.5,0.5-0.8,0.7c-0.3,0.2-0.4,0.4-0.6,0.5
		c-0.4,0.3-0.8,0.5-1.1,0.8c-0.3,0.1-0.5,0.3-0.8,0.3c-0.7,0.2-1.5,0.3-2.3,0.3c-0.5,0-0.9,0-1.4-0.1c-0.8-0.1-1.5-0.8-1.6-1.7
		c0-0.5,0-1.1,0.1-1.6c0.2-0.8,0.3-1.6,0.5-2.3c0.1-0.4,0.2-0.7,0.4-1.1c0.8-0.4,1.6-0.8,2.4-1.1c1-0.4,2-0.8,3-1.2
		c0.7-0.3,1.3-0.7,1.9-1.1c0.2-0.2,0.3-0.4,0.4-0.6c0.5-0.8,0.9-1.7,1.1-2.6c-2,0.7-3.8,1.7-5.9,2.3c-0.9,0.4-1.8,0.7-2.8,0.9h-0.1
		c-1.1,0.3-2.3,0.2-3.4-0.1c-2.3-0.8-4.2-2.4-5.3-4.5c-0.1-0.2-0.3-0.5-0.4-0.7c-0.3-0.7-0.8-1.7,0-2.3c2.4-1.5,5.3-1.6,8.2-1.9
		c1.9-0.2,3.7,0.6,5.7,0.6c-1.8-1.8-4.2-2.9-6.8-3.2c-2.3-0.3-5,0-6.8,1.7c-1.4,1.2-2.3,3-2.4,4.9c0,0.3,0,0.6,0,0.9
		c0.1,0.8,0.4,1.6,0.7,2.4c0.2,0.5,0.4,0.9,0.6,1.3c0.4,0.8,1,1.5,1.6,2.1c0.7,0.6,1.4,1,2,1.6c-1.4,0.7-2.8,1.3-4.2,1.8
		c-0.3-0.6-0.6-1.2-1-1.7c-1.3-1.9-2.6-2.9-4-3c-1.4,0-2.8,0.8-3.5,2c-0.8,1.1-1.3,2.5-1.3,3.9c0,2.3,1.4,3.4,4.2,3.4
		c1.6,0.1,3.2-0.2,4.7-0.6c0.3,0.5,0.5,1.1,0.5,1.7c0,1.1-1.9,2.9-5.7,5.8c-4.1,3-7.6,4.6-10.5,4.6c-1.8,0.1-3.5-0.6-4.7-2
		c-1.2-1.4-1.8-3.2-1.7-5c0-1.2,0.2-2.4,0.4-3.6c0.3-1.2,0.4-1.8,0.4-1.8s0-0.2-0.1-0.2c-0.3-0.1-0.7,0.8-1.2,2.5
		c-0.6,1.8-0.8,3.6-0.9,5.6c-0.1,2.1,0.5,4.3,1.8,6.1c1.3,1.7,3.4,2.6,5.7,2.5c2.6,0,5.8-1.3,9.3-3.8c2.7-1.8,5.1-4.1,7.1-6.9
		c1-1.8,1.5-3.8,1.4-5.9c3.1-1,6.1-2.4,8.7-4.2c-0.9,2.3-1.2,4.7-0.9,7.3c0.2,1.1,1,2,2.1,2.4c1.6,0.4,3.2,0.2,4.6-0.5
		c0.4-0.2,0.7-0.4,1-0.6c1.3-0.8,2.3-1.8,3.1-3.1c0,2.8,1.3,4.1,3.8,4.1c2.5,0,4.6-1.5,6.4-4.4c-0.1,0.8,0.1,1.6,0.6,2.3
		c0.3,0.4,0.7,0.7,1.2,0.9c0.3,0.1,0.5,0.1,0.8,0.1c2.1,0,3.7-1.4,4.7-4.1c0.1,0,0.2,0.3,0.4,0.8l0,0c0.2,0.5,0.5,1,0.8,1.4
		c0.8,1.1,2.1,1.7,3.5,1.7c0,0,0,0,0,0.5l0,0c0-0.5,0-0.5,0-0.5c3,0,4.9-1.6,5.8-4.8c0.5-1.7,0.7-3.5,0.8-5.3
		C125.8,70.1,125.3,65.8,124.5,61.3"/>
	<path class="st0" d="M59.1,57.1c-0.3,1.1-0.8,1.7-1.5,1.7c-0.4,0-0.7-0.1-0.9-0.4c-0.4-0.6-0.6-1.4-0.6-2.1c0-0.8,0.1-1.5,0.3-2.2
		c0.3-1.3,0.7-2.7,1.2-3.9c0.2-0.5,0.4-0.8,0.5-0.8c0.1,0,0.1,0.1,0.1,0.2c0,0.3-0.1,0.5-0.2,0.8c-0.2,0.7-0.6,2-1,4
		c-0.2,0.8-0.2,1.7,0.1,2.5c0.1,0.3,0.5,0.6,0.8,0.6c0.2,0,0.4-0.1,0.6-0.3l0.4-0.6c0.1-0.2,0.2-0.3,0.2-0.3
		C59.3,56.1,59.3,56.5,59.1,57.1"/>
	<path class="st0" d="M53.3,97.5c0.1,0.1,0,0.4-0.1,0.7c-0.1,0.2-0.2,0.4-0.4,0.6l-7.3,2.7c-2.3,0.8-4.5,1.8-6.7,2.9
		c-0.1-0.3-0.1-0.6,0-0.9c0-0.3,0.1-0.5,0.3-0.7C43.8,100.8,48.5,99,53.3,97.5"/>
	<path class="st0" d="M84.5,46.1c0,0.2-0.1,0.4-0.2,0.7c-0.2,0.3-0.3,0.5-0.3,0.5c-0.5-0.1-1-0.2-1.5-0.5c-1.1,1.7-3.3,3.4-6.7,5.3
		c-0.3,0.1-1,0.4-2.1,0.9c-0.6,0.3-1.2,0.5-1.8,0.6c0.5-0.5,1.1-0.8,1.8-1.1c4.2-2.2,7.1-4.2,8.5-5.9c-1.2-0.6-1.9-1.2-1.9-2
		c0.1-0.6,0.4-1.2,0.8-1.7c0.3-0.5,0.9-0.9,1.5-1c0.6,0,0.9,0.7,0.9,2c0,0.5-0.1,1.1-0.3,1.6C84.1,45.8,84.5,46,84.5,46.1
		 M82.7,45.3c0.3-1.3,0.1-1.9-0.6-1.9c-0.7,0-1,0.3-1,0.8C81,44.7,81.5,45,82.7,45.3"/>
	<path class="st0" d="M113.1,52.4c0,0.2-0.1,0.4-0.2,0.6c-0.2,0.3-0.3,0.5-0.3,0.5c-0.5-0.1-1-0.2-1.5-0.5c-1.1,1.7-3.3,3.4-6.7,5.3
		c-0.3,0.1-1,0.4-2.1,0.9c-0.6,0.3-1.2,0.5-1.8,0.6c0.5-0.5,1.1-0.8,1.8-1.1c4.2-2.2,7.1-4.2,8.5-5.9c-1.2-0.6-1.9-1.2-1.9-2
		c0.1-0.6,0.4-1.2,0.8-1.7c0.3-0.5,0.9-0.9,1.5-1c0.6,0,0.9,0.7,0.9,2c0,0.5-0.1,1.1-0.3,1.6C112.6,52,113.1,52.2,113.1,52.4
		 M111.2,51.6c0.3-1.3,0.1-1.9-0.6-1.9c-0.7,0-1,0.3-1,0.8C109.6,50.8,110.1,51.2,111.2,51.6"/>
	<path class="st0" d="M111.1,91.9c0,1-0.4,1.5-1.1,1.5c-0.3,0-0.6-0.1-0.8-0.3c-0.1-0.1-0.2-0.1-0.3,0.1c-0.3,0.5-0.9,0.8-1.5,0.8
		c-0.2,0-0.5-0.1-0.6-0.2c-0.7-0.4-1.5-0.4-2.2,0c-0.7,0.5-1.3,1-1.9,1.6l-1.5,1.3c-0.9,0.7-1.9,1.3-3,1.7c-0.6,0.3-1.2,0.5-1.9,0.6
		c-0.1,0-0.1,0-0.1-0.1c0.1-0.1,0.3-0.2,0.5-0.3c0.6-0.2,1.2-0.5,1.8-0.8c1.4-0.8,2.6-1.7,3.7-2.8c0.8-0.9,1.8-1.7,2.8-2.2
		c0.5-0.4,1.2-0.4,1.8-0.1c0.2,0.2,0.5,0.3,0.7,0.3c0.7,0,1.3-0.4,1.5-1.1c0.1-0.4,0.3-0.7,0.5-0.7c0.1,0,0.1,0.1,0,0.2
		c-0.1,0.3-0.1,0.5,0,0.6c0.2,0.3,0.6,0.4,0.9,0.2c0.3-0.1,0.3-0.2,0.1-0.4c-0.2-0.2-0.2-0.2-0.1-0.4c0.2-0.4,0.3-0.6,0.3-0.6
		C111,90.8,111.1,91.2,111.1,91.9"/>
	<path class="st0" d="M30.5,51.3c0,1.2-0.3,2.4-1,3.5c-0.4,0.8-1.1,1.3-2,1.4c-0.4,0-0.8-0.2-1-0.5c-0.7,0.9-1.7,1.4-2.8,1.6
		c-1.2,0-1.8-0.7-1.8-2.1c0.1-0.8,0.3-1.6,0.6-2.3c0.4-1,0.7-1.6,1-1.6s0.3,0.2,0.2,0.6c-0.1,0.9-0.2,1.4-0.2,1.4
		c0,0.3,0.2,0.5,0.7,0.5c0.8,0,1.5-0.5,1.9-1.1c0.3-0.3,0.6-0.7,0.8-1.1c0.2,0,0.4,0.2,0.5,0.6c0.1,0.4,0.2,0.6,0.4,0.6
		c0.7,0,1.3-0.5,1.5-1.1c0.2-0.4,0.4-0.8,0.6-1.1C30.3,50.6,30.5,50.8,30.5,51.3"/>
	<path class="st0" d="M112.9,62.2c0,1.2-0.3,2.4-1,3.5c-0.4,0.8-1.1,1.3-2,1.4c-0.4,0-0.8-0.2-1-0.5c-0.7,0.9-1.7,1.4-2.8,1.6
		c-1.2,0-1.8-0.7-1.8-2.1c0.1-0.8,0.3-1.6,0.6-2.3c0.4-1,0.7-1.6,1-1.6c0.3,0,0.3,0.2,0.2,0.6c-0.1,0.9-0.2,1.4-0.2,1.4
		c0,0.3,0.2,0.5,0.7,0.5c0.8,0,1.5-0.5,1.9-1.1c0.6-0.7,0.9-1.1,0.8-1.1c0.2,0,0.4,0.2,0.5,0.6c0.1,0.4,0.2,0.6,0.4,0.6
		c0.7,0,1.3-0.5,1.5-1.1c0.2-0.4,0.4-0.8,0.6-1.1C112.7,61.4,112.9,61.7,112.9,62.2"/>
	<path class="st0" d="M87.2,96.5c-1.1,1.5-2.9,2.4-4.8,2.4c-1.4,0-2.1-0.6-2.1-1.6c0.1-0.8,0.3-1.5,0.6-2.2c0.3-0.8,0.8-1.4,1.3-2
		c-0.6-0.4-1-1-1.2-1.7c0.1-0.7,0.4-1.3,0.9-1.8c0.6-0.7,1.1-1.1,1.7-1.1s0.6,0.3,0.6,0.9c0,0.3-0.1,0.5-0.2,0.8
		c-0.1,0.3-0.2,0.5-0.3,0.5c-0.1-0.1-0.1-0.2-0.2-0.3c0-0.2-0.2-0.4-0.5-0.4c-0.2,0-0.4,0.1-0.6,0.3c-0.3,0.2-0.4,0.4-0.4,0.5
		c0,0.6,0.5,0.9,1.6,0.9c0.4-0.1,0.7-0.3,1-0.6c0.3-0.3,0.6-0.5,0.8-0.4c0.2,0.1,0.1,0.4-0.1,1.1c-0.1,0.2-0.3,0.4-0.6,0.5
		c-0.9,0.4-1.7,1.1-2.3,1.8c-1,0.9-1.4,1.6-1.4,2.1c0,0.7,0.7,1,2,1c1.3-0.1,2.6-0.4,3.7-1.1c0.2-0.1,0.4-0.1,0.5-0.1
		S87.3,96.3,87.2,96.5"/>
	<path class="st0" d="M276.2,74.9c0,1.2-0.1,2.4-0.4,3.6c-0.4,2.2-0.8,3.4-1.1,3.4c-0.3,0-0.3-0.5-0.3-1.4c-0.1-2-0.2-3.1-0.2-3.3
		c-0.5-4.8-1.7-13.1-3.7-24.6c-0.6-3.2-1.3-8-2.2-14.3c-0.5-0.4-0.7-0.7-0.6-0.9c0.2-0.6,0.5-1.4,1-2.5c0.3-0.9,0.6-1.4,0.6-1.4
		s0.9,1.5,2.3,4.5c1.5,3.3,2.2,5.1,2,5.2c-0.2,0.1-0.6-0.1-1.2-0.8c-0.2-0.2-0.6-0.7-1.4-1.4c0.9,4.8,2.2,12.5,4,23
		C275.6,67.5,276,71.1,276.2,74.9"/>
	<path class="st0" d="M263.9,80.7c-1.2-0.1-2.4-0.8-3-1.9c0.8-0.2,1.6-0.2,2.3-0.1c0.4,0.1,0.8,0.3,1.1,0.6c0.3,0.2,0.5,0.6,0.6,0.9
		C264.9,80.6,264.6,80.7,263.9,80.7 M262.9,74.6c-1.2,0.1-2.4,0.4-3.5,0.9c-0.8-2.5-1.4-5.1-1.9-7.8c-1.4-10.8-2.4-19.5-2.9-26
		c0.7,0.7,1.1,1.2,1.3,1.3c0.6,0.7,1,1,1.2,0.9v-0.2c-0.5-1.7-1-3.4-1.7-5c-1.1-3-1.9-4.5-2.1-4.5s-0.4,0.5-0.7,1.4
		c-0.3,0.6-0.7,1.4-1.2,2.4c-0.1,0.2,0.1,0.6,0.6,1c0.4,9.9,1.5,19.7,3,29.5c0.4,2.8,1,5.6,1.8,8.3l0,0c-3.3,1.5-5.6,2.3-6.7,2.3
		c-0.1,0-0.2,0-0.3,0c-0.9-0.1-1.7-0.4-2.4-1c-0.4-0.4-0.7-0.8-0.9-1.3c-0.3-0.6-0.5-0.9-0.7-0.9c-0.2,0-0.3,0.6-0.5,1.7
		c-0.1,0.7-0.2,1.3-0.3,2c0.6,0.8,1,1.7,1.4,2.6c0.8,1.4,1.3,2.9,1.4,4.5c0,0.8-2,2.5-6.2,5.3c-3.7,2.5-7.1,3.8-9.9,3.8
		c-4.4,0-6.7-2.1-6.7-6.5c0-1.5,0.3-3.1,0.8-4.5c0.2-0.7,0.4-1.5,0.5-2.2c-0.3-0.2-0.6,0.1-1,0.7c-1.3,2.7-2,5.7-1.9,8.7
		c0,5.2,2.4,7.8,7.4,7.8c2.5,0,5.7-1.1,9.4-3.3c3.7-2.2,6.2-4.3,7.5-6.6c0.5-1,0.9-2.2,1-3.3c0.2-1.2,0.3-2.4,0.2-3.6
		c1.7-0.1,3.3-0.4,4.8-1.1l3.9-1.9c1.8,3.2,3.6,4.8,5.7,4.8c2.2,0,3.3-2,3.3-6.1C266.9,75.9,265.5,74.6,262.9,74.6"/>
	<path class="st0" d="M173.8,64.7l-4-2.4l-1.9,3.5l4,2.4L173.8,64.7z"/>
	<path class="st0" d="M240.4,69.8c-1-1-2.2-1.7-3.5-2.2c-2.3-0.8-6.1-1-11.1-0.4c-7.5,0.8-13.1,1.4-16.9,1.9
		c-4.3,0.5-8.7,0.6-13,0.2c-3.1-0.4-4.7-1.1-4.7-2.1s1.6-2.6,4.7-4.8c5.7-3.9,10.1-5.9,13.2-5.9c0.3,0,0.7,0.1,0.9,0.3
		c0.2,0.3,0.4,0.6,0.7,0.8c0.2,0,0.5-0.4,0.8-1.3c0.2-0.6,0.4-1.3,0.4-2c0-1.1-0.4-1.6-1.3-1.6c-3.3,0-7.8,1.9-13.3,5.8
		c-5.7,3.9-8.5,7.7-8.5,11.1c0,1.8,1.8,3,5.4,3.4c3.6,0.4,8.6,0.3,15.2-0.5c8.1-0.9,13.5-1.5,16.7-1.8c2.6-0.4,5.2-0.3,7.9,0.3
		c3.1,0.9,5,2.4,5.9,4.4c-7.4,1.4-15.6,2.7-24.7,3.7c-7.3,0.9-14.5,1.5-21.8,1.6h-0.1c-10.7,0-17.4-2.2-19.9-6.6
		c-0.4-0.6-0.6-0.9-0.7-0.9s-0.3,0.7-0.6,2c-0.2,0.7-0.3,1.4-0.4,2.2c2.2,3,3.3,5.3,3.3,7.2c0,0.4-0.2,0.8-0.5,1.1
		c-1.9,1.9-4.1,3.5-6.6,4.8c-4.1,2.4-7.6,3.6-10.2,3.6c-4.3,0-6.6-2.1-6.6-6.5c0-1.5,0.3-3,0.7-4.5c0.3-0.7,0.5-1.5,0.6-2.3
		c-0.3-0.1-0.6,0.1-0.9,0.8c-1.4,2.6-2.1,5.7-2,8.7c0,5.2,2.5,7.8,7.5,7.8c3.2,0,7.1-1.5,11.5-4.4c4-2.7,6.4-4.8,7.1-6.6
		c0.7-1.5,1-3.2,1-4.8c3.1,1.5,8.4,2.2,15.8,2.2l0,0c5.9,0,14.9-0.8,27.3-2.4c10.4-1.4,16.5-2.4,18.3-2.9c0.8-0.2,1.5-0.3,2.1-0.5
		c0.2,0,0.6-0.7,1.3-2.2c0.4-0.8,0.7-1.6,1-2.5C242.5,72.3,241.7,70.7,240.4,69.8"/>
	<path class="st0" d="M150,95.3l-1.9,3.5l-4-2.3l-1.6,2.9l-4-2.4l1.9-3.5l3.9,2.3l1.6-2.9"/>
	<path class="st0" d="M166.1,60.3c0,0.7-0.2,1.4-0.4,2c-0.3,0.7-0.5,1.1-0.7,1.1c-0.2,0-0.4-0.4-1-1.1c-0.6-0.7-1-1.1-1.4-1.1
		c-1.2,0-3,1.2-5.4,3.6c-2.4,2.4-3.7,4.2-3.7,5.4c0,0.6,0.6,1.2,1.8,1.8c0.9,0.5,1.9,0.8,3,0.9c1.9,0.1,3.8,0.5,5.6,1.2
		c0.9,0.5,1.4,1.4,1.4,2.3c0.1,1.8-0.5,3.6-1.6,5c-1.7,2.1-5,4.3-9.9,6.7c-5.3,2.4-10,3.7-13.9,3.7c-5.1,0-8.7-2.2-10.5-6.8
		c-1-2.9-1.1-6.1-0.3-9.1c0.4-2,1.1-3.9,2-5.9c0.6-1.2,1-1.8,1.2-1.7s0.1,0.7-0.4,2c-0.9,2.2-1.4,4.6-1.6,7.1
		c-0.1,2.5,0.8,5,2.5,6.9c1.9,2.1,4.6,3.1,8.3,3.1c3.5-0.1,7.1-0.8,10.4-2.2c2.9-1.1,5.8-2.5,8.5-4.1c2.3-1.4,3.5-2.2,3.5-2.5
		c0-0.7-1.1-1.2-3.1-1.4c-5.8-0.6-8.7-2.2-8.7-4.8c0-3,1.5-6.4,4.5-10.1c2.9-3.5,5.3-5.3,7.5-5.3c0.8,0,1.5,0.4,1.9,1
		C165.8,58.8,166.1,59.6,166.1,60.3"/>
	<path class="st0" d="M244.7,47.1c-0.1,0.3-0.2,0.7-0.4,1c-0.2,0.6-0.4,0.9-0.6,0.9c-7.1,2.3-12.6,4.2-16.7,5.8
		c-7.8,2.7-13.4,4.8-16.8,6.4c0-0.5,0.2-0.9,0.4-1.3c0.2-0.3,0.5-0.7,0.8-0.9C221.2,54.9,232.2,50.9,244.7,47.1"/>
	<path class="st0" d="M186.8,90.5c0.1,0.1,0,0.4-0.1,0.7c-0.1,0.2-0.2,0.4-0.4,0.6l-7.3,2.7c-2.3,0.8-4.5,1.8-6.7,2.9
		c-0.1-0.3-0.1-0.6,0-0.9c0-0.3,0.1-0.5,0.3-0.7C177.2,93.8,182,92,186.8,90.5"/>
	<path class="st0" d="M266.1,90.1c0,1-0.2,1.6-0.6,1.6c-1,0-2-0.4-2.8-1.1c-0.1,0.6-0.4,1.2-0.8,1.7c-0.5,0.6-2.1,1.4-4.7,2.5
		c-2.2,1-3.5,1.5-3.9,1.6c-1.8,0.4-3.3,0.6-4.6,0.8h-0.3c-0.1,0-0.1-0.1,0-0.1c0.1,0,0.1-0.1,0.3-0.1c0.5-0.1,1.7-0.6,3.6-1.4
		c2.2-0.9,3.9-1.5,4.9-2c1.7-0.6,3.2-1.4,4.6-2.5c0.3-0.3,0.5-0.6,0.7-1c0.2-0.6,0.5-1.1,0.8-1.5c0.4-0.5,0.8-0.8,1.1-0.8
		c0.4,0,0.8,0.3,1.1,0.7C266,89,266.2,89.5,266.1,90.1 M265.3,90.6c0-0.8-0.3-1.2-0.8-1.2s-0.7,0.2-0.7,0.5c0,0.1,0.2,0.2,0.5,0.4
		C264.6,90.4,265,90.5,265.3,90.6"/>
	<path class="st0" d="M156.1,45.2c0,0.2-0.1,0.5-0.2,0.7c-0.2,0.3-0.3,0.5-0.3,0.5c-0.5-0.1-1-0.2-1.5-0.5c-1.1,1.7-3.3,3.4-6.7,5.3
		c-0.3,0.1-1,0.4-2.1,0.9c-0.6,0.3-1.2,0.5-1.8,0.6c0.5-0.5,1.1-0.8,1.8-1.1c4.1-2.2,7.1-4.2,8.5-5.9c-1.2-0.6-1.9-1.2-1.9-2
		c0.1-0.6,0.4-1.2,0.8-1.7c0.3-0.5,0.9-0.9,1.5-1c0.6,0,0.9,0.7,0.9,2c0,0.5-0.1,1.1-0.3,1.6C155.6,44.9,156.1,45.1,156.1,45.2
		 M154.2,44.4c0.3-1.3,0.1-1.9-0.6-1.9c-0.7,0-1,0.3-1,0.8S153.1,44,154.2,44.4"/>
	<path class="st0" d="M155.5,52.5c0,1.2-0.3,2.4-1,3.5c-0.4,0.8-1.1,1.3-2,1.4c-0.4,0-0.8-0.2-1-0.5c-0.7,0.9-1.7,1.4-2.8,1.6
		c-1.2,0-1.8-0.7-1.8-2c0.1-0.8,0.3-1.6,0.6-2.3c0.4-1,0.7-1.6,1-1.6c0.3,0,0.3,0.2,0.2,0.6c-0.1,0.9-0.2,1.4-0.2,1.4
		c0,0.3,0.2,0.5,0.7,0.5c0.8,0,1.5-0.5,1.9-1.1c0.3-0.3,0.6-0.7,0.8-1.1c0.2,0,0.4,0.2,0.5,0.6c0.1,0.4,0.2,0.6,0.4,0.6
		c0.7,0,1.3-0.5,1.5-1.1c0.2-0.4,0.4-0.8,0.6-1.1C155.4,51.6,155.5,51.9,155.5,52.5"/>
	<path class="st0" d="M194,41.7c0.1,0.2,0.1,0.6,0,1.2c-0.1,0.6-0.2,1-0.4,1c0,0-0.1-0.2-0.4-0.6c-0.3-0.4-0.6-0.7-0.9-0.7
		c-0.6,0-1.1,1.4-1.4,4.2s-0.5,4.2-0.8,4.1c-0.3-0.1-0.6-0.6-0.9-1.9c-0.3-1.3-0.9-2.6-1.9-3.6c0,0.1-0.1,0.2-0.2,0.3
		c-0.1,0.1-0.5-0.1-1.1-0.5c-0.6-0.4-0.9-0.8-1-1.1c-0.1-1.4,0.1-2.2,0.7-2.2c1.1,0,2.2,1.3,3.5,4.1c0.2,0.7,0.5,1.4,0.8,2
		c0.1-1.3,0.3-2.7,0.5-4c0.4-2.4,0.9-3.7,1.7-3.6C192.9,40.5,193.4,40.8,194,41.7"/>
	<path class="st0" d="M218.9,88.9c0.1,0.2,0.1,0.6,0,1.2c-0.1,0.6-0.2,1-0.4,1l-0.4-0.6c-0.3-0.4-0.5-0.6-0.9-0.6
		c-0.6,0-1.1,1.4-1.4,4.2c-0.3,2.8-0.5,4.2-0.8,4.1c-0.3-0.1-0.6-0.6-0.9-1.9c-0.3-1.4-0.9-2.6-1.8-3.6c0,0.1-0.1,0.2-0.2,0.3
		c-0.1,0.1-0.5-0.1-1.1-0.5s-0.9-0.8-1-1.1c-0.1-1.4,0.1-2.2,0.7-2.2c1.1,0,2.2,1.3,3.5,4.1c0.2,0.7,0.5,1.4,0.8,2
		c0.1-1.3,0.3-2.7,0.5-4c0.4-2.4,0.9-3.7,1.7-3.6C217.7,87.8,218.3,88.2,218.9,88.9"/>
	<path class="st0" d="M251,60.7c0,2.2-1,3.2-2.9,3.2c-1,0-1.5-0.6-1.5-1.8c0-1.4,0.5-2.7,1.3-3.9c0.2-0.7,0.4-1.1,0.5-1.1
		c0.1,0,0.2,0.1,0.1,0.3c-0.1,0.3-0.2,0.5-0.2,0.8C250.1,59.4,251,60.2,251,60.7 M250.2,61.5c0-0.1-0.3-0.4-1-0.8
		c-0.3-0.3-0.7-0.5-1.1-0.7c-0.1,0-0.2,0.2-0.4,0.7c-0.1,0.3-0.2,0.7-0.2,1c-0.1,0.4,0.2,0.7,0.6,0.8c0.1,0,0.1,0,0.2,0
		c0.4,0,0.8-0.1,1.1-0.3C249.9,61.8,250.2,61.7,250.2,61.5"/>
	<path class="st0" d="M371.2,83.5c0,1.2-0.1,2.4-0.4,3.6c-0.4,2.2-0.8,3.4-1.1,3.4c-0.3,0-0.3-0.5-0.4-1.4c-0.1-2-0.2-3.1-0.2-3.3
		c-0.5-4.8-1.7-13.1-3.7-24.6c-0.6-3.2-1.3-8-2.2-14.3c-0.5-0.4-0.6-0.7-0.6-0.9c0.2-0.6,0.5-1.4,1-2.5c0.4-0.9,0.6-1.4,0.7-1.4
		s0.9,1.5,2.3,4.5c1.5,3.3,2.2,5.1,2,5.2c-0.2,0.1-0.6-0.1-1.2-0.8c-0.2-0.2-0.6-0.7-1.4-1.4c0.9,4.8,2.2,12.5,3.9,23
		C370.6,76.1,371,79.8,371.2,83.5"/>
	<path class="st0" d="M316.2,68.6l-4-2.3l-1.9,3.5l4,2.4L316.2,68.6z"/>
	<path class="st0" d="M342,90.2l4,2.4l1.9-3.5l-4-2.4L342,90.2z"/>
	<path class="st0" d="M359,65.2c-0.8-4.7-1.6-9.5-2.4-14.2c0.8,0.8,1.2,1.2,1.4,1.4c0.6,0.7,1,0.9,1.2,0.8V53
		c-0.5-1.7-1.2-3.4-2-5.1c-1.3-3-2.1-4.5-2.3-4.5c-0.2,0-0.4,0.6-1,1.9c-0.4,1-0.6,1.6-0.7,2c-0.1,0.4,0.1,0.5,0.5,1
		c0.9,6,1.5,10.3,2,13c1.3,7.9,2.1,13.4,2.4,16.7c0,1.1-0.6,2.1-1.6,2.6c-0.9,0.6-2,1-3.1,1c-0.1,0-0.1,0-0.2,0
		c-1.1,0.1-2.2-0.4-2.9-1.2c-0.6-0.9-0.8-2.1-0.6-3.2c0.1-0.5-0.1-0.7-0.3-0.7c-0.5,0.2-0.9,0.4-1.4,0.7c-2.7,1.5-5.7,2.6-8.7,3.2
		c-3,0.8-6.3,1.2-9.4,1.2c-6,0-9.7-0.9-11.2-2.8c-0.8-0.8-1.1-2-0.7-3.1c0.1-0.3,0-0.5-0.2-0.5c-0.5,0-1.2,0.8-2.2,2.4
		c-1.5,2.4-3.1,3.6-4.8,3.6h-0.2c-1.1-0.1-2.2-0.7-2.8-1.7c-0.8-1.3-1.6-4-2.2-8c-0.9-5.6-1.5-9.6-2-12.3c-1.4-10-2.7-17-3.7-20.9
		c-0.5-2-0.8-2.9-1-2.9c-0.3,0.7-0.5,1.4-0.6,2.1c-0.2,0.8-0.4,1.7-0.5,2.5c0-0.2,1,5.3,2.9,16.6s2.9,17.8,2.9,19.6
		c0,1.3-0.6,2.5-1.7,3.1c-2.9,1.8-6.2,3.3-9.5,4.4c-3.8,1.5-7.9,2.3-11.9,2.5c-2.6,0.1-5.2-0.7-7.3-2.3c-1.7-1.5-2.7-3.7-2.6-6.1
		c0.1-1.1,0.2-2.3,0.5-3.4c0.4-1.2,0.4-1.8,0.2-1.9c-0.3-0.2-0.6,0.2-1,1.2c-1,2.1-1.5,4.3-1.5,6.7c-0.1,2.7,0.9,5.3,2.8,7.3
		c1.9,1.9,4.7,2.9,8.5,2.9c3,0,6.9-0.9,11.6-2.5c3.6-1.3,7.1-3,10.3-5.1c1.5-1.3,2.5-3.1,2.6-5.1c0.8,4.5,2.6,7,5.2,7.4
		c0.1,0,0.1,0.1,0.2,0.1h0.3h0.3c0.1,0,0.3,0,0.4-0.1c1.8-0.3,3.3-1.4,4.1-2.9c0.4-0.8,0.9-1.5,1.4-2.2c1.2,3.7,5.3,5.7,12.6,5.7
		l0,0c3.7-0.1,7.4-0.7,11-1.8c2.9-0.7,5.8-1.8,8.3-3.4c0.3,3.4,1.6,5.1,3.9,5.1c0.1,0,0.2,0,0.4-0.1c2.3-0.1,4.4-1.3,5.7-3.2
		c1.3-2.1,1.9-4.6,1.8-7.2C360,71.6,359.6,68.4,359,65.2"/>
	<path class="st0" d="M281.3,76.8c3.1-0.1,5-0.4,5.7-0.8c0.9-0.7,1.7-1.5,2.3-2.5c0.9-1,1.4-2.3,1.6-3.7c0-1-0.8-1.5-2.4-1.5
		c-1.6,0-2.4-0.2-2.4-0.5c0-1.1,0.8-1.7,2.4-2c0.2-0.1,0.4-0.5,0.8-1.5c0.3-0.6,0.5-1.2,0.6-1.9c0-0.2-0.1-0.2-0.3-0.2
		c-0.8,0-2,1-3.5,3c-1.5,2-2.2,3.7-2.2,5s1.5,2,4.5,2.1c-0.8,1-1.9,1.7-3.1,2.1c-1.3,0.5-2.7,1.1-4.1,1.7c-0.4,0.2-0.6,0.3-0.6,0.4
		S280.8,76.7,281.3,76.8"/>
	<path class="st0" d="M294.7,57.7c-0.3,1.1-0.8,1.7-1.5,1.7c-0.3,0-0.7-0.1-0.9-0.4c-0.4-0.6-0.6-1.4-0.6-2.1c0-0.8,0.1-1.5,0.3-2.2
		c0.3-1.3,0.7-2.7,1.2-3.9c0.2-0.5,0.4-0.8,0.5-0.8s0.1,0.1,0.1,0.2c0,0.3-0.1,0.5-0.2,0.8c-0.2,0.7-0.6,2-1,4
		c-0.2,0.8-0.2,1.7,0.1,2.5c0.1,0.4,0.5,0.6,0.8,0.6c0.2,0,0.4-0.1,0.5-0.3c0.1-0.1,0.2-0.3,0.4-0.6c0.2-0.3,0.2-0.3,0.2-0.3
		C294.9,56.7,294.9,57,294.7,57.7"/>
	<path class="st0" d="M339.5,77c-0.3,1.1-0.8,1.7-1.5,1.7c-0.3,0-0.7-0.1-0.9-0.4c-0.4-0.6-0.6-1.4-0.6-2.1c0-0.7,0.1-1.5,0.3-2.2
		c0.3-1.3,0.7-2.7,1.2-3.9c0.2-0.5,0.4-0.8,0.5-0.8c0.1,0,0.1,0.1,0.1,0.2c0,0.3-0.1,0.5-0.2,0.8c-0.2,0.7-0.6,2-1,4
		c-0.2,0.8-0.2,1.7,0.1,2.5c0.1,0.4,0.5,0.6,0.8,0.6c0.2,0,0.4-0.1,0.5-0.3l0.4-0.6c0.1-0.2,0.2-0.3,0.2-0.3
		C339.7,76.1,339.7,76.4,339.5,77"/>
	<path class="st0" d="M354.6,60.6c-0.1,0.3-0.2,0.7-0.4,1c-0.2,0.6-0.4,0.9-0.6,0.9c-7,2.3-12.5,4.2-16.7,5.8
		c-7.8,2.7-13.3,4.8-16.8,6.4c0-0.5,0.2-0.9,0.4-1.3c0.2-0.3,0.5-0.7,0.8-0.9C331.1,68.4,342.1,64.5,354.6,60.6"/>
	<path class="st0" d="M293.3,47.6c0,0.2-0.1,0.5-0.2,0.7c-0.2,0.3-0.3,0.5-0.3,0.5c-0.5-0.1-1-0.2-1.5-0.5c-1.1,1.7-3.3,3.5-6.7,5.3
		c-0.3,0.1-1,0.4-2.1,0.9c-0.6,0.3-1.2,0.5-1.8,0.6c0.5-0.5,1.1-0.8,1.8-1.1c4.1-2.2,7.1-4.2,8.5-5.9c-1.2-0.6-1.9-1.2-1.9-2
		c0.1-0.6,0.4-1.2,0.8-1.7c0.3-0.5,0.9-0.9,1.5-1c0.6,0,0.9,0.7,0.9,2c0,0.5-0.1,1.1-0.3,1.6C292.8,47.4,293.3,47.6,293.3,47.6
		 M291.4,46.9c0.3-1.3,0.1-1.9-0.6-1.9s-1,0.3-1,0.8C289.7,46.2,290.3,46.5,291.4,46.9"/>
	<path class="st0" d="M334.8,44.3c0.1,0.1,0.1,0.5,0,1.1c-0.1,0.2-0.2,0.2-0.3,0c-0.1-0.3-0.4-0.5-0.8-0.6c-0.5,0-0.7,0.3-0.7,1
		c0,1.2-0.1,2.6-0.2,4.2c0.1,0,0.4,0.2,0.9,0.7c0.3,0.2,0.5,0.5,0.7,0.9c0,0.2,0,0.5-0.1,0.7c-0.1,0.3-0.2,0.4-0.2,0.4
		c-0.7,0.1-1.4,0.3-2,0.6c-0.7,0.3-1,0.6-1,0.9c1.1,6.5,1.7,10.1,1.7,10.7c0,0.4,0,0.7-0.1,0.7s-0.1-0.2-0.1-0.3
		c-0.2-1.4-0.6-3.5-1-6.3c-0.4-1.5-0.6-3-0.7-4.5c0-0.7,0.2-1.4,0.7-2c0.3-0.5,0.8-0.8,1.4-0.9c-0.2-0.1-0.4-0.2-0.7-0.2
		c-0.2,0-0.4,0.2-0.5,0.4c-0.1,0.2-0.2,0.4-0.3,0.4c-0.1,0,0-0.1,0-0.3c0-0.4,0.1-0.8,0.3-1.1c0.2-0.5,0.5-0.8,0.7-0.8
		c-0.1-0.5-0.3-1-0.6-1.4c-0.2-0.6-0.6-1.1-1-1.5c-0.1,0.3-0.1,0.4-0.2,0.4c-0.3-0.1-0.7-0.3-0.9-0.5c-0.5-0.3-0.7-0.6-0.7-0.8
		c0-1,0.1-1.5,0.4-1.5c0.6,0.1,1.2,0.4,1.5,0.9c0.7,0.8,1.3,1.8,1.6,2.8v-0.1c0-0.6,0-1.5,0-2.9c0-1.4,0.5-2.1,1-2.1
		C334.1,43.7,334.5,44,334.8,44.3"/>
	<path class="st0" d="M315.4,54.8c0,2.2-1,3.2-2.9,3.2c-1,0-1.4-0.6-1.4-1.8c0-1.4,0.5-2.8,1.3-3.9c0.2-0.7,0.4-1.1,0.5-1.1
		s0.2,0.1,0.1,0.3c-0.1,0.3-0.2,0.5-0.2,0.8C314.5,53.3,315.4,54.2,315.4,54.8 M314.6,55.5c0-0.1-0.3-0.4-1-0.9
		c-0.3-0.3-0.7-0.5-1.1-0.7c-0.1,0-0.2,0.2-0.4,0.7c-0.1,0.3-0.2,0.7-0.2,1c-0.1,0.4,0.2,0.7,0.6,0.8c0.1,0,0.1,0,0.2,0
		c0.4,0,0.8-0.1,1.1-0.3C314.3,55.9,314.6,55.7,314.6,55.5"/>
	<path class="st0" d="M220.2,117.6h155.4v-1.8H220.2L220.2,117.6L220.2,117.6z"/>
	<path class="st0" d="M0.4,117.6h155.4v-1.8H0.4V117.6z"/>
	<path class="st0" d="M167.5,113.6c-0.3-1.3-1-2.7-2.6-2.7c-1.1-0.1-2.1,0.8-2.2,1.9c0,0.1,0,0.1,0,0.2c0,1.4,0.9,2.1,2.6,2.8
		s3.5,1.8,3.5,3.9s-1.8,3.8-4.5,3.8c-0.7,0-1.4-0.1-2-0.3c-0.3-0.1-0.7-0.2-1-0.4c-0.2-1-0.4-2.1-0.6-3.1l0.6-0.2
		c0.3,1.2,1.3,3.3,3.4,3.3c1.2,0.1,2.2-0.8,2.3-1.9c0-0.1,0-0.3,0-0.4c0-1.4-1.1-2.1-2.6-2.9c-1.5-0.8-3.3-1.7-3.3-3.8
		c0-2,1.6-3.6,4.2-3.6c0.9,0,1.8,0.2,2.6,0.5c0.1,0.7,0.2,1.5,0.4,2.8"/>
	<path class="st0" d="M176.1,113L176.1,113c-0.6,1.5-1.2,3.1-1.8,4.6h3.4L176.1,113z M177.9,123.1v-0.6c1.2-0.2,1.4-0.4,1.1-1.1
		c-0.3-0.7-0.6-1.8-1-2.9h-4.1c-0.3,0.9-0.6,1.6-0.8,2.4c-0.4,1.2-0.3,1.4,1.2,1.6v0.6h-4.6v-0.6c1.3-0.2,1.6-0.3,2.4-2.1l4.3-10.3
		l0.7-0.2c1.3,3.5,2.6,7,4,10.5c0.7,1.7,0.9,1.9,2.3,2.1v0.6"/>
	<path class="st0" d="M195.4,123.1v-0.5c1.8-0.2,1.9-0.3,1.8-2.4l-0.1-8.2H197l-5.3,11h0.4l-4.8-11h0.1l-0.3,5.8
		c-0.1,1.1-0.1,2.2,0,3.4c0,1,0.5,1.1,1.9,1.2v0.6h-4.6v-0.4c0.9-0.1,1.3-0.4,1.5-1.2s0.2-1.5,0.4-3.6l0.3-3.9
		c0.2-2.6,0.1-2.6-1.2-2.8v-0.7h2.9l4.5,10l4.6-10h3.4v0.9c-1.7,0.1-1.8,0.2-1.7,2.2l0.2,7.2c0.1,2.1,2.5,2.4,2.5,2.4v0.3"/>
	<path class="st0" d="M208.6,113L208.6,113c-0.6,1.5-1.2,3.1-1.8,4.6h3.4L208.6,113z M210.1,123.1v-0.6c1.2-0.2,1.4-0.4,1.1-1.1
		c-0.3-0.7-0.6-1.8-1-2.9h-4.1c-0.3,0.9-0.6,1.6-0.8,2.4c-0.4,1.2-0.2,1.4,1.2,1.6v0.6h-4.6v-0.6c1.3-0.2,1.6-0.3,2.4-2.1l4.3-10.3
		l0.7-0.2c1.3,3.5,2.6,7,4,10.5c0.7,1.7,0.9,1.9,2.3,2.1v0.6"/>
	<path class="st0" d="M34.4,152c-1,0.5-2.9,1.4-3.9,1.8c-1.9,0.8-2.9,1.7-2.9,3.5c-0.1,1.8,1.3,3.4,3.1,3.6h0.1
		c1.3-0.1,2.5-0.6,3.5-1.5V152H34.4z M38.2,163.9c-0.9,0-1.8-0.3-2.4-0.9c-0.6-0.5-1-1.2-1.2-2c-1.9,1.2-4.2,2.9-5.6,2.9
		c-3.2,0.1-5.9-2.5-6-5.8V158c0-2.3,1.3-3.8,3.9-4.6c3.1-1,6.4-2.2,7.4-3v-0.8c0-3.4-1.5-5.2-3.8-5.2c-0.8,0-1.5,0.3-2,0.8
		c-0.7,0.9-1.2,2-1.4,3.2c-0.2,0.7-0.8,1.2-1.5,1.1c-1.1-0.1-2.1-1-2.2-2.1c0-0.7,0.6-1.3,1.5-1.9c2.2-1.5,4.7-2.7,7.4-3.3
		c1.4-0.1,2.8,0.4,4,1.2c1.8,1.5,2.3,3.4,1.8,6v8.5c0.5,2.1,1.3,2.8,2.2,2.8c0.6,0,1.2-0.2,1.7-0.5l0.5,1.2"/>
	<path class="st0" d="M67,162.2c-1.3,0.2-2.5,0.4-3.8,0.7c-1.3,0.4-2.6,0.7-3.6,0.9l-0.3-0.2v-3.3c-1,0.8-2.1,1.6-3.3,2.3
		c-1.1,0.7-2.4,1.1-3.7,1.1c-3.2,0-5.9-1.9-5.9-6.9v-9.3c0-2.4-0.4-2.6-1.5-2.9l-1.2-0.3V143c1,0,2.3-0.2,3.7-0.3
		c1.4-0.1,2.8-0.4,3.7-0.5c-0.1,1.5-0.1,3.8-0.1,7.1v6.5c0,3.6,1.8,4.7,3.7,4.7c1.7,0,3.3-0.7,4.5-1.9v-10.9c0-2.6-0.4-2.8-2-3.1
		l-1.7-0.3v-1.1c1.6-0.1,3.2-0.2,4.7-0.4c1.2-0.1,2.3-0.3,3.5-0.5v15.6c0,2.4,0.4,2.8,2.2,2.9l1.3,0.1"/>
	<path class="st0" d="M85.9,146.4c-1.1-1.6-2.9-2.5-4.8-2.4c-2,0-6.1,1.7-6.1,8.6c0,5.7,3.6,8.3,6.6,8.3c1.6-0.1,3.1-0.6,4.3-1.5
		V146.4z M93.8,162.1c-2.6,0.4-5.2,1-7.9,1.8v-3.2l-2.8,1.6c-1.1,0.7-2.3,1.2-3.6,1.3c-3.9,0-9.1-3.4-9.1-10s5.9-11.5,12.4-11.5
		c1,0,2,0.2,3,0.5V136c0-3-0.3-3.1-3.7-3.4v-1.4c2.8-0.3,5.6-0.9,8.3-1.7v28.3c0,2.6,0.4,2.8,2.3,3l1.4,0.1"/>
	<path class="st0" d="M98.5,135.5c0-1.5,1.2-2.6,2.6-2.6l0,0c1.4,0,2.5,1.1,2.5,2.5v0.1c0,1.4-1.2,2.5-2.6,2.5l0,0
		C99.7,138,98.6,136.9,98.5,135.5 M96.1,163.6V162l2.7-3.9v-9.7c0-2.7-0.1-2.9-2.7-3.4v-1.3c2.5-0.4,4.9-1,7.4-1.8v16
		c0,3.5,0.4,3.8,3.6,4.2v1.4"/>
	<path class="st0" d="M145.7,155.2c-0.7,2.6-1.7,5-2.8,7.5c-3,0.8-6.2,1.2-9.3,1.4c-12.5,0-18.1-8.3-18.1-15.7
		c0-10,8.1-16.6,19.3-16.6c3,0.1,6.1,0.6,9,1.4c0.4,2.7,0.7,4.7,1,7.5l-1.4,0.3c-1.3-5.2-4.5-7.3-9.9-7.3c-8.3,0-12.7,6.7-12.7,13.7
		c0,9,5.4,14.9,13.1,14.9c5,0,7.8-2.7,10.3-7.6"/>
	<path class="st0" d="M158.5,144.3c-2.1,0-4.1,1.8-4.8,5.9c2.5,0,5.1,0,7.8-0.1c0.8,0,1.1-0.3,1.1-0.9
		C162.7,146.6,161.1,144.3,158.5,144.3L158.5,144.3z M166.9,159.4c-3.1,3.9-6.6,4.7-8.2,4.7c-6,0-9.4-4.7-9.4-10
		c0-3,1.1-5.9,3.1-8.1c1.8-2.1,4.4-3.4,7.3-3.6l0,0c4,0.1,7.3,3.2,7.4,7.3c0,0.9-0.3,1.3-1.1,1.5c-0.8,0.2-6.9,0.6-12.5,0.8
		c0.1,6.2,3.7,8.7,7.1,8.7c2.1,0,4.1-0.9,5.6-2.4"/>
	<path class="st0" d="M185.3,163.6V162l2.7-4v-7.8c0-3.2-1.3-5.2-4.2-5.2c-1.8,0-3.5,1.1-4.9,2.3v11.2c0,3.2,0.2,3.4,2.7,3.7v1.2
		h-11v-1.2c3.4-0.4,3.6-0.6,3.6-3.8v-9.7c0-2.9-0.3-3.1-2.7-3.6v-1.3c2.2-0.3,4.3-0.9,6.5-1.7v3.7c1-0.7,2-1.5,3.3-2.3
		c1.2-0.9,2.6-1.3,4-1.4c3.9,0,6.4,2.7,6.4,7.6v8.8l2.7,3.7v1.6"/>
	<path class="st0" d="M207.6,163.3c-0.6,0.4-1.3,0.6-2,0.6c-3.2,0-4.9-1.8-5.4-5.7v-13.9h-2.7l-0.2-0.2l1.3-1.6h1.6v-3.2l4-3.3
		l0.6,0.1v6.5h5.4c0.5,0.7,0.3,1.7-0.3,1.8h-5.1v12.3c0.1,3.8,1.7,4.4,2.9,4.4c1,0,2-0.3,2.9-0.8l0.4,1.3"/>
	<path class="st0" d="M223,147.2c1.6-2.6,3.5-5.1,5.9-5.1c1.4-0.1,2.7,1,2.9,2.4c0,1.1-0.7,2.1-1.7,2.5c-0.4,0.2-0.9,0.2-1.3-0.1
		c-0.5-0.6-1.3-1-2.1-1c-1.2,0-2.7,1.4-3.7,3.9v8.8c0,3.1,0.2,3.4,3.6,3.7v1.2h-11V162c2.7-0.3,3.6-3.7,3.6-3.7v-9.8l-3.6-3.5v-1
		c2.5-0.4,4.9-1,7.4-2v5.1"/>
	<path class="st0" d="M247,152c-1,0.5-2.9,1.4-3.9,1.8c-1.9,0.8-2.9,1.7-2.9,3.5c-0.1,1.8,1.3,3.4,3.1,3.6h0.1
		c1.3-0.1,2.5-0.6,3.5-1.5L247,152z M250.3,163.9c-0.9,0-1.8-0.3-2.4-0.9c-0.6-0.5-1-1.2-1.2-2c-1.9,1.2-4.2,2.9-5.6,2.9
		c-3.2,0.1-5.9-2.5-6-5.8V158c0-2.3,1.3-3.8,3.9-4.6c2.7-0.8,5.3-1.8,7.9-3v-0.8c-0.4-3.4-1.9-5.2-4.2-5.2c-0.8,0-1.5,0.3-2,0.8
		c-0.7,0.9-1.2,2-1.5,3.2c-0.2,0.7-0.8,1.2-1.5,1.1c-1.1-0.1-2.1-1-2.2-2.1c0-0.7,0.6-1.3,1.5-1.9c2.2-1.5,4.7-2.7,7.3-3.3
		c1.4-0.1,2.8,0.4,4,1.2c1.8,1.5,2.3,3.4,2.2,6v8.5c0,2.1,0.9,2.8,1.7,2.8c0.6,0,1.2-0.2,1.7-0.5l0.5,1.2"/>
	<path class="st0" d="M255.2,163.6v-1.4c3.2-0.4,3.6-0.6,3.6-4V136l-3.6-3.5v-1.2c2.5-0.3,4.9-0.9,7.4-1.6v28.6
		c0,3.3,0.4,3.6,3.6,3.9v1.5"/>
	<path class="st0" d="M283.7,157.4c0,3.5,0.9,4.4,4,4.4c3.8-0.1,7.3-2,7.3-6.9s-3.3-7-9.2-7h-2L283.7,157.4z M285.8,146.1
		c5.2,0,7.5-2,7.5-6c0-3.4-1.9-6.1-6.4-6.1c-0.9,0-1.8,0.2-2.7,0.6c-0.4,0.3-0.5,0.8-0.5,2.3v9.1L285.8,146.1L285.8,146.1z
		 M291.7,147.1c4.9,0.6,8.8,2.7,8.8,7.5c0,3.1-1.8,5.9-4.6,7.2c-2.5,1.3-5.9,1.9-9.7,1.9h-11.6v-1.3c4.2-0.3,4.5-0.6,4.5-4.6v-19.4
		c0-4-0.2-4.3-3.6-4.6v-1.4h12.8c3.7,0,5.9,0.5,7.5,1.6c1.7,1.2,2.7,3.2,2.7,5.4c0,4.5-3.9,6.4-6.8,7.1"/>
	<path class="st0" d="M315.9,152c-1,0.5-2.9,1.4-3.9,1.8c-1.9,0.8-2.9,1.7-2.9,3.5c-0.1,1.8,1.3,3.4,3.1,3.6h0.1
		c1.3-0.1,2.5-0.6,3.5-1.5L315.9,152z M319.6,163.9c-0.9,0-1.8-0.3-2.4-0.9c-0.6-0.5-1-1.2-1.2-2c-1.9,1.2-4.2,2.9-5.6,2.9
		c-3.2,0.1-5.9-2.5-6-5.8V158c0-2.3,1.3-3.8,3.9-4.6c3-1,6.5-2.2,7.5-3v-0.8c0-3.4-1.6-5.2-3.9-5.2c-0.8,0-1.5,0.3-2,0.8
		c-0.7,0.9-1.2,2-1.4,3.2c-0.2,0.7-0.8,1.2-1.5,1.1c-1.1-0.1-2.1-1-2.2-2.1c0-0.7,0.6-1.3,1.5-1.9c2.2-1.5,4.7-2.7,7.4-3.3
		c1.4-0.1,2.8,0.4,4,1.2c1.8,1.5,2.3,3.4,1.9,6v8.5c0.4,2.1,1.2,2.8,2.1,2.8c0.6,0,1.2-0.2,1.7-0.5l0.5,1.2"/>
	<path class="st0" d="M338.9,163.6V162l2.7-4v-7.8c0-3.2-1.3-5.2-4.2-5.2c-1.8,0-3.5,1.1-4.9,2.3v10.9c0,0,0.6,3.4,3.6,3.7v1.6h-11
		v-1.2c3.4-0.4,3.6-0.6,3.6-3.8v-9.8c0-3-0.3-3.1-2.7-3.6v-1.2c2.5-0.4,4.9-1.1,7.4-2v3.8c0.9-0.7,1.9-1.4,3.1-2.1
		c1.1-0.8,2.4-1.3,3.8-1.3c3.6,0,6,2.5,6,7.1v9l2.7,3.7v1.6"/>
	<path class="st0" d="M369,163.4c-2.2-2.4-5.2-6.4-7.8-9.3c-0.6-0.7-1-1-1.4-1c-0.2,0-0.5,0-0.7,0.1v5.4c0,3.1,0.4,3.3,3.6,3.7v1.2
		h-11.9v-1.2c3.3-0.4,3.6-0.7,3.6-3.7v-22.5l-2.7-3.6v-1.1c2.5-0.3,4.9-0.9,7.4-1.6v22.1c1.1-0.2,2-0.8,2.8-1.6
		c1.1-1.2,2.2-2.5,3.1-3.9c0.9-1.3,0.7-1.7-1.3-1.9v-1.5l10.1-0.4v1.4c-3.2,0.5-4.4,1-6.3,2.7c-1.4,1.3-2.7,2.8-3.9,4.2
		c1,1.4,5.9,7,7.4,8.6c1.5,1.6,2.9,2.4,4.6,2.5v1.7"/>
	<path class="st0" d="M473.2,129.8h-1.7c0.1-2.2,1.7-2.1,1.7-2.1V129.8z M476.7,117.3c-1.5,1.2-3.1,2.3-4.8,3.3
		c0.4,0.5,0.8,0.9,1.2,1.4c0,0.5,0,1,0,1.6c-1.4,0.5-3,0.9-3.8,2.2c-1.1,1.9-0.7,4.1-0.8,6.2c2.7,0,5.6,0,8.3,0
		C476.7,127.1,476.6,122.3,476.7,117.3"/>
	<path class="st0" d="M516.4,129.7c-0.8,0-1.5-0.7-1.5-1.5c0-0.8,0.7-1.5,1.5-1.5s1.5,0.7,1.5,1.5l0,0
		C517.9,128.9,517.2,129.7,516.4,129.7L516.4,129.7 M521,126.9c-0.8-1.6-2.2-3.4-4.2-3.4c-1.5-0.1-2.8,1-3.7,2.1
		c-1.1,1.9-1.5,4.2-1.2,6.5c1.6,0.4,3.3,0,5,0.2c-0.6,2.6-3.6,3-6,2.7c0,0.2,0.1,0.7,0.1,0.9c1.2,0.5,2.5,0.9,3.8,1.1
		C519.7,137.1,523.3,131.2,521,126.9"/>
	<path class="st0" d="M499,120.6h-3.5l7.6,8.3h-6.8v-0.5c0-0.3,0-0.6-0.1-0.9c0,0.1,0,0.2,0,0.2v-0.3v0.1c0-0.1,0-0.2,0-0.4
		c-0.3-2.1-2-3.6-4.1-3.6h-9c-0.5-0.4-1-0.9-1.4-1.3c-1,1.7-2.2,3.4-3.4,5h3c0.9,0.2,1.7,0.5,2.5,0.9h8.9v0.9h-13.9v3.6h2.6
		c7.6-0.4,17.5-0.4,25.2-0.4l1,1.3h3.4l-10.5-12.4c-0.4-0.4-0.9-0.7-1.5-0.7"/>
	<path class="st0" d="M516.4,82.8h-2.8V81l0.8-0.9h1.2l0.8,0.9V82.8z M520.3,80.5c-0.3-0.7-0.7-1.3-1.2-1.9c0.4-0.9,1.4-1.6,1.3-2.7
		c0-0.6,0-1.1,0-1.7c0-2,0-4,0-6.1c0-0.6,0-1.1,0-1.7l0.6-0.3l0.4-0.2h0.1l0.3-0.1c-0.5-0.4-0.9-0.8-1.4-1.2
		c-0.4-0.4-0.8-0.8-1.1-1.1l-0.8-0.8l-0.6-0.6c-0.4-0.4-0.8-0.8-1.1-1.2c0,1.5,0,3.1,0,4.6v2.7c0,1.2,0,2.4,0,3.6c0,0.8,0,1.7,0,2.6
		c0,0.7-0.1,1.4-0.4,2h-1.7c-0.2-0.6-0.3-1.3-0.4-2c0-0.9,0-1.8,0-2.6v-3.6c0-0.9,0-1.8,0-2.7c0-1.5,0-3.1,0-4.6
		c-0.4,0.4-0.8,0.8-1.1,1.2l-0.6,0.6l-0.8,0.8c-0.4,0.4-0.7,0.8-1.1,1.1c-0.4,0.4-0.9,0.8-1.4,1.2l0.3,0.1h0.1l0.4,0.2l0.6,0.3
		c0,0.6,0,1.1,0,1.7c0,2,0,4,0,6.1c0,0.6,0,1.1,0,1.7c-0.1,1.1,0.9,1.8,1.3,2.7c-0.5,0.6-0.9,1.2-1.2,1.9c-0.2,2,0,4-0.1,6.1h9.8
		C520.4,84.5,520.5,82.5,520.3,80.5"/>
	<path class="st0" d="M504.7,68.7c-0.2-1.2,1-1.9,1.7-2.8c-1.3-0.6-2.5-1.5-3.3-2.7c-0.5-0.9-1.2-1.6-2-2.2c0,8.5-0.1,17.1,0.1,25.5
		h3.6C504.7,80.6,504.6,74.7,504.7,68.7"/>
	<path class="st0" d="M471.5,82.5L471.5,82.5c0.2-1.9,1.7-1.8,1.7-1.8v2.1h-1.7C471.5,82.7,471.5,82.6,471.5,82.5L471.5,82.5
		 M497.7,86.2c0.1-6-0.1-12.7,0-18.7c-0.2-1.1,0.8-1.8,1.5-2.4c-2.1-1-3.1-3.3-5-4.6c0,7.4,0,14.7,0,22.1c-5.9,0-11.7,0-17.6,0.1
		c0.1-3.8,0-7.7,0-11.6c-1.6,1.2-3.2,2.3-4.9,3.3c0.5,0.4,0.9,0.9,1.4,1.3c0,0.6-0.1,1.2-0.1,1.8c-1.3,0.6-2.8,0.9-3.6,2.1
		c-1.2,1.6-0.9,4.4-0.9,6.6"/>
	<path class="st0" d="M510,111.4h-2.7v-1.8l0.8-0.9h1.2l0.8,0.9v1.8H510z M513.6,108.8c-0.3-0.7-0.7-1.3-1.2-1.9
		c0.4-0.9,1.4-1.6,1.3-2.7c0-0.6,0-1.1,0-1.7c0-2,0-4,0-6.1c0-0.5,0-1.1,0-1.6l0.6-0.3l0.4-0.2l0.1-0.1l0.3-0.1
		c-0.5-0.4-0.9-0.8-1.3-1.2c-0.4-0.4-0.7-0.7-1.1-1.1c-0.4-0.4-0.5-0.5-0.8-0.8l-0.6-0.6c-0.4-0.4-0.7-0.8-1.1-1.1c0,1.5,0,3,0,4.5
		c0,0.9,0,1.8-0.1,2.6v3.6c0.1,0.9,0.1,1.7,0.1,2.6c0,0.7-0.1,1.4-0.4,2c-0.2,0-0.3,0.1-0.4,0.2l0,0c-0.2-0.2-0.3-0.2-0.2-0.2H508
		c-0.2-0.6-0.4-1.3-0.4-2c0-0.9,0-1.8,0-2.6c0-1.2,0-2.4,0-3.6c0-0.9,0-1.8,0-2.6c0-1.5,0-3,0-4.5c-0.4,0.4-0.8,0.8-1.1,1.1
		l-0.6,0.6c-0.2,0.3-0.5,0.6-0.8,0.8c-0.3,0.2-0.7,0.8-1.1,1.1c-0.4,0.4-0.9,0.8-1.4,1.2c0.1,0,0.2,0.1,0.3,0.1c0,0,0.1,0,0.1,0.1
		l0.4,0.2l0.6,0.3c0,0.5,0,1.1,0,1.6c0,2,0,4,0,6.1c0,0.6,0,1.1,0,1.7c-0.1,1.1,0.9,1.8,1.3,2.7c-0.5,0.6-0.9,1.2-1.2,1.9
		c-0.2,2,0,3.9-0.1,6.4h9.7C513.7,112.7,513.8,110.7,513.6,108.8"/>
	<path class="st0" d="M498,97.1c-0.1-1.1,0.9-1.6,1.6-2.2l-0.1-0.6c-2.2-0.8-3-3.4-5-4.5c0,8.5,0.3,17,0.1,25.3h3.5
		C498.1,109.1,498.2,103.1,498,97.1"/>
	<path class="st0" d="M519.8,97.2c-0.2-1.2,1-1.9,1.7-2.8c-1.3-0.6-2.5-1.5-3.3-2.7c-0.5-0.9-1.2-1.6-2-2.2c0,8.5-0.1,17.1,0.1,25.5
		h3.6C519.8,109.1,519.8,103.1,519.8,97.2"/>
	<path class="st0" d="M473.2,111.4h-1.7c0.1-2.2,1.7-2.1,1.7-2.1V111.4z M489.7,91.7c-0.5-0.9-1.1-1.7-1.9-2.4
		c-0.1,0.8-0.1,1.6-0.1,2.4c0.2,6.7-0.1,13.3,0,20c-1.5,0-3,0.1-4.5,0c0-4.9,0-10,0-14.9c-0.2-1.1,0.8-1.7,1.4-2.4
		c-2-1.2-3.3-3.2-5-4.7c0.2,7.4,0.1,14.8,0,22.2h-2.8c0-3.8,0-7.8,0-11.6c-1.5,1.2-3.1,2.3-4.8,3.3c1,0.7,1.5,2,1.3,3.2
		c-1.4,0.5-3,0.9-3.8,2.2c-1.2,1.8-0.8,4.1-0.8,6.2h22.4l0.3-0.3c-0.1-4.6-0.3-9.2,0-13.8c0.1-1.6-0.3-3.3,0.1-4.9
		c0.4-0.6,0.9-1.2,1.5-1.7c-1.1-0.7-2.4-1.3-3-2.4"/>
	<path class="st0" d="M419.6,64.6c3.4-8.1,8.1-15.5,13.9-22.1c1,0.5,1.8,1.2,2.5,2.1c-1.2,1.7-2.9,3-3.9,5c-2.2,2.6-3.7,5.8-5.7,8.6
		c-0.9,1.7-1.8,3.5-2.6,5.2c1.1,0.6,2.9,1.3,3.6-0.2c2.3-4.9,5.2-9.5,8.7-13.7c0.6-1,1.4-1.9,2.3-2.6c0.4,1.9,1.1,3.7,2,5.3
		c-1,0.1-2.2-0.3-3,0.4c-3.2,3.9-5.6,8.6-8,13c-0.6,1.3-2.1,1.9-3.4,1.5C423.7,67.2,421.8,65.5,419.6,64.6"/>
	<path class="st0" d="M465.1,20.3c1.6-0.7,3.3-1.3,5-1.9c1.6,2.8,0,5.8-1.1,8.4c2.6,2.3,6.4,3.5,7.7,7.1c1.2,3.2-1.6,5.9-2.3,8.7
		c-4.1-3.3-8.6-6.1-12.8-9.2c-0.9-0.8-1.9,0.6-2.9,0.7c-0.8-0.5-1.5-1.2-2.1-1.9l-0.5,0.3c1.8-1.1,3.4-2.5,5.4-3.2
		c1.9,0.7,3,2.6,4.8,3.5c2.4,1.3,4.3,3.9,7.4,3.9c-0.1-1.2-0.6-2.4-1.4-3.4c-2.4-2-4.9-3.7-7.7-5.2c0.5-1.6,1.8-2.8,1.9-4.6
		c-3.4,1.7-7.1,2.9-10.2,5.1c-2.8,1.4-5.2,3.5-8,5.2c-1,0.7-1.9,1.8-2.9,2.5c-2.1,1.4-3.7,3.6-5.8,5c-0.4-1-1.7-2.2-1.2-3.3
		c5.4-5.3,11.6-10,18.4-13.7C459.3,22.6,462.3,21.7,465.1,20.3"/>
	<path class="st0" d="M460.7,149.3c1-1.1,1.2-3,2.6-3.6c0.7,2.3,1,4.7,1.7,7.1c-0.9,0.2-1.9,0.5-2.7,1c-2.8,4.5-5.8,9.1-8.5,13.6
		c-1,0.3-2-0.6-2.8-1c-0.8-0.4-0.2-1.3,0.1-1.8c1.6-2.2,3-4.6,4.3-7.1C457.4,154.8,458.7,151.9,460.7,149.3"/>
	<path class="st0" d="M420.5,74.4c1.2,0,2.3,1,2.3,2.3c0,1.2-1,2.3-2.3,2.3c-1.2,0-2.3-1-2.3-2.3C418.2,75.4,419.2,74.4,420.5,74.4
		L420.5,74.4 M456.7,140l-0.6,0.1c-3.5,5.9-7.5,11.4-10.9,17.3c-0.8,0.1-1.4-0.5-1.9-1c-2.4-2.1-4.7-4.4-6.9-6.9
		c2.2-1.9,4.4-3.7,6.9-5.4c-1.2-0.9-2.6-1.5-3.8-2.4c-1,2.4-3.4,3.5-5.2,5.1c-2-2.3-3.8-4.7-5.2-7.5c2.5-1.2,4.6-3,7.2-4.2
		c0-0.1,0-0.4,0-0.6c-1-0.9-2-1.8-3-2.7c-1.4,2.2-3.9,3.2-6.2,4.4c-1.5-2.2-2.2-4.8-3.7-7l0.5-0.6c2.6-0.9,5.2-2.2,7.8-3.4
		c-1.2-0.9-2.2-2-3-3.3c-1.5,2.1-4.2,2.7-6.6,3.7c-2.4-6.1-4-12.4-4.7-19c3,0.5,5.6,2.4,8.3,3.6c-0.2-1.4-0.2-2.8-0.5-4.2
		c-1.8-0.8-3.7-1.4-5.7-2c1.7-1,3.5-1.8,5.4-2.4c0-1.5-0.1-3.1-0.3-4.6c-1.5,0.7-2.5,2-3.8,2.8l-3.9,2.2c-0.3-2.7-0.4-5.4-0.2-8.2
		c0-4.1,1-8.1,1.4-12.1c2.1,0,4.5,0.1,6.3-1.4c1.2-1.1,2.6-1.9,3.9-3c-0.6-0.1-1.3-0.2-1.9-0.2c-0.8-1.7-1.4-3.7-3.1-4.7
		c-1.1-0.8-2.5-1.2-3.8-1c-0.6,0.1-1.2,0.4-1.6,0.8c-1.4,1-1.7,2.7-2,4.2l-0.2-0.1c-1.1-0.3-2-1.1-2.6-2c-1-1.8-0.3-3.9-0.3-5.9
		c-1.9,1.9-3.4,4.8-2.2,7.5c0.6,2.1,2.5,3.2,4.1,4.4c-6.4,31.2,6.1,63.3,31.7,82.2l0.4-0.6c0.1-0.1,0.1-0.2,0.2-0.3l0.7-1.1
		c2.8-4.4,5.8-8.9,8.6-13.4c0.5-0.8,1.6-0.8,2.5-1.2c-0.4-2.1-0.9-4.2-1.4-6.3"/>
	<path class="st0" d="M567.6,125.8c-1.1,1.4,0.3,2.9,1.5,3.7c0.8-0.3,1.9-0.1,2.6-0.9c0.8-0.6,0.7-1.9,0.5-2.8
		c-0.7-1.3-2.2-1.8-3.5-1.1C568.2,125,567.8,125.4,567.6,125.8 M551.1,111.4c1.4-1.5,2.9-2.9,4.4-4.4c1.2,0.5,2.1,1.6,3.5,1.5
		c5.8,0,11.5,0.7,17.3,0.7c-0.5,4.5-1.5,9-3.1,13.2c1,1,2.2,2.1,2.2,3.6c0.3,2-0.5,3.9-2,5.2c-1.2,1.1-2.8,1.1-4.3,1.4
		c-1.1,2.4-2.4,4.7-3.8,7.1c1.6,1.4,3.9,2.6,4.2,5c0.2,1.9-0.7,4.3-2.7,4.8c-0.1-1.2,0-2.3,0-3.5c-1.9-1.8-4.1-3.2-6.6-4.2
		c-1.1-0.5-2.3-0.7-3.5-0.6c0.1-1.9,0-3.8-0.3-5.8c1.8,0.9,3.4,2.2,5.4,2.8c1.6-2.1,2.9-4.4,4-6.9c-1.8-2.1-2.8-5.7-0.7-8
		c1-1.8,3.1-2.2,4.9-2.6c0.9-2.7,1.6-5.4,2.2-8.2c-3.5-0.5-7.1-0.9-10.6-1C558.2,111.4,554.7,111.3,551.1,111.4"/>
	<path class="st0" d="M469.3,156.3c1.4-2.8,4.8-2.7,7.3-4.2c0.3,2,0.8,4,1.4,6c1.1,3.2,1.5,6.7,2.6,10c0.7,0.2,1.9-0.2,2.4,0.6
		c0.3,1,0.5,2,0.6,3c-2-0.2-4.1-0.7-6.2-1.1c-1-4.4-1.4-9.1-3.3-13.3l-1.1-0.1c-1.4,2.5-0.5,5.4,0.2,8.1c0.4,1.5,0.8,3,1.3,4.4
		c-1.4,0.3-2.7,0.7-4,1.3v0.8c4.8,1.9,10.1,2.6,15.2,3.4c5.4,0.6,11,0.7,16.6,0.2c-0.2,1.2-0.6,2.3-0.9,3.5
		c-6.3,0.5-12.4,0.2-18.7-0.7c-6.5-0.6-12.6-2.9-18.7-5c0.5-3.1,3.7-4.4,6.2-6C469.5,163.7,467.7,159.9,469.3,156.3"/>
	<path class="st0" d="M552.1,104.2c2-1.6,3.5-3.7,5.8-5.1c0.9,0.5,1.5,1.6,2.6,1.7c5.6,0.2,11.1,0.1,16.7,0.7c0,1.1-0.1,2.2-0.2,3.3
		C568.7,104.7,560.4,104.4,552.1,104.2"/>
	<path class="st0" d="M550.6,144.7c1.6-0.9,3.6-0.6,5,0.6c1.4,0.8,2.5,2,3.4,3.4c-2.5,3.5-5.8,6.5-8.8,9.5
		c-5.2,4.6-11,8.6-17.1,11.8c-3.6,1.6-7.1,3.5-10.9,4.5c-3.4,0.9-6.8,2.4-10.3,2.8c0.1,1.9,0.8,4.1-0.4,5.9c-1.1,1-2.6,1.3-4.1,1
		c0.6-0.5,1-1.1,1.4-1.8c0.4-2.1-0.4-4.2-0.8-6.3c-0.4-1.5-1.3-2.9-2.4-4c1.5-1.1,2.8-2.4,4-3.9c0.5,1.9,1.1,3.9,1.5,6
		c4.7-0.9,9.3-2.6,13.8-4.2c10-4.1,19.2-10.3,26.7-18.1c1-1.1,2-2.2,3.2-3.1c-0.8-0.7-1.8-1.8-3-1.2c-0.9,0.7-1.8,1.5-2.7,2.3
		c-5.1,5.2-11,9.7-17.4,13.3c-1.9,0.9-3.9,1.9-5.9,2.9c-2.4,1.2-5.1,1.7-7.6,2.9c-0.7,0.2-1.3,0.4-2,0.5c1.7-2.2,2.7-4.8,4.2-7.2
		c1.1-1.8,1.8-3.8,2.9-5.6c0,2.8-1.4,5.2-2.1,7.9c8.8-3.4,16.9-8.5,23.6-15C547.1,148,548.2,145.6,550.6,144.7"/>
	<path class="st0" d="M507.7,162.8c0-1.1-0.9-2-2-2c-1.1,0-2,0.9-2,2c0,1.1,0.9,2,2,2C506.8,164.8,507.7,163.9,507.7,162.8"/>
	<path class="st0" d="M519.6,18.4c1.2,0.3,2.4,0.7,3.5,1.1c-1.2,4.7-3,9.4-4.3,14.1c-0.7,3.1-2.2,6-2.9,9c-1.2-2.2-2.3-4.4-3.5-6.7
		c0.8-0.7,1.9-1.2,2.3-2.3c0.8-1.8,1.1-3.8,1.8-5.7C517.8,25,518.8,21.8,519.6,18.4"/>
	<path class="st0" d="M527.1,21.3c2.4,0.8,4.6,1.8,6.9,3.1c11.7,6.3,21.8,15.2,29.2,26.2c1.9,2.3,3,5.1,4.7,7.7
		c2.2,4.6,4.5,9.3,5.9,14.3c2.3,7.1,3.4,14.3,3.5,21.8c-1.6,0-3.2,0.1-4.8,0.1c0.7-1.1,1.1-2.3,1.1-3.6c-0.1-5.1-0.9-10.2-2.3-15.1
		c-1-2.6-1.7-5.2-2.7-7.9c-2.7-6.8-6.3-13-10.6-18.9l-0.5-0.2c-0.5,0.7-1,1.4-1.4,2.1c0,1.1,0.8,2,1.5,2.8c4,5.8,7.2,12,9.4,18.6
		c2.3,5.8,3,11.9,3.8,18c-2-1.4-3.6-3.3-5.6-4.8c-1.5-1.1-2.8-2.3-4.4-3.4c-0.4-0.4-0.8-0.8-1.1-1.2c2.6,0.9,5.1,2.2,7.4,3.9
		c-1.1-4.7-1.9-9.7-4-14.1c-1.3-3.5-2.9-7-4.8-10.2c-1.4-2.6-3.5-4.9-4.7-7.8c-1.1-2.4,0.4-5,2.4-6.5c-1.5-2-3.1-3.8-5-5.4
		c-1.4,2.2-4.5,3.5-4.2,6.6c-1.6-0.7-3.2-1.2-4.9-1.5c2.1-2.6,4.5-5,6.7-7.7c-2.6-2-5-4.4-8-6.2c-1.6,2.1-3.8,4.2-3.5,7.2
		c-1.5-0.7-3-1.1-4.6-1.3c1.6-2.8,3.6-5.2,5.3-7.9c-2.7-1.4-5.1-3.2-8-4.2c-0.8,3.8-2.3,7.4-3.2,11.2c-0.6,3.1-1.8,6.2-2.6,9.2h-0.7
		c-0.6-2-2.3-3.6-2.9-5.7c0.6-0.2,1.2-0.3,1.7-0.6c1.1-1.8,1.1-4,1.8-6.1C524.9,29.7,525.9,25.5,527.1,21.3"/>
	<path class="st0" d="M545.8,24.8c0-1.1-0.9-2-2-2s-2,0.9-2,2s0.9,2,2,2S545.8,25.9,545.8,24.8"/>
	<path class="st0" d="M542.4,51.4c0-1.1-0.9-2-2-2s-2,0.9-2,2c0,1.1,0.9,2,2,2S542.4,52.6,542.4,51.4"/>
	<path class="st0" d="M495,192.7c-52,0-94.1-42.1-94.1-94.1c0-47.3,35.1-87.3,82-93.4c0.5,3.9,2.9,7.4,6.5,9.2
		c-6,3-8.3,10.4-5.2,16.3c1.1,2.2,2.9,4,5.2,5.2c-4,2.1-6.6,6.3-6.6,10.8V47c-28.6,6.7-46.3,35.2-39.6,63.8
		c6.8,28.6,35.2,46.3,63.8,39.6c28.6-6.8,46.3-35.2,39.6-63.8c-4.6-19.7-20-35-39.6-39.6v-0.1c0-4.5-2.5-8.7-6.6-10.8
		c6-3,8.3-10.4,5.2-16.3c-1.1-2.2-2.9-4-5.2-5.2c3.5-1.8,6-5.2,6.5-9.2c51.6,6.7,87.9,53.8,81.3,105.3
		C582.3,157.6,542.4,192.7,495,192.7 M485.6,25.4c0-5.1,4.2-9.4,9.4-9.4c5.1,0,9.4,4.2,9.4,9.4s-4.2,9.4-9.4,9.4l0,0
		C489.8,34.8,485.6,30.6,485.6,25.4 M495,45.6c-3.1,0-6.3,0.3-9.4,0.8c0.2-5.1,4.6-9.2,9.8-8.9c4.8,0.2,8.7,4.1,8.9,8.9
		C501.3,45.9,498.1,45.6,495,45.6 M485.9,49.1c6-1.1,12.2-1.1,18.2,0c0.9,0.2,1.8,0.3,2.6,0.6c27,6.5,43.7,33.7,37.2,60.8
		c-6.5,27-33.7,43.7-60.8,37.2c-27-6.5-43.7-33.7-37.2-60.8c4.4-18.4,18.8-32.8,37.2-37.2C484.1,49.5,485,49.3,485.9,49.1 M495,4.6
		c3.1,0,6.3,0.2,9.3,0.5c-0.7,5.1-5.3,8.8-10.5,8.1c-4.2-0.6-7.5-3.8-8.1-8.1C488.7,4.8,491.8,4.6,495,4.6 M507,2.6
		c-0.9-0.1-1.8-0.2-2.8-0.3c-3-0.3-6.2-0.4-9.3-0.4s-6.2,0.1-9.3,0.4c-0.9,0.1-1.8,0.2-2.8,0.3c-53.1,6.7-90.6,55-84.1,108.1
		c6.7,53.1,55,90.6,108.1,84.1c53.1-6.7,90.6-55,84.1-108.1C585.5,42.7,550.9,8.1,507,2.6"/>
</g>
</svg>
