<svg xmlns="http://www.w3.org/2000/svg" xmlns:xlink="http://www.w3.org/1999/xlink" viewBox="0 0 204.47 69.69" xmlns:v="https://vecta.io/nano"><style><![CDATA[.F{fill:#3f6fb5}.G{fill:#3c1b10}]]></style><defs><clipPath id="A" transform="translate(-6 -42.66)"><path d="M159.2 68.84s-4.2 19.38 13.36 28.73a11.06 11.06 0 0 0 2.58 1c3.35.91 9.58 1.29 16.45-4.79 0 0-9.94 8.14-21.31-6.2a26 26 0 0 1-4.47-23s2.39-8 10.43-8.76c0 0-14.74 0-17 13m17-12.17h-.08c-7.32 3.14-9.82 13.88-5.57 24 2.89 6.89 8.16 11.75 13.56 13.23a11.53 11.53 0 0 0 7.59-.39 8.41 8.41 0 0 0 1.37-.7s8-5.07 5.48-18.92a19.24 19.24 0 0 0-1.33-4.21c-.33-.67-.61-1.4-.93-2-2.23-4-7.63-11.26-16.46-11.7h-.07a11.37 11.37 0 0 0-3.56.58m-1.42 22.57C171 70.3 172.87 61 179 58.41a9 9 0 0 1 5.95-.29c4.64 1.25 9.28 5.66 11.87 11.88 3.77 9 1.89 18.31-4.21 20.85a8.47 8.47 0 0 1-3.29.65c-5.42 0-11.43-4.84-14.54-12.26m-16.13 10.1a22.38 22.38 0 0 0 12.89 9.39l.66.17c-1-.27-12.83-3.71-15.66-19.29 0 0-1.45-7.22 2.06-13.51 0 0-7.55 10.51.05 23.24m13.62 9.58h-.07z" fill="none"/></clipPath><symbol id="B" viewBox="0 0 47.58 52.59"><path d="M40.28 51.64h-9.75v-30c0-10.61-3.91-14-10.33-14-5.15 0-10.47 3-10.47 14.25A53.37 53.37 0 0 0 11.8 36l-10-1.84A50.84 50.84 0 0 1 0 21C0 6.2 7.67 0 19.47 0c12.33 0 19 5.69 20.44 17h7.67v7.67h-7.3zm-20.81-9.22a5.09 5.09 0 1 1-5.09 5.08 5.09 5.09 0 0 1 5.09-5.08z" class="F"/></symbol><symbol id="C" viewBox="0 0 23.61 50.75"><path d="M23.39 5a4.88 4.88 0 1 1-9.75 0 4.88 4.88 0 1 1 9.75 0zM11.22 5a4.91 4.91 0 1 1-9.81 0 4.89 4.89 0 0 1 4.86-5 5 5 0 0 1 4.95 5zM0 16.08h23.61v34.67h-9.73v-27H0z" class="F"/></symbol><symbol id="D" viewBox="0 0 24.41 53.41"><path d="M6.19,0c15,0,18.22,9,18.22,18.44v35H14.67V17.92c0-8-2.95-10.33-7.89-10.33a20.26,20.26,0,0,0-6,.89L0,.73A27.09,27.09,0,0,1,6.19,0Z" class="F"/></symbol><symbol id="E" viewBox="0 0 17.13 52"><path d="M0,0H17.12V7.67H9.73V52H0Z" class="F"/></symbol><symbol id="F" viewBox="0 0 42.86 35.63"><path d="M42.86,0V18.08c0,10.76-5.17,17.54-17,17.54C13.42,35.62,7,27.08,7,16.53,7,9.81,5,7.67,1.47,7.67H0V0H1.11C5.53,0,9,1.84,10.84,5.69,13.06,2.06,17.33,0,26.05,0ZM33.34,7.67H27c-7.59,0-10.41,3.25-10.41,9.74,0,6.26,3.18,10.54,8.57,10.54s8.18-3.23,8.18-11Z" class="F"/></symbol><symbol id="G" viewBox="0 0 42.28 54.22"><path d="M11.88,0C28.41,0,35,8.27,35,18.45v.14h7.31v7.68H35V51.64a47.36,47.36,0,0,1-15.42,2.58C6,54.22,0,45.38,0,35.7,0,25.23,5.39,18.59,19.78,18.59h5.75V17.48c0-6.93-5.09-9.81-12.76-9.81A61.15,61.15,0,0,0,1.27,8.94L.67,1A76.52,76.52,0,0,1,11.88,0ZM25.53,26.27H20.81c-7.75,0-11.06,3.61-11.06,10.32,0,5.75,3.23,10,8.77,10a17.81,17.81,0,0,0,7-1.33Z" class="F"/></symbol><symbol id="H" viewBox="0 0 30.91 50.75"><path d="M0 16.08h30.91v7.67h-7.3v27h-9.73v-27H0zM11.22 5a4.91 4.91 0 1 1-9.81 0 4.89 4.89 0 0 1 4.86-5 5 5 0 0 1 4.95 5zm12.17 0a4.88 4.88 0 1 1-9.75 0 4.88 4.88 0 1 1 9.75 0z" class="F"/></symbol><symbol id="I" viewBox="0 0 33.05 53.92"><path d="M0,0H31.42V4.94c0,16-6.48,24-16.37,28.48l18,10.85v9.65L3.83,35.62V28.47c11.73-2.72,17.64-9.36,18.08-20.8H0Z" class="F"/></symbol><symbol id="J" viewBox="0 0 51.94 52"><path d="M0,0H50.89a139.08,139.08,0,0,1,1,17.78c0,11.06-4.8,17.84-15,17.84-7.89,0-15.34-5-19-13.71h-.08a69.35,69.35,0,0,1,.81,10.92V52H9V7.67H0ZM18.66,7.67C20.5,18,27.08,27.81,35,27.81c5.23,0,7-4.2,7-11.14,0-2.65-.14-6.05-.36-9Z" class="F"/></symbol><symbol id="K" viewBox="0 0 28.92 24.48"><path d="M0,0H28.92V7.59H22.36c-6.2,0-8.41,2.07-8.41,5,0,2.5,2,4.34,5.83,4.34a31.59,31.59,0,0,0,5.89-.59L26.86,24a44.54,44.54,0,0,1-6.64.51c-11.58,0-16-6.1-16-12.31a5.38,5.38,0,0,1,2.6-5A43.81,43.81,0,0,1,0,7.59Z" class="G"/></symbol><symbol id="L" viewBox="0 0 49.13 35.63"><path d="M26.05,0H49.12V7.67H42.86V18.08c0,10.76-5.17,17.54-17,17.54C13.42,35.62,7,27.08,7,16.53,7,9.81,5,7.67,1.47,7.67H0V0H1.11C5.53,0,9,1.84,10.84,5.69,13.06,2.06,17.33,0,26.05,0Zm7.29,7.67H27c-7.59,0-10.41,3.25-10.41,9.74,0,6.26,3.18,10.54,8.57,10.54s8.18-3.23,8.18-11Z" class="G"/></symbol><symbol id="M" viewBox="0 0 20.28 51.05"><path d="M0 0h20.06v34.67h-9.73v-27H0zm15.2 40.86A5.1 5.1 0 1 1 10.11 46a5.1 5.1 0 0 1 5.09-5.14z" class="G"/></symbol><symbol id="N" viewBox="0 0 35.56 72.28"><path d="M9.67,72.28,0,71,10.55,33h9.89ZM35.56,19.77v52H25.83V27.44H3V19.77ZM3.77,0H22.36V5.38H18c-3.39,0-4.64.81-4.64,2.29,0,1.25,1.17,2.14,3.25,2.14a21.47,21.47,0,0,0,3.53-.37L21,14.75a23.32,23.32,0,0,1-4.36.37c-7.15,0-10.25-3.62-10.25-7.6a3.23,3.23,0,0,1,1-2.43,17.58,17.58,0,0,1-3.61.29Z" class="G"/></symbol><symbol id="O" viewBox="0 0 9.73 52"><path d="M0,0H9.73V52H0Z" class="G"/></symbol><symbol id="P" viewBox="0 0 46.03 49.8"><path d="M46 0L28.47 49.8H17.19L0 0h9.66l3.46 10.17H32L35.41 0zM29.58 17.78H15.41l5.09 14.83 1.92 6.86h.08c.52-2.22 1.17-4.44 2-6.86z" class="G"/></symbol><symbol id="Q" viewBox="0 0 9.44 53.84"><path d="M9.44,0V53.84H0V0Z" class="G"/></symbol><symbol id="R" viewBox="0 0 53.7 37.41"><path d="M53.7,0V25.23c0,8.25-3.92,12.18-11,12.18a13.09,13.09,0,0,1-12-7.32c-.87,3.55-3.61,7.32-10.09,7.32A13.15,13.15,0,0,1,8.55,30l-.07.07a52.7,52.7,0,0,1,.44,6.57H0V0H9.44V17.56c0,6.86,4.06,11.94,8.4,11.94,3.63,0,4.36-2.66,4.36-6.27V0h9.3V17.56c0,7.16,4.27,11.94,8.41,11.94,3.47,0,4.34-2.42,4.34-6.34V0Z" class="G"/></symbol><symbol id="S" viewBox="0 0 35.41 49.8"><path d="M35.41,41.61V49.8H0V41.61H12.91V0H22.5V41.61Z" class="F"/></symbol><symbol id="T" viewBox="0 0 35.92 38.14"><path d="M35.92 19.77c0 12.61-6.72 18.37-17.19 18.37C7.59 38.14 0 29.88 0 18.44 0 5.38 6.78 0 17.19 0c10.9 0 18.73 8.27 18.73 19.77zm-9.73-.52C26.19 11.8 22.56 8 17.92 8c-5.39 0-8.19 3.85-8.19 11.36s4.13 10.78 8.33 10.78c5.55.03 8.13-3.81 8.13-10.89z" class="F"/></symbol><symbol id="U" viewBox="0 0 32.59 53.84"><path d="M32.59,0,18.81,19.92,31.64,36.66H20.14L9.44,21.39V53.84H0V0H9.44V18.14L20.8,0Z" class="F"/></symbol><symbol id="V" viewBox="0 0 60.34 49.8"><path d="M60.34,0,52.59,49.8H41.39L32.91,23.91c-.89-2.82-1.85-6.58-2.74-10.33H30c-.75,3.47-1.92,7.81-2.73,10.47L18.89,49.8H7.59L0,0H9.67l2.88,23.23c.51,4.36.95,8.86,1.33,13.29H14a114.19,114.19,0,0,1,3.25-13.13L24.94,0h9.29l8,25.16c1.25,4.06,2.14,8.18,2.81,11.36h.14c.37-3.47.89-8,1.55-12.47L50.39,0Z" class="F"/></symbol><symbol id="W" viewBox="0 0 20.06 37.46"><path d="M20.06,37.41c-6.34.57-9.89-3.47-11.65-8.13H8.25a47.68,47.68,0,0,1,.67,7.38H0V0H9.44V15c0,10.19,3.39,14.53,10.18,13.2Z" class="F"/></symbol><symbol id="X" viewBox="0 0 32.59 38.14"><path d="M32.59 22.56c0 8.71-4.5 15.58-15.18 15.58C6.48 38.14 0 29.72 0 18.73 0 5.83 6.48 0 18.06 0a39.45 39.45 0 0 1 13.28 2.36l-1 7.16a28.55 28.55 0 0 0-10.65-2.14c-7.08 0-10.11 3.39-10.11 9.89h22.65a34.16 34.16 0 0 1 .36 5.29zm-9.36 1H9.66c.51 4.8 3.31 7.67 7.23 7.67s6.49-2.68 6.34-7.7z" class="F"/></symbol></defs><path d="M166.16 56.24c-1-.27-12.83-3.71-15.66-19.29 0 0-1.45-7.22 2.06-13.51 0 0-7.55 10.51.05 23.24a22.38 22.38 0 0 0 12.89 9.39l.66.17m.07 0h-.07zm19.36-5.13s-9.94 8.14-21.31-6.2a26 26 0 0 1-4.47-23c0 0 2.39-8 10.43-8.76 0 0-14.74 0-17 13 0 0-4.19 19.38 13.36 28.73a11.06 11.06 0 0 0 2.58 1c3.35.91 9.58 1.29 16.45-4.79m.07-.2a8.84 8.84 0 0 0 1.37-.7c0 0 8-5.07 5.48-18.92a19.24 19.24 0 0 0-1.33-4.21c-.33-.67-.61-1.4-.93-2-2.23-4-7.63-11.26-16.46-11.7a11.72 11.72 0 0 0-3.63.58h-.08c-7.32 3.14-9.82 13.88-5.57 24 2.89 6.89 8.16 11.75 13.56 13.23a11.53 11.53 0 0 0 7.59-.39m5.08-23.44c3.77 9 1.89 18.31-4.21 20.85s-14.07-2.64-17.83-11.61-1.87-18.24 4.26-20.83a9 9 0 0 1 5.95-.29c4.64 1.25 9.28 5.66 11.87 11.88" fill="#3d5eab"/><g clip-path="url(#A)" class="F"><path d="M204.47 35.72l-34 34-35.69-35.75 34-34z"/></g><path d="M184 42.15l-7.6 2.46V22.05l7.6-2.46z" class="G"/><use width="47.58" height="52.59" transform="matrix(.21 0 0 -.21 .25 34.98)" xlink:href="#B"/><use width="23.61" height="50.75" transform="matrix(.21 0 0 -.21 11.86 34.79)" xlink:href="#C"/><use width="24.41" height="53.41" transform="matrix(.21 0 0 -.21 16.98 35.36)" xlink:href="#D"/><use width="17.13" height="52" transform="matrix(.21 0 0 -.21 24.69 31.36)" xlink:href="#E"/><use width="42.86" height="35.63" transform="matrix(.21 0 0 -.21 28.1 31.36)" xlink:href="#F"/><use width="42.28" height="54.22" transform="matrix(.21 0 0 -.21 42.77 35.33)" xlink:href="#G"/><use width="30.91" height="50.75" transform="matrix(.21 0 0 -.21 53.23 34.79)" xlink:href="#H"/><use width="33.05" height="53.92" transform="matrix(.21 0 0 -.21 61.27 31.36)" xlink:href="#I"/><use width="42.28" height="54.22" transform="matrix(.21 0 0 -.21 69.6 35.33)" xlink:href="#G"/><use width="51.94" height="52" transform="matrix(.21 0 0 -.21 78.36 31.36)" xlink:href="#J"/><use width="28.92" height="24.48" transform="matrix(.21 0 0 -.21 94.95 31.36)" xlink:href="#K"/><use width="17.13" height="52" transform="matrix(.21 0 0 -.21 103.36 31.36)" xlink:href="#E"/><use width="49.13" height="35.63" transform="matrix(.21 0 0 -.21 108.48 31.36)" xlink:href="#L"/><use width="20.28" height="51.05" transform="matrix(.21 0 0 -.21 120.41 31.36)" xlink:href="#M"/><use width="35.56" height="72.28" transform="matrix(.21 0 0 -.21 126.34 35.58)" xlink:href="#N"/><use width="9.73" height="52" transform="matrix(.21 0 0 -.21 136.58 31.36)" xlink:href="#O"/><use width="46.03" height="49.8" transform="matrix(.21 0 0 -.21 0 50.18)" xlink:href="#P"/><use width="9.44" height="53.84" transform="matrix(.21 0 0 -.21 10.92 50.18)" xlink:href="#Q"/><use width="53.7" height="37.41" transform="matrix(.21 0 0 -.21 28.28 50.18)" xlink:href="#R"/><use width="35.41" height="49.8" transform="matrix(.21 0 0 -.21 52.7 50.18)" xlink:href="#S"/><use width="35.92" height="38.14" transform="matrix(.21 0 0 -.21 59.48 50.34)" xlink:href="#T"/><use width="32.59" height="53.84" transform="matrix(.21 0 0 -.21 68.75 50.18)" xlink:href="#U"/><use width="35.92" height="38.14" transform="matrix(.21 0 0 -.21 80.6 50.34)" xlink:href="#T"/><use width="60.34" height="49.8" transform="matrix(.21 0 0 -.21 93.12 50.18)" xlink:href="#V"/><use width="-32766" height="-32766" transform="matrix(.21 0 0 -.21 3605.45 -3448.81)" xlink:href="#s"/><use width="20.06" height="37.46" transform="matrix(.21 0 0 -.21 115.81 50.07)" xlink:href="#W"/><use width="-32766" height="-32766" transform="matrix(.21 0 0 -.21 3617.49 -3450.6)" xlink:href="#s"/><use width="-32766" height="-32766" transform="matrix(.21 0 0 -.21 3624.06 -3448.88)" xlink:href="#s"/><use width="32.59" height="38.14" transform="matrix(.21 0 0 -.21 134.02 50.34)" xlink:href="#X"/><path d="M76.73 39.98a1.25 1.25 0 0 1 2.112-.945A1.25 1.25 0 0 1 78 41.19a1.23 1.23 0 0 1-1.27-1.21zm.27 10.2v-7.84h2v7.83z" class="F"/><g class="G"><path d="M103.36 31.34H107v-1.62h-1.58v-9.46h-2.08z"/><path d="M106 29.72h2.74v1.62H106zm12 0h3.37v1.62H118z"/></g><path d="M51.26 29.72h2.51v1.62h-2.51zm-41.99 0H13v1.62H9.27zm49.37 0h3.82v1.62h-3.82zm55.03 20.46l-.06-2v-3.25c0-1.74-.72-2.75-3.15-2.75a8.63 8.63 0 0 0-3 .53l.33 1.55a6.74 6.74 0 0 1 2.37-.54c1 0 1.4.43 1.4 1.37v.25c-2.74 0-4.52.87-4.52 2.73a2.1 2.1 0 0 0 2.27 2.27 2.66 2.66 0 0 0 2.51-1.49h0a9.46 9.46 0 0 0-.07 1.33zm-2.07-3.12a1.79 1.79 0 0 1-1.6 1.89.9.9 0 0 1-.95-.91c0-.68.55-1.18 2.59-1.18z" class="F"/><path d="M48.29 50.19l-.06-2v-3.24c0-1.75-.72-2.76-3.15-2.76a8.4 8.4 0 0 0-3 .54l.33 1.54a6.73 6.73 0 0 1 2.36-.54c1 0 1.41.43 1.41 1.37v.29c-2.74 0-4.52.86-4.52 2.72a2.1 2.1 0 0 0 2.27 2.23 2.66 2.66 0 0 0 2.51-1.49h0a9.46 9.46 0 0 0-.07 1.33zm-2.07-3.12a1.79 1.79 0 0 1-1.64 1.89.9.9 0 0 1-.95-.91c0-.68.55-1.18 2.59-1.18z" class="G"/><path d="M132.38 50.19v-5.5c0-1.37-.56-2.49-2.33-2.49a2.88 2.88 0 0 0-2.66 1.56h0a8.67 8.67 0 0 0 .11-1.4h-1.91v7.83h2v-3.78c0-1.37.8-2.52 1.81-2.52.75 0 1 .48 1 1.29v5z" class="F"/><path d="M26.22 50.19v-5.5c0-1.37-.57-2.49-2.33-2.49a2.88 2.88 0 0 0-2.66 1.56h0a7.72 7.72 0 0 0 .12-1.4h-1.93v7.83h2v-3.78c0-1.37.8-2.52 1.81-2.52.75 0 1 .48 1 1.29v5z" class="G"/><path d="M121.15 39.98a1.26 1.26 0 1 1 2.52 0 1.22 1.22 0 0 1-1.25 1.21 1.25 1.25 0 0 1-1.27-1.21zm.25 10.2v-7.84h2v7.82z" class="F"/><path d="M14.85 39.97a1.26 1.26 0 0 1 2.52 0 1.22 1.22 0 0 1-1.25 1.21 1.25 1.25 0 0 1-1.27-1.21zm.25 10.2v-7.83h2v7.82z" class="G"/></svg>